<svg enable-background="new -480 140 240 520" height="520" viewBox="-480 140 240 520" width="240" xmlns="http://www.w3.org/2000/svg"><path d="m-360 160h20v20h-20z" fill="#ce2811"/><path d="m-380 180h20v20h-20z" fill="#ce2811"/><path d="m-360 180h20v20h-20z" fill="#ce2811"/><path d="m-340 180h20v20h-20z" fill="#ce2811"/><path d="m-380 200h20v20h-20z" fill="#c9ae91"/><path d="m-360 200h20v20h-20z" fill="#c9ae91"/><path d="m-340 200h20v20h-20z" fill="#c9ae91"/><path d="m-380 220h20v20h-20z" fill="#e5c7a1"/><path d="m-360 220h20v20h-20z" fill="#e5c7a1"/><path d="m-340 220h20v20h-20z" fill="#e5c7a1"/><path d="m-380 240h20v20h-20z" fill="#e5c7a1"/><path d="m-360 240h20v20h-20z" fill="#e5c7a1"/><path d="m-340 240h20v20h-20z" fill="#e5c7a1"/><path d="m-400 240h20v20h-20z" fill="#b3e27d"/><path d="m-320 260h20v20h-20z" fill="#ccff97"/><path d="m-340 260h20v20h-20z" fill="#b3e27d"/><path d="m-380 260h20v20h-20z" fill="#b3e27d"/><path d="m-400 260h20v20h-20z" fill="#ccff97"/><path d="m-420 260h20v20h-20z" fill="#b3e27d"/><path d="m-300 280h20v20h-20z" fill="#ccff97"/><path d="m-320 280h20v20h-20z" fill="#ccff97"/><path d="m-340 280h20v20h-20z" fill="#ccff97"/><path d="m-380 280h20v20h-20z" fill="#ccff97"/><path d="m-400 280h20v20h-20z" fill="#ccff97"/><path d="m-420 280h20v20h-20z" fill="#ccff97"/><path d="m-440 280h20v20h-20z" fill="#b3e27d"/><path d="m-300 300h20v20h-20z" fill="#ccff97"/><path d="m-320 300h20v20h-20z" fill="#ccff97"/><path d="m-340 300h20v20h-20z" fill="#ccff97"/><path d="m-380 300h20v20h-20z" fill="#ccff97"/><path d="m-400 300h20v20h-20z" fill="#ccff97"/><path d="m-420 300h20v20h-20z" fill="#ccff97"/><path d="m-440 300h20v20h-20z" fill="#b3e27d"/><path d="m-300 320h20v20h-20z" fill="#ccff97"/><path d="m-320 320h20v20h-20z" fill="#b3e27d"/><path d="m-340 320h20v20h-20z" fill="#ccff97"/><path d="m-380 320h20v20h-20z" fill="#ccff97"/><path d="m-400 320h20v20h-20z" fill="#ccff97"/><path d="m-420 320h20v20h-20z" fill="#ccff97"/><path d="m-440 320h20v20h-20z" fill="#b3e27d"/><path d="m-400 340h20v20h-20z" fill="#ccff97"/><path d="m-420 340h20v20h-20z" fill="#ccff97"/><path d="m-320 340h20v20h-20z" fill="#b3e27d"/><path d="m-380 340h20v20h-20z" fill="#ccff97"/><path d="m-340 340h20v20h-20z" fill="#ccff97"/><path d="m-320 360h20v20h-20z" fill="#b3e27d"/><path d="m-340 360h20v20h-20z" fill="#ccff97"/><path d="m-380 360h20v20h-20z" fill="#ccff97"/><path d="m-400 360h20v20h-20z" fill="#ccff97"/><path d="m-420 360h20v20h-20z" fill="#ccff97"/><path d="m-320 380h20v20h-20z" fill="#b3e27d"/><path d="m-340 380h20v20h-20z" fill="#ccff97"/><path d="m-380 380h20v20h-20z" fill="#ccff97"/><path d="m-400 380h20v20h-20z" fill="#ccff97"/><path d="m-420 380h20v20h-20z" fill="#ccff97"/><path d="m-320 400h20v20h-20z" fill="#b3e27d"/><path d="m-340 400h20v20h-20z" fill="#ccff97"/><path d="m-360 400h20v20h-20z" fill="#b3e27d"/><path d="m-380 400h20v20h-20z" fill="#ccff97"/><path d="m-400 400h20v20h-20z" fill="#ccff97"/><path d="m-420 400h20v20h-20z" fill="#ccff97"/><path d="m-440 340h20v20h-20z" fill="#c9ae91"/><path d="m-440 360h20v20h-20z" fill="#c9ae91"/><path d="m-440 380h20v20h-20z" fill="#c9ae91"/><path d="m-440 400h20v20h-20z" fill="#c9ae91"/><path d="m-440 420h20v20h-20z" fill="#c9ae91"/><path d="m-440 440h20v20h-20z" fill="#c9ae91"/><path d="m-300 340h20v20h-20z" fill="#d8bb91"/><path d="m-300 360h20v20h-20z" fill="#d8bb91"/><path d="m-300 380h20v20h-20z" fill="#d8bb91"/><path d="m-300 400h20v20h-20z" fill="#d8bb91"/><path d="m-300 420h20v20h-20z" fill="#d8bb91"/><path d="m-300 440h20v20h-20z" fill="#d8bb91"/><path d="m-360 260h20v20h-20z" fill="#3e5056"/><path d="m-360 280h20v20h-20z" fill="#516872"/><path d="m-360 300h20v20h-20z" fill="#516872"/><path d="m-360 320h20v20h-20z" fill="#516872"/><path d="m-360 340h20v20h-20z" fill="#516872"/><path d="m-360 360h20v20h-20z" fill="#516872"/><path d="m-360 380h20v20h-20z" fill="#516872"/><path d="m-320 420h20v20h-20z" fill="#302517"/><path d="m-340 420h20v20h-20z" fill="#302517"/><path d="m-360 420h20v20h-20z" fill="#302517"/><path d="m-380 420h20v20h-20z" fill="#302517"/><path d="m-400 420h20v20h-20z" fill="#302517"/><path d="m-420 420h20v20h-20z" fill="#302517"/><g fill="#a09087"><path d="m-320 440h20v20h-20z"/><path d="m-340 440h20v20h-20z"/><path d="m-360 440h20v20h-20z"/><path d="m-380 440h20v20h-20z"/><path d="m-400 440h20v20h-20z"/><path d="m-420 440h20v20h-20z"/><path d="m-320 460h20v20h-20z"/></g><path d="m-340 460h20v20h-20z" fill="#7f7570"/><path d="m-360 460h20v20h-20z" fill="#7f7570"/><path d="m-380 460h20v20h-20z" fill="#7f7570"/><path d="m-400 460h20v20h-20z" fill="#7f7570"/><path d="m-420 460h20v20h-20z" fill="#a09087"/><path d="m-440 460h20v20h-20z" fill="#7f7570"/><path d="m-320 480h20v20h-20z" fill="#a09087"/><path d="m-340 480h20v20h-20z" fill="#7f7570"/><path d="m-320 500h20v20h-20z" fill="#a09087"/><path d="m-340 500h20v20h-20z" fill="#7f7570"/><path d="m-320 520h20v20h-20z" fill="#a09087"/><path d="m-340 520h20v20h-20z" fill="#7f7570"/><path d="m-320 540h20v20h-20z" fill="#a09087"/><path d="m-340 540h20v20h-20z" fill="#7f7570"/><path d="m-320 560h20v20h-20z" fill="#a09087"/><path d="m-340 560h20v20h-20z" fill="#7f7570"/><path d="m-320 580h20v20h-20z" fill="#a09087"/><path d="m-340 580h20v20h-20z" fill="#7f7570"/><path d="m-320 600h20v20h-20z" fill="#a09087"/><path d="m-340 600h20v20h-20z" fill="#7f7570"/><path d="m-320 620h20v20h-20z" fill="#a09087"/><path d="m-340 620h20v20h-20z" fill="#7f7570"/><path d="m-420 480h20v20h-20z" fill="#a09087"/><path d="m-440 480h20v20h-20z" fill="#7f7570"/><path d="m-420 500h20v20h-20z" fill="#a09087"/><path d="m-440 500h20v20h-20z" fill="#7f7570"/><path d="m-420 520h20v20h-20z" fill="#a09087"/><path d="m-440 520h20v20h-20z" fill="#7f7570"/><path d="m-420 540h20v20h-20z" fill="#a09087"/><path d="m-440 540h20v20h-20z" fill="#7f7570"/><path d="m-420 560h20v20h-20z" fill="#a09087"/><path d="m-440 560h20v20h-20z" fill="#7f7570"/><path d="m-420 580h20v20h-20z" fill="#a09087"/><path d="m-440 580h20v20h-20z" fill="#7f7570"/><path d="m-420 600h20v20h-20z" fill="#a09087"/><path d="m-440 600h20v20h-20z" fill="#7f7570"/><path d="m-420 620h20v20h-20z" fill="#a09087"/><path d="m-440 620h20v20h-20z" fill="#7f7570"/><path d="m-320 640h20v20h-20z" fill="#302517"/><path d="m-340 640h20v20h-20z" fill="#302517"/><path d="m-420 640h20v20h-20z" fill="#302517"/><path d="m-440 640h20v20h-20z" fill="#302517"/></svg>