<svg enable-background="new -919 301 160 500" height="500" viewBox="-919 301 160 500" width="160" xmlns="http://www.w3.org/2000/svg"><path d="m-839 301h20v20h-20z" fill="#ce2811"/><path d="m-859 321h20v20h-20z" fill="#ce2811"/><path d="m-839 321h20v20h-20z" fill="#ce2811"/><path d="m-819 321h20v20h-20z" fill="#ce2811"/><path d="m-859 341h20v20h-20z" fill="#c9ae91"/><path d="m-839 341h20v20h-20z" fill="#c9ae91"/><path d="m-819 341h20v20h-20z" fill="#c9ae91"/><path d="m-859 361h20v20h-20z" fill="#e5c7a1"/><path d="m-839 361h20v20h-20z" fill="#e5c7a1"/><path d="m-819 361h20v20h-20z" fill="#e5c7a1"/><path d="m-859 381h20v20h-20z" fill="#e5c7a1"/><path d="m-839 381h20v20h-20z" fill="#e5c7a1"/><path d="m-819 381h20v20h-20z" fill="#e5c7a1"/><path d="m-879 381h20v20h-20z" fill="#b3e27d"/><path d="m-799 401h20v20h-20z" fill="#ccff97"/><path d="m-819 401h20v20h-20z" fill="#b3e27d"/><path d="m-859 401h20v20h-20z" fill="#b3e27d"/><path d="m-879 401h20v20h-20z" fill="#ccff97"/><path d="m-899 401h20v20h-20z" fill="#b3e27d"/><path d="m-779 421h20v20h-20z" fill="#ccff97"/><path d="m-799 421h20v20h-20z" fill="#ccff97"/><path d="m-819 421h20v20h-20z" fill="#ccff97"/><path d="m-859 421h20v20h-20z" fill="#ccff97"/><path d="m-879 421h20v20h-20z" fill="#ccff97"/><path d="m-899 421h20v20h-20z" fill="#ccff97"/><path d="m-919 421h20v20h-20z" fill="#b3e27d"/><path d="m-779 441h20v20h-20z" fill="#ccff97"/><path d="m-799 441h20v20h-20z" fill="#ccff97"/><path d="m-819 441h20v20h-20z" fill="#ccff97"/><path d="m-859 441h20v20h-20z" fill="#ccff97"/><path d="m-879 441h20v20h-20z" fill="#ccff97"/><path d="m-899 441h20v20h-20z" fill="#ccff97"/><path d="m-919 441h20v20h-20z" fill="#b3e27d"/><path d="m-779 461h20v20h-20z" fill="#ccff97"/><path d="m-799 461h20v20h-20z" fill="#b3e27d"/><path d="m-819 461h20v20h-20z" fill="#ccff97"/><path d="m-859 461h20v20h-20z" fill="#ccff97"/><path d="m-879 461h20v20h-20z" fill="#ccff97"/><path d="m-899 461h20v20h-20z" fill="#ccff97"/><path d="m-919 461h20v20h-20z" fill="#b3e27d"/><path d="m-879 481h20v20h-20z" fill="#ccff97"/><path d="m-899 481h20v20h-20z" fill="#ccff97"/><path d="m-799 481h20v20h-20z" fill="#b3e27d"/><path d="m-859 481h20v20h-20z" fill="#ccff97"/><path d="m-819 481h20v20h-20z" fill="#ccff97"/><path d="m-799 501h20v20h-20z" fill="#b3e27d"/><path d="m-819 501h20v20h-20z" fill="#ccff97"/><path d="m-859 501h20v20h-20z" fill="#ccff97"/><path d="m-879 501h20v20h-20z" fill="#ccff97"/><path d="m-899 501h20v20h-20z" fill="#ccff97"/><path d="m-799 521h20v20h-20z" fill="#b3e27d"/><path d="m-819 521h20v20h-20z" fill="#ccff97"/><path d="m-859 521h20v20h-20z" fill="#ccff97"/><path d="m-879 521h20v20h-20z" fill="#ccff97"/><path d="m-899 521h20v20h-20z" fill="#ccff97"/><path d="m-799 541h20v20h-20z" fill="#b3e27d"/><path d="m-819 541h20v20h-20z" fill="#ccff97"/><path d="m-839 541h20v20h-20z" fill="#b3e27d"/><path d="m-859 541h20v20h-20z" fill="#ccff97"/><path d="m-879 541h20v20h-20z" fill="#ccff97"/><path d="m-899 541h20v20h-20z" fill="#ccff97"/><path d="m-919 481h20v20h-20z" fill="#c9ae91"/><path d="m-919 501h20v20h-20z" fill="#c9ae91"/><path d="m-919 521h20v20h-20z" fill="#c9ae91"/><path d="m-919 541h20v20h-20z" fill="#c9ae91"/><path d="m-919 561h20v20h-20z" fill="#c9ae91"/><path d="m-919 581h20v20h-20z" fill="#c9ae91"/><path d="m-779 481h20v20h-20z" fill="#d8bb91"/><path d="m-779 501h20v20h-20z" fill="#d8bb91"/><path d="m-779 521h20v20h-20z" fill="#d8bb91"/><path d="m-779 541h20v20h-20z" fill="#d8bb91"/><path d="m-779 561h20v20h-20z" fill="#d8bb91"/><path d="m-779 581h20v20h-20z" fill="#d8bb91"/><path d="m-839 401h20v20h-20z" fill="#3e5056"/><path d="m-839 421h20v20h-20z" fill="#516872"/><path d="m-839 441h20v20h-20z" fill="#516872"/><path d="m-839 461h20v20h-20z" fill="#516872"/><path d="m-839 481h20v20h-20z" fill="#516872"/><path d="m-839 501h20v20h-20z" fill="#516872"/><path d="m-839 521h20v20h-20z" fill="#516872"/><path d="m-799 561h20v20h-20z" fill="#302517"/><path d="m-819 561h20v20h-20z" fill="#302517"/><path d="m-839 561h20v20h-20z" fill="#302517"/><path d="m-859 561h20v20h-20z" fill="#302517"/><path d="m-879 561h20v20h-20z" fill="#302517"/><path d="m-899 561h20v20h-20z" fill="#302517"/><g fill="#a09087"><path d="m-799 581h20v20h-20z"/><path d="m-819 581h20v20h-20z"/><path d="m-839 581h20v20h-20z"/><path d="m-859 581h20v20h-20z"/><path d="m-879 581h20v20h-20z"/><path d="m-899 581h20v20h-20z"/><path d="m-799 601h20v20h-20z"/></g><path d="m-819 601h20v20h-20z" fill="#7f7570"/><path d="m-839 601h20v20h-20z" fill="#7f7570"/><path d="m-859 601h20v20h-20z" fill="#7f7570"/><path d="m-879 601h20v20h-20z" fill="#7f7570"/><path d="m-899 601h20v20h-20z" fill="#a09087"/><path d="m-919 601h20v20h-20z" fill="#7f7570"/><path d="m-799 621h20v20h-20z" fill="#a09087"/><path d="m-819 621h20v20h-20z" fill="#7f7570"/><path d="m-799 641h20v20h-20z" fill="#a09087"/><path d="m-819 641h20v20h-20z" fill="#7f7570"/><path d="m-799 661h20v20h-20z" fill="#a09087"/><path d="m-819 661h20v20h-20z" fill="#7f7570"/><path d="m-799 681h20v20h-20z" fill="#a09087"/><path d="m-819 681h20v20h-20z" fill="#7f7570"/><path d="m-799 701h20v20h-20z" fill="#a09087"/><path d="m-819 701h20v20h-20z" fill="#7f7570"/><path d="m-799 721h20v20h-20z" fill="#a09087"/><path d="m-819 721h20v20h-20z" fill="#7f7570"/><path d="m-799 741h20v20h-20z" fill="#a09087"/><path d="m-819 741h20v20h-20z" fill="#7f7570"/><path d="m-799 761h20v20h-20z" fill="#a09087"/><path d="m-819 761h20v20h-20z" fill="#7f7570"/><path d="m-899 621h20v20h-20z" fill="#a09087"/><path d="m-919 621h20v20h-20z" fill="#7f7570"/><path d="m-899 641h20v20h-20z" fill="#a09087"/><path d="m-919 641h20v20h-20z" fill="#7f7570"/><path d="m-899 661h20v20h-20z" fill="#a09087"/><path d="m-919 661h20v20h-20z" fill="#7f7570"/><path d="m-899 681h20v20h-20z" fill="#a09087"/><path d="m-919 681h20v20h-20z" fill="#7f7570"/><path d="m-899 701h20v20h-20z" fill="#a09087"/><path d="m-919 701h20v20h-20z" fill="#7f7570"/><path d="m-899 721h20v20h-20z" fill="#a09087"/><path d="m-919 721h20v20h-20z" fill="#7f7570"/><path d="m-899 741h20v20h-20z" fill="#a09087"/><path d="m-919 741h20v20h-20z" fill="#7f7570"/><path d="m-899 761h20v20h-20z" fill="#a09087"/><path d="m-919 761h20v20h-20z" fill="#7f7570"/><path d="m-799 781h20v20h-20z" fill="#302517"/><path d="m-819 781h20v20h-20z" fill="#302517"/><path d="m-899 781h20v20h-20z" fill="#302517"/><path d="m-919 781h20v20h-20z" fill="#302517"/></svg>