<svg enable-background="new -479 141 240 520" height="520" viewBox="-479 141 240 520" width="240" xmlns="http://www.w3.org/2000/svg"><path d="m-839 401h20v20h-20z" fill="#ccff97"/><path d="m-839 401h20v20h-20z" fill="#b3e27d"/><path d="m-819 421h20v20h-20z" fill="#ccff97"/><path d="m-839 421h20v20h-20z" fill="#ccff97"/><path d="m-839 421h20v20h-20z" fill="#ccff97"/><path d="m-819 441h20v20h-20z" fill="#ccff97"/><path d="m-839 441h20v20h-20z" fill="#ccff97"/><path d="m-839 441h20v20h-20z" fill="#ccff97"/><path d="m-819 461h20v20h-20z" fill="#ccff97"/><path d="m-839 461h20v20h-20z" fill="#b3e27d"/><path d="m-839 461h20v20h-20z" fill="#ccff97"/><path d="m-839 481h20v20h-20z" fill="#b3e27d"/><path d="m-839 481h20v20h-20z" fill="#ccff97"/><path d="m-839 501h20v20h-20z" fill="#b3e27d"/><path d="m-839 501h20v20h-20z" fill="#ccff97"/><path d="m-839 521h20v20h-20z" fill="#b3e27d"/><path d="m-839 521h20v20h-20z" fill="#ccff97"/><path d="m-839 541h20v20h-20z" fill="#b3e27d"/><path d="m-839 541h20v20h-20z" fill="#ccff97"/><path d="m-819 481h20v20h-20z" fill="#d8bb91"/><path d="m-819 501h20v20h-20z" fill="#d8bb91"/><path d="m-819 521h20v20h-20z" fill="#d8bb91"/><path d="m-819 541h20v20h-20z" fill="#d8bb91"/><path d="m-819 561h20v20h-20z" fill="#d8bb91"/><path d="m-819 581h20v20h-20z" fill="#d8bb91"/><path d="m-839 301h20v20h-20z" fill="#ce2811"/><path d="m-859 321h20v20h-20z" fill="#ce2811"/><path d="m-839 321h20v20h-20z" fill="#ce2811"/><path d="m-819 321h20v20h-20z" fill="#ce2811"/><path d="m-859 341h20v20h-20z" fill="#c9ae91"/><path d="m-839 341h20v20h-20z" fill="#c9ae91"/><path d="m-819 341h20v20h-20z" fill="#c9ae91"/><path d="m-859 361h20v20h-20z" fill="#e5c7a1"/><path d="m-839 361h20v20h-20z" fill="#e5c7a1"/><path d="m-819 361h20v20h-20z" fill="#e5c7a1"/><path d="m-859 381h20v20h-20z" fill="#e5c7a1"/><path d="m-839 381h20v20h-20z" fill="#e5c7a1"/><path d="m-819 381h20v20h-20z" fill="#e5c7a1"/><path d="m-879 381h20v20h-20z" fill="#b3e27d"/><path d="m-839 401h20v20h-20z" fill="#b3e27d"/><path d="m-859 401h20v20h-20z" fill="#b3e27d"/><path d="m-879 401h20v20h-20z" fill="#b3e27d"/><path d="m-839 421h20v20h-20z" fill="#ccff97"/><path d="m-859 421h20v20h-20z" fill="#b3e27d"/><path d="m-879 421h20v20h-20z" fill="#b3e27d"/><path d="m-899 421h20v20h-20z" fill="#b3e27d"/><path d="m-839 441h20v20h-20z" fill="#ccff97"/><path d="m-859 441h20v20h-20z" fill="#b3e27d"/><path d="m-879 441h20v20h-20z" fill="#b3e27d"/><path d="m-899 441h20v20h-20z" fill="#b3e27d"/><path d="m-839 461h20v20h-20z" fill="#ccff97"/><path d="m-859 461h20v20h-20z" fill="#b3e27d"/><path d="m-879 461h20v20h-20z" fill="#b3e27d"/><path d="m-899 461h20v20h-20z" fill="#b3e27d"/><path d="m-879 481h20v20h-20z" fill="#b3e27d"/><path d="m-899 481h20v20h-20z" fill="#b3e27d"/><path d="m-839 481h20v20h-20z" fill="#ccff97"/><path d="m-839 501h20v20h-20z" fill="#ccff97"/><path d="m-879 501h20v20h-20z" fill="#b3e27d"/><path d="m-899 501h20v20h-20z" fill="#b3e27d"/><path d="m-839 521h20v20h-20z" fill="#ccff97"/><path d="m-879 521h20v20h-20z" fill="#b3e27d"/><path d="m-899 521h20v20h-20z" fill="#b3e27d"/><path d="m-819 541h20v20h-20z" fill="#b3e27d"/><path d="m-839 541h20v20h-20z" fill="#ccff97"/><path d="m-879 541h20v20h-20z" fill="#b3e27d"/><path d="m-899 541h20v20h-20z" fill="#b3e27d"/><path d="m-859 481h20v20h-20z" fill="#c9ae91"/><path d="m-859 501h20v20h-20z" fill="#c9ae91"/><path d="m-859 521h20v20h-20z" fill="#c9ae91"/><path d="m-859 541h20v20h-20z" fill="#c9ae91"/><path d="m-859 561h20v20h-20z" fill="#c9ae91"/><path d="m-859 581h20v20h-20z" fill="#c9ae91"/><path d="m-819 401h20v20h-20z" fill="#3e5056"/><path d="m-819 421h20v20h-20z" fill="#516872"/><path d="m-819 441h20v20h-20z" fill="#516872"/><path d="m-819 461h20v20h-20z" fill="#516872"/><path d="m-819 481h20v20h-20z" fill="#516872"/><path d="m-819 501h20v20h-20z" fill="#516872"/><path d="m-819 521h20v20h-20z" fill="#516872"/><path d="m-819 561h20v20h-20z" fill="#302517"/><path d="m-819 561h20v20h-20z" fill="#302517"/><path d="m-839 561h20v20h-20z" fill="#302517"/><path d="m-879 561h20v20h-20z" fill="#302517"/><path d="m-879 561h20v20h-20z" fill="#302517"/><path d="m-899 561h20v20h-20z" fill="#302517"/><path d="m-819 581h20v20h-20z" fill="#a09087"/><path d="m-819 581h20v20h-20z" fill="#a09087"/><path d="m-839 581h20v20h-20z" fill="#a09087"/><path d="m-879 581h20v20h-20z" fill="#7f7570"/><path d="m-879 581h20v20h-20z" fill="#7f7570"/><path d="m-899 581h20v20h-20z" fill="#7f7570"/><path d="m-819 601h20v20h-20z" fill="#a09087"/><path d="m-819 601h20v20h-20z" fill="#a09087"/><path d="m-839 601h20v20h-20z" fill="#7f7570"/><path d="m-859 601h20v20h-20z" fill="#7f7570"/><path d="m-879 601h20v20h-20z" fill="#7f7570"/><path d="m-859 621h20v20h-20z" fill="#7f7570"/><path d="m-899 601h20v20h-20z" fill="#7f7570"/><path d="m-819 621h20v20h-20z" fill="#a09087"/><path d="m-839 621h20v20h-20z" fill="#7f7570"/><path d="m-819 641h20v20h-20z" fill="#a09087"/><path d="m-839 641h20v20h-20z" fill="#7f7570"/><path d="m-819 661h20v20h-20z" fill="#a09087"/><path d="m-839 661h20v20h-20z" fill="#7f7570"/><path d="m-819 681h20v20h-20z" fill="#a09087"/><path d="m-839 681h20v20h-20z" fill="#7f7570"/><path d="m-819 701h20v20h-20z" fill="#a09087"/><path d="m-839 701h20v20h-20z" fill="#7f7570"/><path d="m-819 721h20v20h-20z" fill="#a09087"/><path d="m-839 721h20v20h-20z" fill="#7f7570"/><path d="m-819 741h20v20h-20z" fill="#a09087"/><path d="m-839 741h20v20h-20z" fill="#7f7570"/><path d="m-819 761h20v20h-20z" fill="#a09087"/><g fill="#7f7570"><path d="m-839 761h20v20h-20z"/><path d="m-839 601h20v20h-20z"/><path d="m-879 621h20v20h-20z"/><path d="m-839 621h20v20h-20z"/><path d="m-859 641h20v20h-20z"/><path d="m-839 641h20v20h-20z"/><path d="m-859 661h20v20h-20z"/><path d="m-819 621h20v20h-20z"/><path d="m-859 641h20v20h-20z"/><path d="m-819 641h20v20h-20z"/><path d="m-859 661h20v20h-20z"/><path d="m-819 661h20v20h-20z"/><path d="m-859 681h20v20h-20z"/><path d="m-839 681h20v20h-20z"/><path d="m-879 681h20v20h-20z"/><path d="m-859 701h20v20h-20z"/><path d="m-859 681h20v20h-20z"/></g><path d="m-819 781h20v20h-20z" fill="#302517"/><path d="m-839 781h20v20h-20z" fill="#302517"/><path d="m-879 721h20v20h-20z" fill="#302517"/><path d="m-879 701h20v20h-20z" fill="#302517"/></svg>