<?xml version="1.0" encoding="utf-8"?>
<!-- Generator: Adobe Illustrator 18.1.1, SVG Export Plug-In . SVG Version: 6.00 Build 0)  -->
<!DOCTYPE svg PUBLIC "-//W3C//DTD SVG 1.1//EN" "http://www.w3.org/Graphics/SVG/1.1/DTD/svg11.dtd">
<svg version="1.1" id="Layer_1" xmlns="http://www.w3.org/2000/svg" xmlns:xlink="http://www.w3.org/1999/xlink" x="0px" y="0px"
	 width="240px" height="520px" viewBox="-479 141 240 520" enable-background="new -479 141 240 520" xml:space="preserve">
<rect x="-839" y="401" fill="#CCFF97" width="20" height="20"/>
<rect x="-839" y="401" fill="#B3E27D" width="20" height="20"/>
<rect x="-819" y="421" fill="#CCFF97" width="20" height="20"/>
<rect x="-839" y="421" fill="#CCFF97" width="20" height="20"/>
<rect x="-839" y="421" fill="#CCFF97" width="20" height="20"/>
<rect x="-819" y="441" fill="#CCFF97" width="20" height="20"/>
<rect x="-839" y="441" fill="#CCFF97" width="20" height="20"/>
<rect x="-839" y="441" fill="#CCFF97" width="20" height="20"/>
<rect x="-819" y="461" fill="#CCFF97" width="20" height="20"/>
<rect x="-839" y="461" fill="#B3E27D" width="20" height="20"/>
<rect x="-839" y="461" fill="#CCFF97" width="20" height="20"/>
<rect x="-839" y="481" fill="#B3E27D" width="20" height="20"/>
<rect x="-839" y="481" fill="#CCFF97" width="20" height="20"/>
<rect x="-839" y="501" fill="#B3E27D" width="20" height="20"/>
<rect x="-839" y="501" fill="#CCFF97" width="20" height="20"/>
<rect x="-839" y="521" fill="#B3E27D" width="20" height="20"/>
<rect x="-839" y="521" fill="#CCFF97" width="20" height="20"/>
<rect x="-839" y="541" fill="#B3E27D" width="20" height="20"/>
<rect x="-839" y="541" fill="#CCFF97" width="20" height="20"/>
<rect x="-819" y="481" fill="#D8BB91" width="20" height="20"/>
<rect x="-819" y="501" fill="#D8BB91" width="20" height="20"/>
<rect x="-819" y="521" fill="#D8BB91" width="20" height="20"/>
<rect x="-819" y="541" fill="#D8BB91" width="20" height="20"/>
<rect x="-819" y="561" fill="#D8BB91" width="20" height="20"/>
<rect x="-819" y="581" fill="#D8BB91" width="20" height="20"/>
<rect x="-839" y="301" fill="#CE2811" width="20" height="20"/>
<rect x="-859" y="321" fill="#CE2811" width="20" height="20"/>
<rect x="-839" y="321" fill="#CE2811" width="20" height="20"/>
<rect x="-819" y="321" fill="#CE2811" width="20" height="20"/>
<rect x="-859" y="341" fill="#C9AE91" width="20" height="20"/>
<rect x="-839" y="341" fill="#C9AE91" width="20" height="20"/>
<rect x="-819" y="341" fill="#C9AE91" width="20" height="20"/>
<rect x="-859" y="361" fill="#E5C7A1" width="20" height="20"/>
<rect x="-839" y="361" fill="#E5C7A1" width="20" height="20"/>
<rect x="-819" y="361" fill="#E5C7A1" width="20" height="20"/>
<rect x="-859" y="381" fill="#E5C7A1" width="20" height="20"/>
<rect x="-839" y="381" fill="#E5C7A1" width="20" height="20"/>
<rect x="-819" y="381" fill="#E5C7A1" width="20" height="20"/>
<rect x="-879" y="381" fill="#B3E27D" width="20" height="20"/>
<rect x="-839" y="401" fill="#B3E27D" width="20" height="20"/>
<rect x="-859" y="401" fill="#B3E27D" width="20" height="20"/>
<rect x="-879" y="401" fill="#B3E27D" width="20" height="20"/>
<rect x="-839" y="421" fill="#CCFF97" width="20" height="20"/>
<rect x="-859" y="421" fill="#B3E27D" width="20" height="20"/>
<rect x="-879" y="421" fill="#B3E27D" width="20" height="20"/>
<rect x="-899" y="421" fill="#B3E27D" width="20" height="20"/>
<rect x="-839" y="441" fill="#CCFF97" width="20" height="20"/>
<rect x="-859" y="441" fill="#B3E27D" width="20" height="20"/>
<rect x="-879" y="441" fill="#B3E27D" width="20" height="20"/>
<rect x="-899" y="441" fill="#B3E27D" width="20" height="20"/>
<rect x="-839" y="461" fill="#CCFF97" width="20" height="20"/>
<rect x="-859" y="461" fill="#B3E27D" width="20" height="20"/>
<rect x="-879" y="461" fill="#B3E27D" width="20" height="20"/>
<rect x="-899" y="461" fill="#B3E27D" width="20" height="20"/>
<rect x="-879" y="481" fill="#B3E27D" width="20" height="20"/>
<rect x="-899" y="481" fill="#B3E27D" width="20" height="20"/>
<rect x="-839" y="481" fill="#CCFF97" width="20" height="20"/>
<rect x="-839" y="501" fill="#CCFF97" width="20" height="20"/>
<rect x="-879" y="501" fill="#B3E27D" width="20" height="20"/>
<rect x="-899" y="501" fill="#B3E27D" width="20" height="20"/>
<rect x="-839" y="521" fill="#CCFF97" width="20" height="20"/>
<rect x="-879" y="521" fill="#B3E27D" width="20" height="20"/>
<rect x="-899" y="521" fill="#B3E27D" width="20" height="20"/>
<rect x="-819" y="541" fill="#B3E27D" width="20" height="20"/>
<rect x="-839" y="541" fill="#CCFF97" width="20" height="20"/>
<rect x="-879" y="541" fill="#B3E27D" width="20" height="20"/>
<rect x="-899" y="541" fill="#B3E27D" width="20" height="20"/>
<rect x="-859" y="481" fill="#C9AE91" width="20" height="20"/>
<rect x="-859" y="501" fill="#C9AE91" width="20" height="20"/>
<rect x="-859" y="521" fill="#C9AE91" width="20" height="20"/>
<rect x="-859" y="541" fill="#C9AE91" width="20" height="20"/>
<rect x="-859" y="561" fill="#C9AE91" width="20" height="20"/>
<rect x="-859" y="581" fill="#C9AE91" width="20" height="20"/>
<rect x="-819" y="401" fill="#3E5056" width="20" height="20"/>
<rect x="-819" y="421" fill="#516872" width="20" height="20"/>
<rect x="-819" y="441" fill="#516872" width="20" height="20"/>
<rect x="-819" y="461" fill="#516872" width="20" height="20"/>
<rect x="-819" y="481" fill="#516872" width="20" height="20"/>
<rect x="-819" y="501" fill="#516872" width="20" height="20"/>
<rect x="-819" y="521" fill="#516872" width="20" height="20"/>
<rect x="-819" y="561" fill="#302517" width="20" height="20"/>
<rect x="-819" y="561" fill="#302517" width="20" height="20"/>
<rect x="-839" y="561" fill="#302517" width="20" height="20"/>
<rect x="-879" y="561" fill="#302517" width="20" height="20"/>
<rect x="-879" y="561" fill="#302517" width="20" height="20"/>
<rect x="-899" y="561" fill="#302517" width="20" height="20"/>
<rect x="-819" y="581" fill="#A09087" width="20" height="20"/>
<rect x="-819" y="581" fill="#A09087" width="20" height="20"/>
<rect x="-839" y="581" fill="#A09087" width="20" height="20"/>
<rect x="-879" y="581" fill="#7F7570" width="20" height="20"/>
<rect x="-879" y="581" fill="#7F7570" width="20" height="20"/>
<rect x="-899" y="581" fill="#7F7570" width="20" height="20"/>
<rect x="-819" y="601" fill="#A09087" width="20" height="20"/>
<rect x="-819" y="601" fill="#A09087" width="20" height="20"/>
<rect x="-839" y="601" fill="#7F7570" width="20" height="20"/>
<rect x="-859" y="601" fill="#7F7570" width="20" height="20"/>
<rect x="-879" y="601" fill="#7F7570" width="20" height="20"/>
<rect x="-859" y="621" fill="#7F7570" width="20" height="20"/>
<rect x="-899" y="601" fill="#7F7570" width="20" height="20"/>
<rect x="-819" y="621" fill="#A09087" width="20" height="20"/>
<rect x="-839" y="621" fill="#7F7570" width="20" height="20"/>
<rect x="-819" y="641" fill="#A09087" width="20" height="20"/>
<rect x="-839" y="641" fill="#7F7570" width="20" height="20"/>
<rect x="-819" y="661" fill="#A09087" width="20" height="20"/>
<rect x="-839" y="661" fill="#7F7570" width="20" height="20"/>
<rect x="-819" y="681" fill="#A09087" width="20" height="20"/>
<rect x="-839" y="681" fill="#7F7570" width="20" height="20"/>
<rect x="-819" y="701" fill="#A09087" width="20" height="20"/>
<rect x="-839" y="701" fill="#7F7570" width="20" height="20"/>
<rect x="-819" y="721" fill="#A09087" width="20" height="20"/>
<rect x="-839" y="721" fill="#7F7570" width="20" height="20"/>
<rect x="-819" y="741" fill="#A09087" width="20" height="20"/>
<rect x="-839" y="741" fill="#7F7570" width="20" height="20"/>
<rect x="-819" y="761" fill="#A09087" width="20" height="20"/>
<rect x="-839" y="761" fill="#7F7570" width="20" height="20"/>
<rect x="-839" y="601" fill="#7F7570" width="20" height="20"/>
<rect x="-879" y="621" fill="#7F7570" width="20" height="20"/>
<rect x="-839" y="621" fill="#7F7570" width="20" height="20"/>
<rect x="-859" y="641" fill="#7F7570" width="20" height="20"/>
<rect x="-839" y="641" fill="#7F7570" width="20" height="20"/>
<rect x="-859" y="661" fill="#7F7570" width="20" height="20"/>
<rect x="-819" y="621" fill="#7F7570" width="20" height="20"/>
<rect x="-859" y="641" fill="#7F7570" width="20" height="20"/>
<rect x="-819" y="641" fill="#7F7570" width="20" height="20"/>
<rect x="-859" y="661" fill="#7F7570" width="20" height="20"/>
<rect x="-819" y="661" fill="#7F7570" width="20" height="20"/>
<rect x="-859" y="681" fill="#7F7570" width="20" height="20"/>
<rect x="-839" y="681" fill="#7F7570" width="20" height="20"/>
<rect x="-879" y="681" fill="#7F7570" width="20" height="20"/>
<rect x="-859" y="701" fill="#7F7570" width="20" height="20"/>
<rect x="-859" y="681" fill="#7F7570" width="20" height="20"/>
<rect x="-819" y="781" fill="#302517" width="20" height="20"/>
<rect x="-839" y="781" fill="#302517" width="20" height="20"/>
<rect x="-879" y="721" fill="#302517" width="20" height="20"/>
<rect x="-879" y="701" fill="#302517" width="20" height="20"/>
</svg>
