<svg class="Bill__2 is-hidden" xmlns="http://www.w3.org/2000/svg" width="240" height="520" viewBox="0 0 240 520"><path fill="#7F7570" d="M140.2 339.4h20.1v20.1h-20.1z"/><path fill="#7F7570" d="M140.2 359.4h20.1v20.1h-20.1z"/><path fill="#A09087" d="M60 339.4h20.1v20.1H60z"/><path fill="#7F7570" d="M140.2 399.6h20.1v20.1h-20.1z"/><path fill="#7F7570" d="M140.2 419.6h20.1v20.1h-20.1z"/><path fill="#A09087" d="M60 359.4h20.1v20.1H60z"/><path fill="#7F7570" d="M140.2 379.5h20.1v20.1h-20.1zM140.2 439.7h20.1v20.1h-20.1z"/><path fill="#A09087" d="M60 399.6h20.1v20.1H60z"/><path fill="#A09087" d="M60 419.6h20.1v20.1H60z"/><path fill="#A09087" d="M60 439.7h20.1v20.1H60zM60 459.8h20.1v20.1H60zM60 379.5h20.1v20.1H60z"/><path fill="#7F7570" d="M140.2 459.8h20.1v20.1h-20.1z"/><path fill="#A09087" d="M60 479.8h20.1v20.1H60z"/><path fill="#7F7570" d="M140.2 479.8h20.1v20.1h-20.1z"/><path fill="#302517" d="M60 499.9h20.1V520H60z"/><path fill="#A09087" d="M160.3 339.4h20.1v20.1h-20.1z"/><path fill="#A09087" d="M160.3 359.4h20.1v20.1h-20.1zM160.3 399.6h20.1v20.1h-20.1z"/><path fill="#A09087" d="M160.3 419.6h20.1v20.1h-20.1z"/><path fill="#A09087" d="M160.3 439.7h20.1v20.1h-20.1zM160.3 459.8h20.1v20.1h-20.1z"/><path fill="#302517" d="M160.3 499.9h20.1V520h-20.1z"/><path fill="#A09087" d="M160.3 379.5h20.1v20.1h-20.1zM160.3 479.8h20.1v20.1h-20.1z"/><path fill="#302517" d="M140.2 499.9h20.1V520h-20.1z"/><path fill="#E5C7A1" d="M100.1 58.5h20.1v20.1h-20.1zM120.2 58.5h20.1v20.1h-20.1z"/><path fill="#C9AE91" d="M100.1 38.5h20.1v20.1h-20.1zM120.2 38.5h20.1v20.1h-20.1z"/><path fill="#BF7940" d="M120.2 18.4h20.1v20.1h-20.1zM100.1 18.4h20.1v20.1h-20.1z"/><path fill="#E5C7A1" d="M140.2 58.5h20.1v20.1h-20.1z"/><path fill="#C9AE91" d="M140.2 38.5h20.1v20.1h-20.1z"/><path fill="#BF7940" d="M140.2 18.4h20.1v20.1h-20.1z"/><path fill="#88D5FF" d="M80.1 118.7h20.1v20.1H80.1zM60 118.7h20.1v20.1H60zM80.1 138.8h20.1v20.1H80.1z"/><path fill="#88D5FF" d="M80.1 158.8h20.1v20.1H80.1zM60 138.8h20.1v20.1H60z"/><path fill="#88D5FF" d="M60 158.8h20.1v20.1H60zM80.1 178.9h20.1V199H80.1zM60 178.9h20.1V199H60z"/><path fill="#516872" d="M120.2 118.7h20.1v20.1h-20.1zM120.2 138.8h20.1v20.1h-20.1z"/><path fill="#516872" d="M120.2 158.8h20.1v20.1h-20.1zM120.2 178.9h20.1V199h-20.1z"/><path fill="#76BEDD" d="M100.1 98.6h20.1v20.1h-20.1zM60 98.6h20.1v20.1H60z"/><path fill="#3E5056" d="M120.2 98.6h20.1v20.1h-20.1z"/><path fill="#76BEDD" d="M140.2 98.6h20.1v20.1h-20.1z"/><path fill="#88D5FF" d="M80.1 198.9h20.1V219H80.1zM60 198.9h20.1V219H60z"/><path fill="#516872" d="M120.2 198.9h20.1V219h-20.1z"/><path fill="#88D5FF" d="M140.2 118.7h20.1v20.1h-20.1zM140.2 138.8h20.1v20.1h-20.1z"/><path fill="#88D5FF" d="M140.2 158.8h20.1v20.1h-20.1zM140.2 178.9h20.1V199h-20.1z"/><path fill="#88D5FF" d="M140.2 198.9h20.1V219h-20.1z"/><path fill="#D8BB91" d="M180.4 178.9h20.1V199h-20.1z"/><path fill="#D8BB91" d="M180.4 198.9h20.1V219h-20.1zM180.4 219h20.1v20.1h-20.1z"/><path fill="#88D5FF" d="M180.4 158.8h20.1v20.1h-20.1z"/><path fill="#88D5FF" d="M180.4 138.8h20.1v20.1h-20.1z"/><path fill="#D8BB91" d="M180.4 239.1h20.1v20.1h-20.1z"/><path fill="#D8BB91" d="M180.4 259.1h20.1v20.1h-20.1z"/><path fill="#D8BB91" d="M180.4 279.2h20.1v20.1h-20.1z"/><path fill="#302517" d="M140.2 279.2h20.1v20.1h-20.1z"/><path fill="#A09087" d="M140.2 299.3h20.1v20.1h-20.1z"/><path fill="#7F7570" d="M140.2 319.3h20.1v20.1h-20.1z"/><path fill="#302517" d="M160.3 279.2h20.1v20.1h-20.1z"/><path fill="#A09087" d="M160.3 299.3h20.1v20.1h-20.1z"/><path fill="#A09087" d="M160.3 319.3h20.1v20.1h-20.1z"/><path fill="#302517" d="M100.1 279.2h20.1v20.1h-20.1z"/><path fill="#A09087" d="M100.1 299.3h20.1v20.1h-20.1z"/><path fill="#7F7570" d="M100.1 319.3h20.1v20.1h-20.1z"/><path fill="#302517" d="M120.2 279.2h20.1v20.1h-20.1z"/><path fill="#A09087" d="M120.2 299.3h20.1v20.1h-20.1z"/><path fill="#7F7570" d="M120.2 319.3h20.1v20.1h-20.1z"/><path fill="#302517" d="M60 279.2h20.1v20.1H60z"/><path fill="#A09087" d="M60 299.3h20.1v20.1H60z"/><path fill="#A09087" d="M60 319.3h20.1v20.1H60z"/><path fill="#302517" d="M80.1 279.2h20.1v20.1H80.1z"/><path fill="#A09087" d="M80.1 299.3h20.1v20.1H80.1z"/><path fill="#7F7570" d="M80.1 319.3h20.1v20.1H80.1z"/><path fill="#88D5FF" d="M80.1 219h20.1v20.1H80.1zM60 219h20.1v20.1H60z"/><path fill="#516872" d="M120.2 219h20.1v20.1h-20.1z"/><path fill="#88D5FF" d="M140.2 219h20.1v20.1h-20.1zM80.1 239.1h20.1v20.1H80.1zM60 239.1h20.1v20.1H60z"/><path fill="#76BEDD" d="M120.2 239.1h20.1v20.1h-20.1z"/><path fill="#88D5FF" d="M140.2 239.1h20.1v20.1h-20.1z"/><path fill="#76BEDD" d="M160.3 219h20.1v20.1h-20.1zM160.3 239.1h20.1v20.1h-20.1zM160.3 198.9h20.1V219h-20.1z"/><path fill="#76BEDD" d="M160.3 178.9h20.1V199h-20.1zM160.3 158.8h20.1v20.1h-20.1z"/><path fill="#88D5FF" d="M160.3 118.7h20.1v20.1h-20.1zM160.3 138.8h20.1v20.1h-20.1zM160.3 98.6h20.1v20.1h-20.1zM180.4 118.7h20.1v20.1h-20.1zM180.4 138.8h20.1v20.1h-20.1z"/><path fill="#E5C7A1" d="M100.1 78.6h20.1v20.1h-20.1zM120.2 78.6h20.1v20.1h-20.1z"/><path fill="#E5C7A1" d="M140.2 78.6h20.1v20.1h-20.1z"/><path fill="#7F7570" d="M39.9 339.4H60v20.1H39.9z"/><path fill="#7F7570" d="M39.9 359.4H60v20.1H39.9zM39.9 399.6H60v20.1H39.9z"/><path fill="#7F7570" d="M39.9 419.6H60v20.1H39.9z"/><path fill="#7F7570" d="M39.9 439.7H60v20.1H39.9zM39.9 459.8H60v20.1H39.9z"/><path fill="#302517" d="M39.9 499.9H60V520H39.9z"/><path fill="#7F7570" d="M39.9 379.5H60v20.1H39.9zM39.9 479.8H60v20.1H39.9z"/><path fill="#C9AE91" d="M39.9 178.9H60V199H39.9z"/><path fill="#C9AE91" d="M39.9 198.9H60V219H39.9zM39.9 219H60v20.1H39.9zM39.9 239.1H60v20.1H39.9z"/><path fill="#C9AE91" d="M39.9 259.1H60v20.1H39.9z"/><path fill="#C9AE91" d="M39.9 279.2H60v20.1H39.9z"/><path fill="#7F7570" d="M39.9 319.3H60v20.1H39.9z"/><path fill="#76BEDD" d="M39.9 158.8H60v20.1H39.9zM39.9 118.7H60v20.1H39.9z"/><path fill="#76BEDD" d="M39.9 138.8H60v20.1H39.9z"/><path fill="#BF7940" d="M120.2-1.7h20.1v20.1h-20.1z"/><path fill="#88D5FF" d="M100.1 118.7h20.1v20.1h-20.1zM100.1 138.8h20.1v20.1h-20.1z"/><path fill="#88D5FF" d="M100.1 158.8h20.1v20.1h-20.1zM100.1 178.9h20.1V199h-20.1z"/><path fill="#88D5FF" d="M100.1 198.9h20.1V219h-20.1zM100.1 219h20.1v20.1h-20.1zM100.1 239.1h20.1v20.1h-20.1zM80.1 98.6h20.1v20.1H80.1z"/><path fill="#88D5FF" d="M80.1 259.1h20.1v20.1H80.1zM60 259.1h20.1v20.1H60z"/><path fill="#76BEDD" d="M120.2 259.1h20.1v20.1h-20.1z"/><path fill="#88D5FF" d="M140.2 259.1h20.1v20.1h-20.1z"/><path fill="#76BEDD" d="M160.3 259.1h20.1v20.1h-20.1z"/><path fill="#88D5FF" d="M100.1 259.1h20.1v20.1h-20.1z"/><path fill="#7F7570" d="M39.9 299.3H60v20.1H39.9z"/></svg>