<svg height="520" viewBox="-479 141 240 520" width="240" xmlns="http://www.w3.org/2000/svg"><g clip-rule="evenodd" fill-rule="evenodd"><path d="m-361.1 481.4h19.9v19.9h-19.9zm0 20h19.9v20h-19.9zm0 39.9h19.9v20h-19.9z" fill="#a09087"/><path d="m-361.1 561.2h19.9v19.9h-19.9zm0-39.9h19.9v19.9h-19.9zm0 59.9h19.9v20h-19.9z" fill="#a09087"/><path d="m-381 501.4h19.9v20h-19.9zm-20 39.9h19.9v19.9h-19.9zm0 19.9h19.9v20h-19.9z" fill="#7f7570"/><path d="m-361.1 601.1h19.9v19.9h-19.9z" fill="#a09087"/><path d="m-401 581.2h19.9v19.9h-19.9z" fill="#7f7570"/><g fill="#a09087"><path d="m-381 621.1h19.9v19.9h-19.9zm39.9-139.7h19.9v19.9h-19.9zm0 20h19.9v20h-19.9zm0 39.9h19.9v20h-19.9z"/><path d="m-341.1 561.2h19.9v19.9h-19.9zm0 20h19.9v20h-19.9z"/><path d="m-341.1 601.1h19.9v19.9h-19.9z"/></g><path d="m-361.1 641h19.9v20h-19.9z" fill="#302517"/><path d="m-341.1 521.3h19.9v19.9h-19.9zm-20 99.8h19.9v19.9h-19.9z" fill="#a09087"/><path d="m-381 641h19.9v20h-19.9z" fill="#302517"/><path d="m-381 222.1h19.9v19.9h-19.9zm19.9 0h19.9v19.9h-19.9zm-19.9-19.9h19.9v19.9h-19.9zm19.9 0h19.9v19.9h-19.9z" fill="#c9ae91"/><path d="m-361.1 182.2h19.9v19.9h-19.9zm-19.9 0h19.9v19.9h-19.9z" fill="#bf7940"/><path d="m-341.1 222.1h19.9v19.9h-19.9z" fill="#e5c7a1"/><path d="m-341.1 202.2h19.9v19.9h-19.9z" fill="#c9ae91"/><path d="m-341.1 182.2h19.9v19.9h-19.9z" fill="#bf7940"/><path d="m-361.1 282h19.9v20h-19.9z" fill="#88d5ff"/><path d="m-361.1 301.9h19.9v19.9h-19.9zm0 20h19.9v20h-19.9z" fill="#88d5ff"/><path d="m-361.1 341.8h19.9v19.9h-19.9z" fill="#88d5ff"/><path d="m-341.1 282h19.9v20h-19.9z" fill="#516872"/><path d="m-341.1 301.9h19.9v19.9h-19.9zm0 20h19.9v20h-19.9z" fill="#516872"/><path d="m-341.1 341.8h19.9v19.9h-19.9z" fill="#516872"/><path d="m-361.1 262h19.9v19.9h-19.9zm-59.8 0h19.9v19.9h-19.9z" fill="#76bedd"/><path d="m-341.1 262h19.9v19.9h-19.9z" fill="#3e5056"/><path d="m-401 262h19.9v19.9h-19.9z" fill="#76bedd"/><path d="m-361.1 361.8h19.9v19.9h-19.9z" fill="#88d5ff"/><path d="m-341.1 361.8h19.9v19.9h-19.9z" fill="#516872"/><path d="m-401 282h19.9v20h-19.9z" fill="#76bedd"/><path d="m-401 301.9h19.9v19.9h-19.9zm0 20h19.9v20h-19.9z" fill="#76bedd"/><path d="m-401 341.8h19.9v19.9h-19.9zm0 20h19.9v19.9h-19.9z" fill="#76bedd"/><path d="m-401 421.6h19.9v19.9h-19.9z" fill="#302517"/><path d="m-401 441.5h19.9v19.9h-19.9z" fill="#7f7570"/><path d="m-341.1 461.5h19.9v19.9h-19.9z" fill="#a09087"/><path d="m-341.1 421.6h19.9v19.9h-19.9z" fill="#302517"/><path d="m-341.1 441.5h19.9v19.9h-19.9zm-20 20h19.9v19.9h-19.9z" fill="#a09087"/><path d="m-401 461.5h19.9v19.9h-19.9z" fill="#7f7570"/><path d="m-361.1 421.6h19.9v19.9h-19.9z" fill="#302517"/><path d="m-361.1 441.5h19.9v19.9h-19.9z" fill="#a09087"/><path d="m-381 461.5h19.9v19.9h-19.9z" fill="#7f7570"/><path d="m-361.1 381.7h19.9v20h-19.9z" fill="#88d5ff"/><path d="m-341.1 381.7h19.9v20h-19.9z" fill="#516872"/><path d="m-401 381.7h19.9v20h-19.9z" fill="#76bedd"/><path d="m-361.1 401.7h19.9v20h-19.9z" fill="#88d5ff"/><path d="m-341.1 401.7h19.9v20h-19.9zm-59.9 0h19.9v20h-19.9z" fill="#76bedd"/><path d="m-381 242.1h19.9v19.9h-19.9zm19.9 0h19.9v19.9h-19.9z" fill="#c9ae91"/><path d="m-341.1 242.1h19.9v19.9h-19.9z" fill="#e5c7a1"/><path d="m-420.9 561.2h19.9v20h-19.9zm0 39.9h19.9v20h-19.9zm0-19.9h19.9v19.9h-19.9z" fill="#302517"/><path d="m-381 341.8h19.9v19.9h-19.9zm0 20h19.9v19.9h-19.9zm0 19.9h19.9v20h-19.9zm0 20h19.9v20h-19.9z" fill="#e5c7a1"/><path d="m-381 421.6h19.9v19.9h-19.9zm0 19.9h19.9v19.9h-19.9z" fill="#e5c7a1"/><path d="m-420.9 461.5h19.9v19.9h-19.9z" fill="#7f7570"/><path d="m-381 321.9h19.9v20h-19.9zm0-39.9h19.9v20h-19.9z" fill="#76bedd"/><path d="m-381 301.9h19.9v19.9h-19.9z" fill="#76bedd"/><path d="m-361.1 162.3h19.9v19.9h-19.9z" fill="#bf7940"/><path d="m-401 242.1h19.9v19.9h-19.9zm20 19.9h19.9v19.9h-19.9zm-39.9 20h19.9v20h-19.9z" fill="#76bedd"/><path d="m-420.9 301.9h19.9v19.9h-19.9zm0 20h19.9v20h-19.9z" fill="#76bedd"/><path d="m-420.9 341.8h19.9v19.9h-19.9zm0 20h19.9v19.9h-19.9z" fill="#76bedd"/><path d="m-420.9 421.6h19.9v19.9h-19.9z" fill="#302517"/><path d="m-420.9 441.5h19.9v19.9h-19.9z" fill="#7f7570"/><path d="m-420.9 381.7h19.9v20h-19.9zm0 20h19.9v20h-19.9z" fill="#76bedd"/><path d="m-381 481.4h19.9v19.9h-19.9zm-20 0h19.9v19.9h-19.9zm20 79.8h19.9v20h-19.9zm0-39.9h19.9v19.9h-19.9zm0 20h19.9v19.9h-19.9z" fill="#7f7570"/></g></svg>