<?xml version="1.0" encoding="utf-8"?>
<!-- Generator: Adobe Illustrator 17.1.0, SVG Export Plug-In . SVG Version: 6.00 Build 0)  -->
<!DOCTYPE svg PUBLIC "-//W3C//DTD SVG 1.1//EN" "http://www.w3.org/Graphics/SVG/1.1/DTD/svg11.dtd">
<svg version="1.1" id="Layer_1" class="Bill__4 is-hidden" xmlns="http://www.w3.org/2000/svg" xmlns:xlink="http://www.w3.org/1999/xlink" x="0px" y="0px"
	 width="240px" height="520px" viewBox="0 0 240 520" enable-background="new 0 0 240 520" xml:space="preserve">
<g>
	<rect x="119.3" y="340.9" fill-rule="evenodd" clip-rule="evenodd" fill="#7F7570" width="20.1" height="20"/>
	<rect x="119.3" y="361" fill-rule="evenodd" clip-rule="evenodd" fill="#7F7570" width="20.1" height="20.1"/>
	<rect x="119.3" y="401.1" fill-rule="evenodd" clip-rule="evenodd" fill="#7F7570" width="20.1" height="20.1"/>
	<rect x="119.3" y="421.1" fill-rule="evenodd" clip-rule="evenodd" fill="#7F7570" width="20.1" height="20"/>
	<rect x="119.3" y="381" fill-rule="evenodd" clip-rule="evenodd" fill="#7F7570" width="20.1" height="20"/>
	<rect x="119.3" y="441.2" fill-rule="evenodd" clip-rule="evenodd" fill="#7F7570" width="20.1" height="20.1"/>
	<rect x="99.2" y="361" fill-rule="evenodd" clip-rule="evenodd" fill="#7F7570" width="20" height="20.1"/>
	<rect x="99.2" y="381" fill-rule="evenodd" clip-rule="evenodd" fill="#7F7570" width="20" height="20"/>
	<rect x="99.2" y="401.1" fill-rule="evenodd" clip-rule="evenodd" fill="#7F7570" width="20" height="20.1"/>
	<rect x="119.3" y="461.2" fill-rule="evenodd" clip-rule="evenodd" fill="#7F7570" width="20.1" height="20"/>
	<rect x="99.2" y="421.1" fill-rule="evenodd" clip-rule="evenodd" fill="#7F7570" width="20" height="20"/>
	<rect x="99.2" y="481.3" fill-rule="evenodd" clip-rule="evenodd" fill="#7F7570" width="20" height="20"/>
	<rect x="139.3" y="340.9" fill-rule="evenodd" clip-rule="evenodd" fill="#7F7570" width="20" height="20"/>
	<rect x="139.3" y="361" fill-rule="evenodd" clip-rule="evenodd" fill="#7F7570" width="20" height="20.1"/>
	<rect x="139.3" y="401.1" fill-rule="evenodd" clip-rule="evenodd" fill="#A09087" width="20" height="20.1"/>
	<rect x="139.3" y="421.1" fill-rule="evenodd" clip-rule="evenodd" fill="#A09087" width="20" height="20"/>
	<rect x="139.3" y="441.2" fill-rule="evenodd" clip-rule="evenodd" fill="#A09087" width="20" height="20.1"/>
	<rect x="139.3" y="461.2" fill-rule="evenodd" clip-rule="evenodd" fill="#A09087" width="20" height="20"/>
	<rect x="119.3" y="501.3" fill-rule="evenodd" clip-rule="evenodd" fill="#302517" width="20.1" height="20.1"/>
	<rect x="139.3" y="381" fill-rule="evenodd" clip-rule="evenodd" fill="#7F7570" width="20" height="20"/>
	<rect x="119.3" y="481.3" fill-rule="evenodd" clip-rule="evenodd" fill="#A09087" width="20.1" height="20"/>
	<rect x="99.2" y="501.3" fill-rule="evenodd" clip-rule="evenodd" fill="#302517" width="20" height="20.1"/>
	<rect x="99.2" y="80.3" fill-rule="evenodd" clip-rule="evenodd" fill="#C9AE91" width="20" height="20"/>
	<rect x="119.3" y="80.3" fill-rule="evenodd" clip-rule="evenodd" fill="#E5C7A1" width="20.1" height="20"/>
	<rect x="99.2" y="60.3" fill-rule="evenodd" clip-rule="evenodd" fill="#C9AE91" width="20" height="20"/>
	<rect x="119.3" y="60.3" fill-rule="evenodd" clip-rule="evenodd" fill="#C9AE91" width="20.1" height="20"/>
	<rect x="119.3" y="40.2" fill-rule="evenodd" clip-rule="evenodd" fill="#BF7940" width="20.1" height="20"/>
	<rect x="99.2" y="40.2" fill-rule="evenodd" clip-rule="evenodd" fill="#BF7940" width="20" height="20"/>
	<rect x="139.3" y="80.3" fill-rule="evenodd" clip-rule="evenodd" fill="#E5C7A1" width="20" height="20"/>
	<rect x="139.3" y="60.3" fill-rule="evenodd" clip-rule="evenodd" fill="#C9AE91" width="20" height="20"/>
	<rect x="139.3" y="40.2" fill-rule="evenodd" clip-rule="evenodd" fill="#BF7940" width="20" height="20"/>
	<rect x="119.3" y="140.4" fill-rule="evenodd" clip-rule="evenodd" fill="#88D5FF" width="20.1" height="20.1"/>
	<rect x="119.3" y="160.5" fill-rule="evenodd" clip-rule="evenodd" fill="#88D5FF" width="20.1" height="20"/>
	<rect x="119.3" y="180.5" fill-rule="evenodd" clip-rule="evenodd" fill="#88D5FF" width="20.1" height="20.1"/>
	<rect x="119.3" y="200.6" fill-rule="evenodd" clip-rule="evenodd" fill="#88D5FF" width="20.1" height="20"/>
	<rect x="139.3" y="140.4" fill-rule="evenodd" clip-rule="evenodd" fill="#516872" width="20" height="20.1"/>
	<rect x="139.3" y="160.5" fill-rule="evenodd" clip-rule="evenodd" fill="#516872" width="20" height="20"/>
	<rect x="139.3" y="180.5" fill-rule="evenodd" clip-rule="evenodd" fill="#516872" width="20" height="20.1"/>
	<rect x="139.3" y="200.6" fill-rule="evenodd" clip-rule="evenodd" fill="#516872" width="20" height="20"/>
	<rect x="119.3" y="120.4" fill-rule="evenodd" clip-rule="evenodd" fill="#76BEDD" width="20.1" height="20"/>
	<rect x="59.1" y="120.4" fill-rule="evenodd" clip-rule="evenodd" fill="#76BEDD" width="20" height="20"/>
	<rect x="139.3" y="120.4" fill-rule="evenodd" clip-rule="evenodd" fill="#3E5056" width="20" height="20"/>
	<rect x="79.2" y="120.4" fill-rule="evenodd" clip-rule="evenodd" fill="#76BEDD" width="20.1" height="20"/>
	<rect x="119.3" y="220.6" fill-rule="evenodd" clip-rule="evenodd" fill="#88D5FF" width="20.1" height="20"/>
	<rect x="139.3" y="220.6" fill-rule="evenodd" clip-rule="evenodd" fill="#516872" width="20" height="20"/>
	<rect x="79.2" y="140.4" fill-rule="evenodd" clip-rule="evenodd" fill="#76BEDD" width="20.1" height="20.1"/>
	<rect x="79.2" y="160.5" fill-rule="evenodd" clip-rule="evenodd" fill="#76BEDD" width="20.1" height="20"/>
	<rect x="79.2" y="180.5" fill-rule="evenodd" clip-rule="evenodd" fill="#76BEDD" width="20.1" height="20.1"/>
	<rect x="79.2" y="200.6" fill-rule="evenodd" clip-rule="evenodd" fill="#76BEDD" width="20.1" height="20"/>
	<rect x="79.2" y="220.6" fill-rule="evenodd" clip-rule="evenodd" fill="#76BEDD" width="20.1" height="20"/>
	<rect x="79.2" y="280.8" fill-rule="evenodd" clip-rule="evenodd" fill="#302517" width="20.1" height="20"/>
	<rect x="79.2" y="300.8" fill-rule="evenodd" clip-rule="evenodd" fill="#7F7570" width="20.1" height="20"/>
	<rect x="139.3" y="320.9" fill-rule="evenodd" clip-rule="evenodd" fill="#A09087" width="20" height="20"/>
	<rect x="139.3" y="280.8" fill-rule="evenodd" clip-rule="evenodd" fill="#302517" width="20" height="20"/>
	<rect x="139.3" y="300.8" fill-rule="evenodd" clip-rule="evenodd" fill="#A09087" width="20" height="20"/>
	<rect x="119.3" y="320.9" fill-rule="evenodd" clip-rule="evenodd" fill="#7F7570" width="20.1" height="20"/>
	<rect x="79.2" y="320.9" fill-rule="evenodd" clip-rule="evenodd" fill="#7F7570" width="20.1" height="20"/>
	<rect x="119.3" y="280.8" fill-rule="evenodd" clip-rule="evenodd" fill="#302517" width="20.1" height="20"/>
	<rect x="119.3" y="300.8" fill-rule="evenodd" clip-rule="evenodd" fill="#A09087" width="20.1" height="20"/>
	<rect x="99.2" y="320.9" fill-rule="evenodd" clip-rule="evenodd" fill="#7F7570" width="20" height="20"/>
	<rect x="119.3" y="240.7" fill-rule="evenodd" clip-rule="evenodd" fill="#88D5FF" width="20.1" height="20.1"/>
	<rect x="139.3" y="240.7" fill-rule="evenodd" clip-rule="evenodd" fill="#516872" width="20" height="20.1"/>
	<rect x="79.2" y="240.7" fill-rule="evenodd" clip-rule="evenodd" fill="#76BEDD" width="20.1" height="20.1"/>
	<rect x="119.3" y="260.7" fill-rule="evenodd" clip-rule="evenodd" fill="#88D5FF" width="20.1" height="20.1"/>
	<rect x="139.3" y="260.7" fill-rule="evenodd" clip-rule="evenodd" fill="#76BEDD" width="20" height="20.1"/>
	<rect x="79.2" y="260.7" fill-rule="evenodd" clip-rule="evenodd" fill="#76BEDD" width="20.1" height="20.1"/>
	<rect x="99.2" y="100.4" fill-rule="evenodd" clip-rule="evenodd" fill="#C9AE91" width="20" height="20"/>
	<rect x="119.3" y="100.4" fill-rule="evenodd" clip-rule="evenodd" fill="#E5C7A1" width="20.1" height="20"/>
	<rect x="139.3" y="100.4" fill-rule="evenodd" clip-rule="evenodd" fill="#E5C7A1" width="20" height="20"/>
	<rect x="79.2" y="401.1" fill-rule="evenodd" clip-rule="evenodd" fill="#302517" width="20.1" height="20.1"/>
	<rect x="79.2" y="441.2" fill-rule="evenodd" clip-rule="evenodd" fill="#302517" width="20.1" height="20.1"/>
	<rect x="79.2" y="421.1" fill-rule="evenodd" clip-rule="evenodd" fill="#302517" width="20.1" height="20"/>
	<rect x="99.2" y="200.6" fill-rule="evenodd" clip-rule="evenodd" fill="#C9AE91" width="20" height="20"/>
	<rect x="99.2" y="220.6" fill-rule="evenodd" clip-rule="evenodd" fill="#C9AE91" width="20" height="20"/>
	<rect x="99.2" y="240.7" fill-rule="evenodd" clip-rule="evenodd" fill="#C9AE91" width="20" height="20.1"/>
	<rect x="99.2" y="260.7" fill-rule="evenodd" clip-rule="evenodd" fill="#C9AE91" width="20" height="20.1"/>
	<rect x="99.2" y="280.8" fill-rule="evenodd" clip-rule="evenodd" fill="#C9AE91" width="20" height="20"/>
	<rect x="99.2" y="300.8" fill-rule="evenodd" clip-rule="evenodd" fill="#C9AE91" width="20" height="20"/>
	<rect x="59.1" y="320.9" fill-rule="evenodd" clip-rule="evenodd" fill="#7F7570" width="20" height="20"/>
	<rect x="99.2" y="180.5" fill-rule="evenodd" clip-rule="evenodd" fill="#76BEDD" width="20" height="20.1"/>
	<rect x="99.2" y="140.4" fill-rule="evenodd" clip-rule="evenodd" fill="#76BEDD" width="20" height="20.1"/>
	<rect x="99.2" y="160.5" fill-rule="evenodd" clip-rule="evenodd" fill="#76BEDD" width="20" height="20"/>
	<rect x="119.3" y="20.2" fill-rule="evenodd" clip-rule="evenodd" fill="#BF7940" width="20.1" height="20"/>
	<rect x="79.2" y="100.4" fill-rule="evenodd" clip-rule="evenodd" fill="#76BEDD" width="20.1" height="20"/>
	<rect x="99.2" y="120.4" fill-rule="evenodd" clip-rule="evenodd" fill="#76BEDD" width="20" height="20"/>
	<rect x="59.1" y="140.4" fill-rule="evenodd" clip-rule="evenodd" fill="#76BEDD" width="20" height="20.1"/>
	<rect x="59.1" y="160.5" fill-rule="evenodd" clip-rule="evenodd" fill="#76BEDD" width="20" height="20"/>
	<rect x="59.1" y="180.5" fill-rule="evenodd" clip-rule="evenodd" fill="#76BEDD" width="20" height="20.1"/>
	<rect x="59.1" y="200.6" fill-rule="evenodd" clip-rule="evenodd" fill="#76BEDD" width="20" height="20"/>
	<rect x="59.1" y="220.6" fill-rule="evenodd" clip-rule="evenodd" fill="#76BEDD" width="20" height="20"/>
	<rect x="59.1" y="280.8" fill-rule="evenodd" clip-rule="evenodd" fill="#302517" width="20" height="20"/>
	<rect x="59.1" y="300.8" fill-rule="evenodd" clip-rule="evenodd" fill="#7F7570" width="20" height="20"/>
	<rect x="59.1" y="240.7" fill-rule="evenodd" clip-rule="evenodd" fill="#76BEDD" width="20" height="20.1"/>
	<rect x="59.1" y="260.7" fill-rule="evenodd" clip-rule="evenodd" fill="#76BEDD" width="20" height="20.1"/>
	<rect x="99.2" y="340.9" fill-rule="evenodd" clip-rule="evenodd" fill="#7F7570" width="20" height="20"/>
	<rect x="79.2" y="340.9" fill-rule="evenodd" clip-rule="evenodd" fill="#7F7570" width="20.1" height="20"/>
	<rect x="159.4" y="361" fill-rule="evenodd" clip-rule="evenodd" fill="#7F7570" width="20" height="20.1"/>
</g>
</svg>
