<svg class="Bill__3 is-hidden" xmlns="http://www.w3.org/2000/svg" width="240" height="520" viewBox="0 0 240 520"><path fill-rule="evenodd" clip-rule="evenodd" fill="#7F7570" d="M139.5 339.9h20v20h-20zM139.5 359.9h20v20h-20zM59.4 339.9h20v20h-20zM139.5 399.9h20v20h-20zM139.5 419.9h20v20h-20zM59.4 359.9h20v20h-20zM139.5 379.9h20v20h-20zM139.5 439.9h20v20h-20zM59.4 399.9h20v20h-20zM19.4 419.9h20v20h-20zM19.4 439.9h20v20h-20zM59.4 379.9h20v20h-20zM139.5 460h20v20h-20zM19.4 460h20v20h-20zM139.5 480h20v20h-20z"/><path fill-rule="evenodd" clip-rule="evenodd" fill="#A09087" d="M159.5 339.9h20v20h-20zM159.5 359.9h20v20h-20zM159.5 399.9h20v20h-20zM159.5 419.9h20v20h-20zM159.5 439.9h20v20h-20zM159.5 460h20v20h-20z"/><path fill-rule="evenodd" clip-rule="evenodd" fill="#302517" d="M159.5 500h20v20h-20z"/><path fill-rule="evenodd" clip-rule="evenodd" fill="#A09087" d="M159.5 379.9h20v20h-20zM159.5 480h20v20h-20z"/><path fill-rule="evenodd" clip-rule="evenodd" fill="#302517" d="M139.5 500h20v20h-20z"/><path fill-rule="evenodd" clip-rule="evenodd" fill="#E5C7A1" d="M99.4 79.6h20v20h-20zM119.5 79.6h20v20h-20z"/><path fill-rule="evenodd" clip-rule="evenodd" fill="#C9AE91" d="M99.4 59.6h20v20h-20zM119.5 59.6h20v20h-20z"/><path fill-rule="evenodd" clip-rule="evenodd" fill="#BF7940" d="M119.5 39.6h20v20h-20zM99.4 39.6h20v20h-20z"/><path fill-rule="evenodd" clip-rule="evenodd" fill="#E5C7A1" d="M139.5 79.6h20v20h-20z"/><path fill-rule="evenodd" clip-rule="evenodd" fill="#C9AE91" d="M139.5 59.6h20v20h-20z"/><path fill-rule="evenodd" clip-rule="evenodd" fill="#BF7940" d="M139.5 39.6h20v20h-20z"/><path fill-rule="evenodd" clip-rule="evenodd" fill="#88D5FF" d="M79.4 139.7h20v20h-20zM79.4 159.7h20v20h-20zM79.4 179.7h20v20h-20zM79.4 199.7h20v20h-20z"/><path fill-rule="evenodd" clip-rule="evenodd" fill="#516872" d="M119.5 139.7h20v20h-20zM119.5 159.7h20v20h-20zM119.5 179.7h20v20h-20zM119.5 199.7h20v20h-20z"/><path fill-rule="evenodd" clip-rule="evenodd" fill="#76BEDD" d="M99.4 119.7h20v20h-20zM59.4 119.7h20v20h-20z"/><path fill-rule="evenodd" clip-rule="evenodd" fill="#3E5056" d="M119.5 119.7h20v20h-20z"/><path fill-rule="evenodd" clip-rule="evenodd" fill="#76BEDD" d="M139.5 119.7h20v20h-20z"/><path fill-rule="evenodd" clip-rule="evenodd" fill="#88D5FF" d="M79.4 219.8h20v20h-20z"/><path fill-rule="evenodd" clip-rule="evenodd" fill="#516872" d="M119.5 219.8h20v20h-20z"/><path fill-rule="evenodd" clip-rule="evenodd" fill="#88D5FF" d="M139.5 139.7h20v20h-20zM139.5 159.7h20v20h-20zM139.5 179.7h20v20h-20zM139.5 199.7h20v20h-20zM139.5 219.8h20v20h-20z"/><path fill-rule="evenodd" clip-rule="evenodd" fill="#302517" d="M139.5 279.8h20v20h-20z"/><path fill-rule="evenodd" clip-rule="evenodd" fill="#A09087" d="M139.5 299.8h20v20h-20z"/><path fill-rule="evenodd" clip-rule="evenodd" fill="#7F7570" d="M139.5 319.8h20v20h-20z"/><path fill-rule="evenodd" clip-rule="evenodd" fill="#302517" d="M159.5 279.8h20v20h-20z"/><path fill-rule="evenodd" clip-rule="evenodd" fill="#A09087" d="M159.5 299.8h20v20h-20zM159.5 319.8h20v20h-20z"/><path fill-rule="evenodd" clip-rule="evenodd" fill="#302517" d="M99.4 279.8h20v20h-20z"/><path fill-rule="evenodd" clip-rule="evenodd" fill="#A09087" d="M99.4 299.8h20v20h-20z"/><path fill-rule="evenodd" clip-rule="evenodd" fill="#7F7570" d="M99.4 319.8h20v20h-20z"/><path fill-rule="evenodd" clip-rule="evenodd" fill="#302517" d="M119.5 279.8h20v20h-20z"/><path fill-rule="evenodd" clip-rule="evenodd" fill="#A09087" d="M119.5 299.8h20v20h-20z"/><path fill-rule="evenodd" clip-rule="evenodd" fill="#7F7570" d="M119.5 319.8h20v20h-20zM59.4 319.8h20v20h-20z"/><path fill-rule="evenodd" clip-rule="evenodd" fill="#302517" d="M79.4 279.8h20v20h-20z"/><path fill-rule="evenodd" clip-rule="evenodd" fill="#A09087" d="M79.4 299.8h20v20h-20z"/><path fill-rule="evenodd" clip-rule="evenodd" fill="#7F7570" d="M79.4 319.8h20v20h-20z"/><path fill-rule="evenodd" clip-rule="evenodd" fill="#88D5FF" d="M79.4 239.8h20v20h-20z"/><path fill-rule="evenodd" clip-rule="evenodd" fill="#516872" d="M119.5 239.8h20v20h-20z"/><path fill-rule="evenodd" clip-rule="evenodd" fill="#88D5FF" d="M139.5 239.8h20v20h-20zM79.4 259.8h20v20h-20z"/><path fill-rule="evenodd" clip-rule="evenodd" fill="#76BEDD" d="M119.5 259.8h20v20h-20z"/><path fill-rule="evenodd" clip-rule="evenodd" fill="#88D5FF" d="M139.5 259.8h20v20h-20zM159.5 239.8h20v20h-20zM159.5 259.8h20v20h-20zM159.5 219.8h20v20h-20zM159.5 199.7h20v20h-20zM159.5 179.7h20v20h-20zM159.5 139.7h20v20h-20zM159.5 159.7h20v20h-20zM159.5 119.7h20v20h-20z"/><path fill-rule="evenodd" clip-rule="evenodd" fill="#E5C7A1" d="M99.4 99.6h20v20h-20zM119.5 99.6h20v20h-20zM139.5 99.6h20v20h-20z"/><path fill-rule="evenodd" clip-rule="evenodd" fill="#7F7570" d="M39.4 339.9h20v20h-20zM39.4 359.9h20v20h-20zM39.4 399.9h20v20h-20zM39.4 419.9h20v20h-20z"/><path fill-rule="evenodd" clip-rule="evenodd" fill="#302517" d="M-.6 439.9h20v20h-20zM-.6 480h20v20h-20z"/><path fill-rule="evenodd" clip-rule="evenodd" fill="#7F7570" d="M39.4 379.9h20v20h-20z"/><path fill-rule="evenodd" clip-rule="evenodd" fill="#302517" d="M-.6 460h20v20h-20z"/><path fill-rule="evenodd" clip-rule="evenodd" fill="#C9AE91" d="M59.4 199.7h20v20h-20zM59.4 219.8h20v20h-20zM59.4 239.8h20v20h-20zM59.4 259.8h20v20h-20zM59.4 279.8h20v20h-20zM59.4 299.8h20v20h-20z"/><path fill-rule="evenodd" clip-rule="evenodd" fill="#7F7570" d="M39.4 319.8h20v20h-20z"/><path fill-rule="evenodd" clip-rule="evenodd" fill="#76BEDD" d="M59.4 179.7h20v20h-20zM59.4 139.7h20v20h-20zM59.4 159.7h20v20h-20z"/><path fill-rule="evenodd" clip-rule="evenodd" fill="#BF7940" d="M119.5 19.6h20v20h-20z"/><path fill-rule="evenodd" clip-rule="evenodd" fill="#88D5FF" d="M99.4 139.7h20v20h-20zM99.4 159.7h20v20h-20zM99.4 179.7h20v20h-20zM99.4 199.7h20v20h-20zM99.4 219.8h20v20h-20zM99.4 239.8h20v20h-20zM99.4 259.8h20v20h-20z"/><path fill-rule="evenodd" clip-rule="evenodd" fill="#76BEDD" d="M79.4 99.6h20v20h-20z"/><path fill-rule="evenodd" clip-rule="evenodd" fill="#88D5FF" d="M79.4 119.7h20v20h-20z"/><path fill-rule="evenodd" clip-rule="evenodd" fill="#7F7570" d="M39.4 439.9h20v20h-20z"/><path fill-rule="evenodd" clip-rule="evenodd" fill="#76BEDD" d="M39.4 139.7h20v20h-20zM39.4 159.7h20v20h-20zM39.4 179.7h20v20h-20zM39.4 199.7h20v20h-20zM39.4 219.8h20v20h-20z"/><path fill-rule="evenodd" clip-rule="evenodd" fill="#302517" d="M39.4 279.8h20v20h-20z"/><path fill-rule="evenodd" clip-rule="evenodd" fill="#7F7570" d="M39.4 299.8h20v20h-20z"/><path fill-rule="evenodd" clip-rule="evenodd" fill="#76BEDD" d="M39.4 239.8h20v20h-20zM39.4 259.8h20v20h-20z"/></svg>