<svg class="Bill__3 is-hidden" xmlns="http://www.w3.org/2000/svg" width="240" height="520" viewBox="-479 141 240 520"><path fill-rule="evenodd" clip-rule="evenodd" fill="#7F7570" d="M-341.5 480.8h20v20h-20zm0 20h20v20h-20zm-59.1-20h20v20h-20zm59.1 60.1h20v20h-20zm0 20h20v20h-20zm-59.1-60.1h20v20h-20zm59.1 20.1h20v20h-20zm0 60h20v20h-20zm-39.1-60h20v20h-20zm-40 20h20v20h-20zm0 20h20v20h-20zm79.1 40h20v20h-20zm-79.1-20h20v20h-20zm79.1 40h20v20h-20z"/><path fill-rule="evenodd" clip-rule="evenodd" fill="#A09087" d="M-321.5 480.8h20v20h-20zm0 20h20v20h-20zm0 40.1h20v20h-20zm0 20h20v20h-20zm0 20h20v20h-20zm0 20h20v20h-20z"/><path fill-rule="evenodd" clip-rule="evenodd" fill="#302517" d="M-321.5 640.9h20v20h-20z"/><path fill-rule="evenodd" clip-rule="evenodd" fill="#A09087" d="M-321.5 520.9h20v20h-20zm0 100h20v20h-20z"/><path fill-rule="evenodd" clip-rule="evenodd" fill="#302517" d="M-341.5 640.9h20v20h-20z"/><path fill-rule="evenodd" clip-rule="evenodd" fill="#E5C7A1" d="M-381.6 220.6h20v20h-20zm20.1 0h20v20h-20z"/><path fill-rule="evenodd" clip-rule="evenodd" fill="#C9AE91" d="M-381.6 200.6h20v20h-20zm20.1 0h20v20h-20z"/><path fill-rule="evenodd" clip-rule="evenodd" fill="#BF7940" d="M-361.5 180.6h20v20h-20zm-20.1 0h20v20h-20z"/><path fill-rule="evenodd" clip-rule="evenodd" fill="#E5C7A1" d="M-341.5 220.6h20v20h-20z"/><path fill-rule="evenodd" clip-rule="evenodd" fill="#C9AE91" d="M-341.5 200.6h20v20h-20z"/><path fill-rule="evenodd" clip-rule="evenodd" fill="#BF7940" d="M-341.5 180.6h20v20h-20z"/><path fill-rule="evenodd" clip-rule="evenodd" fill="#88D5FF" d="M-361.5 280.7h20v20h-20zm0 20h20v20h-20zm0 20h20v20h-20zm0 20h20v20h-20z"/><path fill-rule="evenodd" clip-rule="evenodd" fill="#76BEDD" d="M-381.6 260.7h20v20h-20z"/><path fill-rule="evenodd" clip-rule="evenodd" fill="#76BEDD" d="M-400.6 260.7h20v20h-20zm39.1 0h20v20h-20z"/><path fill-rule="evenodd" clip-rule="evenodd" fill="#3E5056" d="M-341.5 260.7h20v20h-20z"/><path fill-rule="evenodd" clip-rule="evenodd" fill="#88D5FF" d="M-361.5 360.7h20v20h-20z"/><path fill-rule="evenodd" clip-rule="evenodd" fill="#516872" d="M-341.5 280.7h20v20h-20zm0 20h20v20h-20zm0 20h20v20h-20zm0 20h20v20h-20zm0 20h20v20h-20z"/><path fill-rule="evenodd" clip-rule="evenodd" fill="#302517" d="M-341.5 420.8h20v20h-20z"/><path fill-rule="evenodd" clip-rule="evenodd" fill="#A09087" d="M-341.5 440.8h20v20h-20z"/><path fill-rule="evenodd" clip-rule="evenodd" fill="#7F7570" d="M-341.5 460.8h20v20h-20z"/><path fill-rule="evenodd" clip-rule="evenodd" fill="#302517" d="M-321.5 420.8h20v20h-20z"/><path fill-rule="evenodd" clip-rule="evenodd" fill="#A09087" d="M-321.5 440.8h20v20h-20zm0 20h20v20h-20z"/><path fill-rule="evenodd" clip-rule="evenodd" fill="#302517" d="M-381.6 420.8h20v20h-20z"/><path fill-rule="evenodd" clip-rule="evenodd" fill="#A09087" d="M-381.6 440.8h20v20h-20z"/><path fill-rule="evenodd" clip-rule="evenodd" fill="#7F7570" d="M-381.6 460.8h20v20h-20z"/><path fill-rule="evenodd" clip-rule="evenodd" fill="#302517" d="M-361.5 420.8h20v20h-20z"/><path fill-rule="evenodd" clip-rule="evenodd" fill="#A09087" d="M-361.5 440.8h20v20h-20z"/><path fill-rule="evenodd" clip-rule="evenodd" fill="#7F7570" d="M-361.5 460.8h20v20h-20zm-39.1 0h20v20h-20z"/><path fill-rule="evenodd" clip-rule="evenodd" fill="#88D5FF" d="M-361.5 380.8h20v20h-20z"/><path fill-rule="evenodd" clip-rule="evenodd" fill="#516872" d="M-341.5 380.8h20v20h-20z"/><path fill-rule="evenodd" clip-rule="evenodd" fill="#88D5FF" d="M-361.5 400.8h20v20h-20z"/><path fill-rule="evenodd" clip-rule="evenodd" fill="#76BEDD" d="M-341.5 400.8h20v20h-20z"/><path fill-rule="evenodd" clip-rule="evenodd" fill="#88D5FF" d="M-321.5 380.8h20v20h-20zm0 20h20v20h-20zm0-40.1h20v20h-20zm0-20h20v20h-20zm0-20h20v20h-20zm0-40h20v20h-20zm0 20h20v20h-20z"/><path fill-rule="evenodd" clip-rule="evenodd" fill="#E5C7A1" d="M-381.6 240.7h20v20h-20zm20.1 0h20v20h-20zm20 0h20v20h-20z"/><path fill-rule="evenodd" clip-rule="evenodd" fill="#7F7570" d="M-420.6 480.8h20v20h-20zm20 40.1h20v20h-20zm0 20h20v20h-20z"/><path fill-rule="evenodd" clip-rule="evenodd" fill="#302517" d="M-440.6 560.9h20v20h-20zm0 40h20v20h-20zm0-20h20v20h-20z"/><path fill-rule="evenodd" clip-rule="evenodd" fill="#C9AE91" d="M-400.6 340.7h20v20h-20zm0 20h20v20h-20zm0 20.1h20v20h-20zm0 20h20v20h-20zm0 20h20v20h-20zm0 20h20v20h-20z"/><path fill-rule="evenodd" clip-rule="evenodd" fill="#7F7570" d="M-420.6 460.8h20v20h-20z"/><path fill-rule="evenodd" clip-rule="evenodd" fill="#76BEDD" d="M-400.6 320.7h20v20h-20zm0-40h20v20h-20zm0 20h20v20h-20z"/><path fill-rule="evenodd" clip-rule="evenodd" fill="#BF7940" d="M-361.5 160.6h20v20h-20z"/><path fill-rule="evenodd" clip-rule="evenodd" fill="#88D5FF" d="M-381.6 280.7h20v20h-20zm0 20h20v20h-20zm0 20h20v20h-20zm0 20h20v20h-20zm0 20h20v20h-20zm0 20.1h20v20h-20zm0 20h20v20h-20z"/><path fill-rule="evenodd" clip-rule="evenodd" fill="#7F7570" d="M-400.6 560.9h20v20h-20z"/><path fill-rule="evenodd" clip-rule="evenodd" fill="#76BEDD" d="M-420.6 280.7h20v20h-20zm0 20h20v20h-20zm0 20h20v20h-20zm0 20h20v20h-20zm0 20h20v20h-20z"/><path fill-rule="evenodd" clip-rule="evenodd" fill="#302517" d="M-420.6 420.8h20v20h-20z"/><path fill-rule="evenodd" clip-rule="evenodd" fill="#7F7570" d="M-420.6 440.8h20v20h-20z"/><path fill-rule="evenodd" clip-rule="evenodd" fill="#76BEDD" d="M-420.6 380.8h20v20h-20zm0 20h20v20h-20z"/><path fill-rule="evenodd" clip-rule="evenodd" fill="#7F7570" d="M-380.6 540.9h20v20h-20zm0-40.1h20v20h-20zm0-20h20v20h-20z"/></svg>