<svg class="Bill__6 is-hidden" xmlns="http://www.w3.org/2000/svg" width="240" height="520" viewBox="0 0 240 520"><path fill-rule="evenodd" clip-rule="evenodd" fill="#C9AE91" d="M99.2 79.4h20v20h-20z"/><path fill-rule="evenodd" clip-rule="evenodd" fill="#E5C7A1" d="M119.2 79.4h20v20h-20z"/><path fill-rule="evenodd" clip-rule="evenodd" fill="#C9AE91" d="M99.2 59.4h20v20h-20z"/><path fill-rule="evenodd" clip-rule="evenodd" fill="#C9AE91" d="M119.2 59.4h20v20h-20z"/><path fill-rule="evenodd" clip-rule="evenodd" fill="#BF7940" d="M119.2 39.4h20v20h-20z"/><path fill-rule="evenodd" clip-rule="evenodd" fill="#BF7940" d="M99.2 39.4h20v20h-20z"/><path fill-rule="evenodd" clip-rule="evenodd" fill="#E5C7A1" d="M139.2 79.4h20v20h-20z"/><path fill-rule="evenodd" clip-rule="evenodd" fill="#C9AE91" d="M139.2 59.4h20v20h-20z"/><path fill-rule="evenodd" clip-rule="evenodd" fill="#BF7940" d="M139.2 39.4h20v20h-20z"/><path fill-rule="evenodd" clip-rule="evenodd" fill="#88D5FF" d="M119.2 139.5h20v20h-20zM119.2 159.5h20v20h-20zM119.2 179.5h20v20h-20zM119.2 199.6h20v20h-20z"/><path fill-rule="evenodd" clip-rule="evenodd" fill="#516872" d="M139.2 139.5h20v20h-20zM139.2 159.5h20v20h-20zM139.2 179.5h20v20h-20zM139.2 199.6h20v20h-20z"/><path fill-rule="evenodd" clip-rule="evenodd" fill="#76BEDD" d="M119.2 119.5h20v20h-20zM59.1 119.5h20v20h-20z"/><path fill-rule="evenodd" clip-rule="evenodd" fill="#3E5056" d="M139.2 119.5h20v20h-20z"/><path fill-rule="evenodd" clip-rule="evenodd" fill="#76BEDD" d="M79.1 119.5h20v20h-20z"/><path fill-rule="evenodd" clip-rule="evenodd" fill="#88D5FF" d="M119.2 219.6h20v20h-20z"/><path fill-rule="evenodd" clip-rule="evenodd" fill="#516872" d="M139.2 219.6h20v20h-20z"/><path fill-rule="evenodd" clip-rule="evenodd" fill="#76BEDD" d="M79.1 139.5h20v20h-20zM79.1 159.5h20v20h-20zM79.1 179.5h20v20h-20zM79.1 199.6h20v20h-20zM79.1 219.6h20v20h-20z"/><path fill-rule="evenodd" clip-rule="evenodd" fill="#302517" d="M79.1 279.7h20v20h-20z"/><path fill-rule="evenodd" clip-rule="evenodd" fill="#7F7570" d="M79.1 299.7h20v20h-20z"/><path fill-rule="evenodd" clip-rule="evenodd" fill="#302517" d="M139.2 279.7h20v20h-20z"/><path fill-rule="evenodd" clip-rule="evenodd" fill="#A09087" d="M139.2 299.7h20v20h-20z"/><path fill-rule="evenodd" clip-rule="evenodd" fill="#302517" d="M119.2 279.7h20v20h-20z"/><path fill-rule="evenodd" clip-rule="evenodd" fill="#A09087" d="M119.2 299.7h20v20h-20z"/><path fill-rule="evenodd" clip-rule="evenodd" fill="#88D5FF" d="M119.2 239.6h20v20h-20z"/><path fill-rule="evenodd" clip-rule="evenodd" fill="#516872" d="M139.2 239.6h20v20h-20z"/><path fill-rule="evenodd" clip-rule="evenodd" fill="#76BEDD" d="M79.1 239.6h20v20h-20z"/><path fill-rule="evenodd" clip-rule="evenodd" fill="#88D5FF" d="M119.2 259.7h20v20h-20z"/><path fill-rule="evenodd" clip-rule="evenodd" fill="#76BEDD" d="M139.2 259.7h20v20h-20zM79.1 259.7h20v20h-20z"/><path fill-rule="evenodd" clip-rule="evenodd" fill="#C9AE91" d="M99.2 99.4h20v20h-20z"/><path fill-rule="evenodd" clip-rule="evenodd" fill="#E5C7A1" d="M119.2 99.4h20v20h-20zM139.2 99.4h20v20h-20z"/><path fill-rule="evenodd" clip-rule="evenodd" fill="#C9AE91" d="M99.2 199.6h20v20h-20zM99.2 219.6h20v20h-20zM99.2 239.6h20v20h-20zM99.2 259.7h20v20h-20zM99.2 279.7h20v20h-20zM99.2 299.7h20v20h-20z"/><path fill-rule="evenodd" clip-rule="evenodd" fill="#76BEDD" d="M99.2 179.5h20v20h-20zM99.2 139.5h20v20h-20zM99.2 159.5h20v20h-20z"/><path fill-rule="evenodd" clip-rule="evenodd" fill="#BF7940" d="M119.2 19.3h20v20h-20z"/><path fill-rule="evenodd" clip-rule="evenodd" fill="#76BEDD" d="M79.1 99.4h20v20h-20zM99.2 119.5h20v20h-20zM59.1 139.5h20v20h-20zM59.1 159.5h20v20h-20zM59.1 179.5h20v20h-20zM59.1 199.6h20v20h-20zM59.1 219.6h20v20h-20z"/><path fill-rule="evenodd" clip-rule="evenodd" fill="#302517" d="M59.1 279.7h20v20h-20z"/><path fill-rule="evenodd" clip-rule="evenodd" fill="#7F7570" d="M59.1 299.7h20v20h-20z"/><path fill-rule="evenodd" clip-rule="evenodd" fill="#76BEDD" d="M59.1 239.6h20v20h-20zM59.1 259.7h20v20h-20z"/><path fill-rule="evenodd" clip-rule="evenodd" fill="#7F7570" d="M79.1 339.8h20v20h-20zM79.1 359.8h20v20h-20zM79.1 399.8h20v20h-20zM79.1 419.9h20v20h-20zM79.1 379.8h20v20h-20zM79.1 439.9h20v20h-20zM79.1 459.9h20v20h-20zM79.1 480h20v20h-20z"/><path fill-rule="evenodd" clip-rule="evenodd" fill="#A09087" d="M99.2 339.8h20v20h-20zM99.2 359.8h20v20h-20zM99.2 399.8h20v20h-20zM99.2 419.9h20v20h-20zM99.2 439.9h20v20h-20zM99.2 459.9h20v20h-20z"/><path fill-rule="evenodd" clip-rule="evenodd" fill="#302517" d="M99.2 500h20v20h-20z"/><path fill-rule="evenodd" clip-rule="evenodd" fill="#A09087" d="M99.2 379.8h20v20h-20zM99.2 480h20v20h-20z"/><path fill-rule="evenodd" clip-rule="evenodd" fill="#302517" d="M79.1 500h20v20h-20z"/><path fill-rule="evenodd" clip-rule="evenodd" fill="#7F7570" d="M79.1 319.7h20v20h-20z"/><path fill-rule="evenodd" clip-rule="evenodd" fill="#A09087" d="M99.2 319.7h20v20h-20z"/><path fill-rule="evenodd" clip-rule="evenodd" fill="#7F7570" d="M59.1 319.7h20v20h-20zM119.2 339.8h20v20h-20zM119.2 359.8h20v20h-20zM139.2 379.8h20v20h-20z"/><path fill-rule="evenodd" clip-rule="evenodd" fill="#302517" d="M59.1 399.8h20v20h-20zM59.1 439.9h20v20h-20zM59.1 419.9h20v20h-20z"/><path fill-rule="evenodd" clip-rule="evenodd" fill="#A09087" d="M139.2 319.7h20v20h-20zM119.2 319.7h20v20h-20z"/><path fill-rule="evenodd" clip-rule="evenodd" fill="#7F7570" d="M139.2 339.8h20v20h-20zM139.2 359.8h20v20h-20zM119.2 379.8h20v20h-20zM119.2 399.8h20v20h-20z"/></svg>