<svg class="Bill__1" xmlns="http://www.w3.org/2000/svg" width="240" height="520" viewBox="0 0 240 520"><path fill="#7F7570" d="M140.1 339.4h20.1v20.1h-20.1zM140.1 359.5h20.1v20.1h-20.1z"/><path fill="#A09087" d="M59.8 339.4h20.1v20.1H59.8z"/><path fill="#7F7570" d="M140.1 399.6h20.1v20.1h-20.1z"/><path fill="#7F7570" d="M140.1 419.7h20.1v20.1h-20.1z"/><path fill="#A09087" d="M59.8 359.5h20.1v20.1H59.8z"/><path fill="#7F7570" d="M140.1 379.6h20.1v20.1h-20.1zM140.1 439.8h20.1v20.1h-20.1z"/><path fill="#A09087" d="M59.8 399.6h20.1v20.1H59.8z"/><path fill="#A09087" d="M59.8 419.7h20.1v20.1H59.8zM59.8 439.8h20.1v20.1H59.8z"/><path fill="#A09087" d="M59.8 459.8h20.1v20.1H59.8zM59.8 379.6h20.1v20.1H59.8z"/><path fill="#7F7570" d="M140.1 459.8h20.1v20.1h-20.1z"/><path fill="#A09087" d="M59.8 479.9h20.1V500H59.8z"/><path fill="#7F7570" d="M140.1 479.9h20.1V500h-20.1z"/><path fill="#302517" d="M59.8 499.9h20.1V520H59.8z"/><path fill="#A09087" d="M160.1 339.4h20.1v20.1h-20.1zM160.1 359.5h20.1v20.1h-20.1zM160.1 399.6h20.1v20.1h-20.1z"/><path fill="#A09087" d="M160.1 419.7h20.1v20.1h-20.1zM160.1 439.8h20.1v20.1h-20.1z"/><path fill="#A09087" d="M160.1 459.8h20.1v20.1h-20.1z"/><path fill="#302517" d="M160.1 499.9h20.1V520h-20.1z"/><path fill="#A09087" d="M160.1 379.6h20.1v20.1h-20.1zM160.1 479.9h20.1V500h-20.1z"/><path fill="#302517" d="M140.1 499.9h20.1V520h-20.1z"/><path fill="#E5C7A1" d="M99.9 78.6H120v20.1H99.9zM120 78.6h20.1v20.1H120z"/><path fill="#C9AE91" d="M99.9 58.6H120v20.1H99.9zM120 58.6h20.1v20.1H120z"/><path fill="#BF7940" d="M120 38.5h20.1v20.1H120zM99.9 38.5H120v20.1H99.9z"/><path fill="#E5C7A1" d="M140.1 78.6h20.1v20.1h-20.1z"/><path fill="#C9AE91" d="M140.1 58.6h20.1v20.1h-20.1z"/><path fill="#BF7940" d="M140.1 38.5h20.1v20.1h-20.1z"/><path fill="#88D5FF" d="M79.9 138.8H100v20.1H79.9zM59.8 138.8h20.1v20.1H59.8zM79.9 158.9H100V179H79.9z"/><path fill="#88D5FF" d="M79.9 178.9H100V199H79.9zM59.8 158.9h20.1V179H59.8z"/><path fill="#88D5FF" d="M59.8 178.9h20.1V199H59.8zM79.9 199H100v20.1H79.9zM59.8 199h20.1v20.1H59.8z"/><path fill="#516872" d="M120 138.8h20.1v20.1H120zM120 158.9h20.1V179H120z"/><path fill="#516872" d="M120 178.9h20.1V199H120zM120 199h20.1v20.1H120z"/><path fill="#76BEDD" d="M99.9 118.8H120v20.1H99.9zM59.8 118.8h20.1v20.1H59.8z"/><path fill="#3E5056" d="M120 118.8h20.1v20.1H120z"/><path fill="#76BEDD" d="M140.1 118.8h20.1v20.1h-20.1z"/><path fill="#88D5FF" d="M79.9 219.1H100v20.1H79.9zM59.8 219.1h20.1v20.1H59.8z"/><path fill="#516872" d="M120 219.1h20.1v20.1H120z"/><path fill="#88D5FF" d="M140.1 138.8h20.1v20.1h-20.1zM140.1 158.9h20.1V179h-20.1z"/><path fill="#88D5FF" d="M140.1 178.9h20.1V199h-20.1zM140.1 199h20.1v20.1h-20.1zM140.1 219.1h20.1v20.1h-20.1z"/><path fill="#D8BB91" d="M180.2 199h20.1v20.1h-20.1zM180.2 219.1h20.1v20.1h-20.1z"/><path fill="#D8BB91" d="M180.2 239.1h20.1v20.1h-20.1z"/><path fill="#88D5FF" d="M180.2 178.9h20.1V199h-20.1z"/><path fill="#88D5FF" d="M180.2 158.9h20.1V179h-20.1z"/><path fill="#D8BB91" d="M180.2 259.2h20.1v20.1h-20.1zM180.2 279.3h20.1v20.1h-20.1z"/><path fill="#D8BB91" d="M180.2 299.3h20.1v20.1h-20.1z"/><path fill="#302517" d="M140.1 279.3h20.1v20.1h-20.1z"/><path fill="#A09087" d="M140.1 299.3h20.1v20.1h-20.1z"/><path fill="#7F7570" d="M140.1 319.4h20.1v20.1h-20.1z"/><path fill="#302517" d="M160.1 279.3h20.1v20.1h-20.1z"/><path fill="#A09087" d="M160.1 299.3h20.1v20.1h-20.1z"/><path fill="#A09087" d="M160.1 319.4h20.1v20.1h-20.1z"/><path fill="#302517" d="M99.9 279.3H120v20.1H99.9z"/><path fill="#A09087" d="M99.9 299.3H120v20.1H99.9z"/><path fill="#7F7570" d="M99.9 319.4H120v20.1H99.9z"/><path fill="#302517" d="M120 279.3h20.1v20.1H120z"/><path fill="#A09087" d="M120 299.3h20.1v20.1H120z"/><path fill="#7F7570" d="M120 319.4h20.1v20.1H120z"/><path fill="#302517" d="M59.8 279.3h20.1v20.1H59.8z"/><path fill="#A09087" d="M59.8 299.3h20.1v20.1H59.8z"/><path fill="#A09087" d="M59.8 319.4h20.1v20.1H59.8z"/><path fill="#302517" d="M79.9 279.3H100v20.1H79.9z"/><path fill="#A09087" d="M79.9 299.3H100v20.1H79.9z"/><path fill="#7F7570" d="M79.9 319.4H100v20.1H79.9z"/><path fill="#88D5FF" d="M79.9 239.1H100v20.1H79.9zM59.8 239.1h20.1v20.1H59.8z"/><path fill="#516872" d="M120 239.1h20.1v20.1H120z"/><path fill="#88D5FF" d="M140.1 239.1h20.1v20.1h-20.1zM79.9 259.2H100v20.1H79.9zM59.8 259.2h20.1v20.1H59.8z"/><path fill="#76BEDD" d="M120 259.2h20.1v20.1H120z"/><path fill="#88D5FF" d="M140.1 259.2h20.1v20.1h-20.1z"/><path fill="#76BEDD" d="M160.1 239.1h20.1v20.1h-20.1zM160.1 259.2h20.1v20.1h-20.1z"/><path fill="#76BEDD" d="M160.1 219.1h20.1v20.1h-20.1zM160.1 199h20.1v20.1h-20.1zM160.1 178.9h20.1V199h-20.1z"/><path fill="#88D5FF" d="M160.1 138.8h20.1v20.1h-20.1zM160.1 158.9h20.1V179h-20.1z"/><path fill="#88D5FF" d="M160.1 118.8h20.1v20.1h-20.1zM180.2 138.8h20.1v20.1h-20.1zM180.2 158.9h20.1V179h-20.1z"/><path fill="#E5C7A1" d="M99.9 98.7H120v20.1H99.9zM120 98.7h20.1v20.1H120zM140.1 98.7h20.1v20.1h-20.1z"/><path fill="#7F7570" d="M39.8 339.4h20.1v20.1H39.8zM39.8 359.5h20.1v20.1H39.8zM39.8 399.6h20.1v20.1H39.8z"/><path fill="#7F7570" d="M39.8 419.7h20.1v20.1H39.8zM39.8 439.8h20.1v20.1H39.8z"/><path fill="#7F7570" d="M39.8 459.8h20.1v20.1H39.8z"/><path fill="#302517" d="M39.8 499.9h20.1V520H39.8z"/><path fill="#7F7570" d="M39.8 379.6h20.1v20.1H39.8zM39.8 479.9h20.1V500H39.8z"/><path fill="#C9AE91" d="M39.8 199h20.1v20.1H39.8zM39.8 219.1h20.1v20.1H39.8z"/><path fill="#C9AE91" d="M39.8 239.1h20.1v20.1H39.8zM39.8 259.2h20.1v20.1H39.8zM39.8 279.3h20.1v20.1H39.8z"/><path fill="#C9AE91" d="M39.8 299.3h20.1v20.1H39.8z"/><path fill="#7F7570" d="M39.8 319.4h20.1v20.1H39.8z"/><path fill="#76BEDD" d="M39.8 178.9h20.1V199H39.8zM39.8 138.8h20.1v20.1H39.8z"/><path fill="#76BEDD" d="M39.8 158.9h20.1V179H39.8z"/><path fill="#BF7940" d="M120 18.5h20.1v20.1H120z"/><path fill="#88D5FF" d="M99.9 138.8H120v20.1H99.9zM99.9 158.9H120V179H99.9z"/><path fill="#88D5FF" d="M99.9 178.9H120V199H99.9zM99.9 199H120v20.1H99.9zM99.9 219.1H120v20.1H99.9z"/><path fill="#88D5FF" d="M99.9 239.1H120v20.1H99.9zM99.9 259.2H120v20.1H99.9z"/><path fill="#76BEDD" d="M79.9 98.7H100v20.1H79.9z"/><path fill="#88D5FF" d="M79.9 118.8H100v20.1H79.9z"/></svg>