<svg enable-background="new -479 141 240 520" height="520" viewBox="-479 141 240 520" width="240" xmlns="http://www.w3.org/2000/svg"><path d="m-339 340h-20-20v1h20 20 20 20v-1h-20z" fill="none"/><path d="m-379 360h-20-20v1h20 20z" fill="none"/><path d="m-339 481h20v20h-20z" fill="#7f7570"/><path d="m-339 501h20v20h-20z" fill="#7f7570"/><path d="m-419 481h20v20h-20z" fill="#a09087"/><path d="m-339 541h20v20h-20z" fill="#7f7570"/><path d="m-339 561h20v20h-20z" fill="#7f7570"/><path d="m-419 501h20v20h-20z" fill="#a09087"/><path d="m-339 521h20v20h-20z" fill="#7f7570"/><path d="m-339 581h20v20h-20z" fill="#7f7570"/><path d="m-419 601h20v20h-20z" fill="#a09087"/><path d="m-419 581h20v20h-20z" fill="#a09087"/><path d="m-419 521h20v20h-20z" fill="#a09087"/><path d="m-419 541h20v20h-20z" fill="#a09087"/><path d="m-419 561h20v20h-20z" fill="#a09087"/><path d="m-339 601h20v20h-20z" fill="#7f7570"/><path d="m-419 621h20v20h-20z" fill="#a09087"/><path d="m-339 621h20v20h-20z" fill="#7f7570"/><path d="m-419 641h20v20h-20z" fill="#302517"/><path d="m-319 541h20v20h-20z" fill="#a09087"/><path d="m-319 481h20v20h-20z" fill="#a09087"/><path d="m-319 561h20v20h-20z" fill="#a09087"/><path d="m-319 601h20v20h-20z" fill="#a09087"/><path d="m-319 581h20v20h-20z" fill="#a09087"/><path d="m-319 501h20v20h-20z" fill="#a09087"/><path d="m-319 641h20v20h-20z" fill="#302517"/><path d="m-319 621h20v20h-20z" fill="#a09087"/><path d="m-319 521h20v20h-20z" fill="#a09087"/><path d="m-339 641h20v20h-20z" fill="#302517"/><path d="m-359 223h20v20h-20z" fill="#e5c7a1"/><path d="m-379 223h20v20h-20z" fill="#e5c7a1"/><path d="m-379 203h20v20h-20z" fill="#c9ae91"/><path d="m-359 203h20v20h-20z" fill="#c9ae91"/><path d="m-379 183h20v20h-20z" fill="#ce2811"/><path d="m-359 183h20v20h-20z" fill="#ce2811"/><path d="m-339 223h20v20h-20z" fill="#e5c7a1"/><path d="m-339 203h20v20h-20z" fill="#c9ae91"/><path d="m-339 183h20v20h-20z" fill="#ce2811"/><g fill="#ccff97"><path d="m-399 322h20v19h-20z"/><path d="m-419 322h20v19h-20z"/><path d="m-379 361v-19-1h-20v20z"/><path d="m-399 303h20v19h-20z"/><path d="m-419 341h20v20h-20z"/><path d="m-419 283h20v20h-20z"/><path d="m-419 303h20v19h-20z"/><path d="m-399 283h20v20h-20z"/></g><path d="m-359 303h20v19h-20z" fill="#516872"/><path d="m-359 322h20v19h-20z" fill="#516872"/><path d="m-359 341h20v20h-20z" fill="#516872"/><path d="m-359 283h20v20h-20z" fill="#516872"/><path d="m-379 263h20v20h-20z" fill="#b3e27d"/><path d="m-419 263h20v20h-20z" fill="#b3e27d"/><path d="m-359 263h20v20h-20z" fill="#3e5056"/><path d="m-339 263h20v20h-20z" fill="#b3e27d"/><path d="m-399 361h-20v19 1h20z" fill="#ccff97"/><path d="m-399 361h20v20h-20z" fill="#ccff97"/><path d="m-359 361h20v20h-20z" fill="#516872"/><path d="m-339 361h20v20h-20z" fill="#ccff97"/><path d="m-339 283h20v20h-20z" fill="#ccff97"/><path d="m-339 303h20v19h-20z" fill="#ccff97"/><path d="m-339 341h20v20h-20z" fill="#ccff97"/><path d="m-339 322h20v19h-20z" fill="#ccff97"/><path d="m-299 342v19h20v-20h-20z" fill="#d8bb91"/><path d="m-299 381h20v20h-20z" fill="#d8bb91"/><path d="m-299 362v19h20v-20h-20z" fill="#d8bb91"/><path d="m-299 322h20v19h-20z" fill="#ccff97"/><path d="m-299 441h20v20h-20z" fill="#d8bb91"/><path d="m-299 401h20v20h-20z" fill="#d8bb91"/><path d="m-299 421h20v20h-20z" fill="#d8bb91"/><path d="m-339 421h20v20h-20z" fill="#302517"/><path d="m-339 441h20v20h-20z" fill="#a09087"/><path d="m-339 461h20v20h-20z" fill="#7f7570"/><path d="m-319 421h20v20h-20z" fill="#302517"/><path d="m-319 441h20v20h-20z" fill="#a09087"/><path d="m-319 461h20v20h-20z" fill="#a09087"/><path d="m-379 421h20v20h-20z" fill="#302517"/><path d="m-379 441h20v20h-20z" fill="#a09087"/><path d="m-379 461h20v20h-20z" fill="#7f7570"/><path d="m-359 421h20v20h-20z" fill="#302517"/><path d="m-359 441h20v20h-20z" fill="#a09087"/><path d="m-359 461h20v20h-20z" fill="#7f7570"/><path d="m-419 421h20v20h-20z" fill="#302517"/><path d="m-419 461h20v20h-20z" fill="#a09087"/><path d="m-419 441h20v20h-20z" fill="#a09087"/><path d="m-399 421h20v20h-20z" fill="#302517"/><path d="m-399 441h20v20h-20z" fill="#a09087"/><path d="m-399 461h20v20h-20z" fill="#7f7570"/><path d="m-419 381h20v20h-20z" fill="#ccff97"/><path d="m-399 381h20v20h-20z" fill="#ccff97"/><path d="m-359 381h20v20h-20z" fill="#516872"/><path d="m-339 381h20v20h-20z" fill="#ccff97"/><path d="m-399 401h20v20h-20z" fill="#ccff97"/><path d="m-419 401h20v20h-20z" fill="#ccff97"/><path d="m-359 401h20v20h-20z" fill="#b3e27d"/><path d="m-339 401h20v20h-20z" fill="#ccff97"/><path d="m-319 381h20v20h-20z" fill="#b3e27d"/><path d="m-319 401h20v20h-20z" fill="#b3e27d"/><path d="m-319 361h20v-1-19h-20z" fill="#b3e27d"/><path d="m-319 322h20v19h-20z" fill="#b3e27d"/><path d="m-319 361v20h20v-1-19z" fill="#b3e27d"/><path d="m-299 283h20v20h-20z" fill="#ccff97"/><path d="m-319 263h20v20h-20z" fill="#ccff97"/><path d="m-319 283h20v20h-20z" fill="#ccff97"/><path d="m-319 303h20v19h-20z" fill="#ccff97"/><path d="m-299 303h20v19h-20z" fill="#ccff97"/><path d="m-379 243h20v20h-20z" fill="#e5c7a1"/><path d="m-359 243h20v20h-20z" fill="#e5c7a1"/><path d="m-339 243h20v20h-20z" fill="#e5c7a1"/><path d="m-439 581h20v20h-20z" fill="#7f7570"/><path d="m-439 561h20v20h-20z" fill="#7f7570"/><path d="m-439 501h20v20h-20z" fill="#7f7570"/><path d="m-439 481h20v20h-20z" fill="#7f7570"/><path d="m-439 541h20v20h-20z" fill="#7f7570"/><path d="m-439 601h20v20h-20z" fill="#7f7570"/><path d="m-439 641h20v20h-20z" fill="#302517"/><path d="m-439 621h20v20h-20z" fill="#7f7570"/><path d="m-439 521h20v20h-20z" fill="#7f7570"/><path d="m-439 341h20v20h-20z" fill="#c9ae91"/><path d="m-439 381h20v20h-20z" fill="#c9ae91"/><path d="m-419 361h-20v20h20v-19z" fill="#c9ae91"/><path d="m-439 401h20v20h-20z" fill="#c9ae91"/><path d="m-439 421h20v20h-20z" fill="#c9ae91"/><path d="m-439 441h20v20h-20z" fill="#c9ae91"/><path d="m-439 461h20v20h-20z" fill="#7f7570"/><path d="m-439 283h20v20h-20z" fill="#b3e27d"/><path d="m-439 322h20v19h-20z" fill="#b3e27d"/><path d="m-439 303h20v19h-20z" fill="#b3e27d"/><path d="m-359 163h20v20h-20z" fill="#ce2811"/><path d="m-379 322h20v19h-20z" fill="#ccff97"/><path d="m-379 401h20v20h-20z" fill="#ccff97"/><path d="m-379 381h20v20h-20z" fill="#ccff97"/><path d="m-379 361h20v20h-20z" fill="#ccff97"/><path d="m-379 303h20v19h-20z" fill="#ccff97"/><path d="m-379 283h20v20h-20z" fill="#ccff97"/><path d="m-379 361h20v-20h-20v19z" fill="#ccff97"/><path d="m-399 243h20v20h-20z" fill="#b3e27d"/><path d="m-399 263h20v20h-20z" fill="#ccff97"/></svg>