<svg class="Bill__6 is-hidden" xmlns="http://www.w3.org/2000/svg" width="240" height="520" viewBox="0 0 240 520"><path fill-rule="evenodd" clip-rule="evenodd" fill="#C9AE91" d="M99.2 79.4h20v20h-20z"/><path fill-rule="evenodd" clip-rule="evenodd" fill="#E5C7A1" d="M119.2 79.4h20v20h-20z"/><path fill-rule="evenodd" clip-rule="evenodd" fill="#C9AE91" d="M99.2 59.4h20v20h-20z"/><path fill-rule="evenodd" clip-rule="evenodd" fill="#C9AE91" d="M119.2 59.4h20v20h-20z"/><path fill-rule="evenodd" clip-rule="evenodd" fill="#BF7940" d="M119.2 39.4h20v20h-20z"/><path fill-rule="evenodd" clip-rule="evenodd" fill="#BF7940" d="M99.2 39.4h20v20h-20z"/><path fill-rule="evenodd" clip-rule="evenodd" fill="#E5C7A1" d="M139.2 79.4h20v20h-20z"/><path fill-rule="evenodd" clip-rule="evenodd" fill="#C9AE91" d="M139.2 59.4h20v20h-20z"/><path fill-rule="evenodd" clip-rule="evenodd" fill="#BF7940" d="M139.2 39.4h20v20h-20z"/><path fill-rule="evenodd" clip-rule="evenodd" fill="#88D5FF" d="M119.2 139.5h20v20h-20zm0 20h20v20h-20zm0 20h20v20h-20zm0 20.1h20v20h-20z"/><path fill-rule="evenodd" clip-rule="evenodd" fill="#516872" d="M139.2 139.5h20v20h-20zm0 20h20v20h-20zm0 20h20v20h-20zm0 20.1h20v20h-20z"/><path fill-rule="evenodd" clip-rule="evenodd" fill="#76BEDD" d="M119.2 119.5h20v20h-20zm-60.1 0h20v20h-20z"/><path fill-rule="evenodd" clip-rule="evenodd" fill="#3E5056" d="M139.2 119.5h20v20h-20z"/><path fill-rule="evenodd" clip-rule="evenodd" fill="#76BEDD" d="M79.1 119.5h20v20h-20z"/><path fill-rule="evenodd" clip-rule="evenodd" fill="#88D5FF" d="M119.2 219.6h20v20h-20z"/><path fill-rule="evenodd" clip-rule="evenodd" fill="#516872" d="M139.2 219.6h20v20h-20z"/><path fill-rule="evenodd" clip-rule="evenodd" fill="#76BEDD" d="M79.1 139.5h20v20h-20zm0 20h20v20h-20zm0 20h20v20h-20zm0 20.1h20v20h-20zm0 20h20v20h-20z"/><path fill-rule="evenodd" clip-rule="evenodd" fill="#302517" d="M79.1 279.7h20v20h-20z"/><path fill-rule="evenodd" clip-rule="evenodd" fill="#7F7570" d="M79.1 299.7h20v20h-20z"/><path fill-rule="evenodd" clip-rule="evenodd" fill="#302517" d="M139.2 279.7h20v20h-20z"/><path fill-rule="evenodd" clip-rule="evenodd" fill="#A09087" d="M139.2 299.7h20v20h-20z"/><path fill-rule="evenodd" clip-rule="evenodd" fill="#302517" d="M119.2 279.7h20v20h-20z"/><path fill-rule="evenodd" clip-rule="evenodd" fill="#A09087" d="M119.2 299.7h20v20h-20z"/><path fill-rule="evenodd" clip-rule="evenodd" fill="#88D5FF" d="M119.2 239.6h20v20h-20z"/><path fill-rule="evenodd" clip-rule="evenodd" fill="#516872" d="M139.2 239.6h20v20h-20z"/><path fill-rule="evenodd" clip-rule="evenodd" fill="#76BEDD" d="M79.1 239.6h20v20h-20z"/><path fill-rule="evenodd" clip-rule="evenodd" fill="#88D5FF" d="M119.2 259.7h20v20h-20z"/><path fill-rule="evenodd" clip-rule="evenodd" fill="#76BEDD" d="M139.2 259.7h20v20h-20zm-60.1 0h20v20h-20z"/><path fill-rule="evenodd" clip-rule="evenodd" fill="#C9AE91" d="M99.2 99.4h20v20h-20z"/><path fill-rule="evenodd" clip-rule="evenodd" fill="#E5C7A1" d="M119.2 99.4h20v20h-20zm20 0h20v20h-20z"/><path fill-rule="evenodd" clip-rule="evenodd" fill="#C9AE91" d="M99.2 199.6h20v20h-20zm0 20h20v20h-20zm0 20h20v20h-20zm0 20.1h20v20h-20zm0 20h20v20h-20zm0 20h20v20h-20z"/><path fill-rule="evenodd" clip-rule="evenodd" fill="#76BEDD" d="M99.2 179.5h20v20h-20zm0-40h20v20h-20zm0 20h20v20h-20z"/><path fill-rule="evenodd" clip-rule="evenodd" fill="#BF7940" d="M119.2 19.3h20v20h-20z"/><path fill-rule="evenodd" clip-rule="evenodd" fill="#76BEDD" d="M79.1 99.4h20v20h-20zm20.1 20.1h20v20h-20zm-40.1 20h20v20h-20zm0 20h20v20h-20zm0 20h20v20h-20zm0 20.1h20v20h-20zm0 20h20v20h-20z"/><path fill-rule="evenodd" clip-rule="evenodd" fill="#302517" d="M59.1 279.7h20v20h-20z"/><path fill-rule="evenodd" clip-rule="evenodd" fill="#7F7570" d="M59.1 299.7h20v20h-20z"/><path fill-rule="evenodd" clip-rule="evenodd" fill="#76BEDD" d="M59.1 239.6h20v20h-20zm0 20.1h20v20h-20z"/><path fill-rule="evenodd" clip-rule="evenodd" fill="#7F7570" d="M79.1 339.8h20v20h-20zm0 20h20v20h-20zm0 40h20v20h-20zm0 20.1h20v20h-20zm0-40.1h20v20h-20zm0 60.1h20v20h-20zm0 20h20v20h-20zm0 20.1h20v20h-20z"/><path fill-rule="evenodd" clip-rule="evenodd" fill="#A09087" d="M99.2 339.8h20v20h-20zm0 20h20v20h-20zm0 40h20v20h-20zm0 20.1h20v20h-20zm0 20h20v20h-20zm0 20h20v20h-20z"/><path fill-rule="evenodd" clip-rule="evenodd" fill="#302517" d="M99.2 500h20v20h-20z"/><path fill-rule="evenodd" clip-rule="evenodd" fill="#A09087" d="M99.2 379.8h20v20h-20zm0 100.2h20v20h-20z"/><path fill-rule="evenodd" clip-rule="evenodd" fill="#302517" d="M79.1 500h20v20h-20z"/><path fill-rule="evenodd" clip-rule="evenodd" fill="#7F7570" d="M79.1 319.7h20v20h-20z"/><path fill-rule="evenodd" clip-rule="evenodd" fill="#A09087" d="M99.2 319.7h20v20h-20z"/><path fill-rule="evenodd" clip-rule="evenodd" fill="#7F7570" d="M59.1 319.7h20v20h-20zm60.1 20.1h20v20h-20zm0 20h20v20h-20zm20 20h20v20h-20z"/><path fill-rule="evenodd" clip-rule="evenodd" fill="#302517" d="M59.1 399.8h20v20h-20zm0 40.1h20v20h-20zm0-20h20v20h-20z"/><path fill-rule="evenodd" clip-rule="evenodd" fill="#A09087" d="M139.2 319.7h20v20h-20zm-20 0h20v20h-20z"/><path fill-rule="evenodd" clip-rule="evenodd" fill="#7F7570" d="M139.2 339.8h20v20h-20zm0 20h20v20h-20zm-20 20h20v20h-20zm0 20h20v20h-20z"/></svg>