<?xml version="1.0" encoding="utf-8"?>
<!-- Generator: Adobe Illustrator 17.1.0, SVG Export Plug-In . SVG Version: 6.00 Build 0)  -->
<!DOCTYPE svg PUBLIC "-//W3C//DTD SVG 1.1//EN" "http://www.w3.org/Graphics/SVG/1.1/DTD/svg11.dtd">
<svg version="1.1" id="Layer_1" class="Bill__3 is-hidden" xmlns="http://www.w3.org/2000/svg" xmlns:xlink="http://www.w3.org/1999/xlink" x="0px" y="0px"
	 width="240px" height="520px" viewBox="0 0 240 520" enable-background="new 0 0 240 520" xml:space="preserve">
<rect x="139.5" y="339.9" fill-rule="evenodd" clip-rule="evenodd" fill="#7F7570" width="20" height="20"/>
<rect x="139.5" y="359.9" fill-rule="evenodd" clip-rule="evenodd" fill="#7F7570" width="20" height="20"/>
<rect x="59.4" y="339.9" fill-rule="evenodd" clip-rule="evenodd" fill="#7F7570" width="20" height="20"/>
<rect x="139.5" y="399.9" fill-rule="evenodd" clip-rule="evenodd" fill="#7F7570" width="20" height="20"/>
<rect x="139.5" y="419.9" fill-rule="evenodd" clip-rule="evenodd" fill="#7F7570" width="20" height="20"/>
<rect x="59.4" y="359.9" fill-rule="evenodd" clip-rule="evenodd" fill="#7F7570" width="20" height="20"/>
<rect x="139.5" y="379.9" fill-rule="evenodd" clip-rule="evenodd" fill="#7F7570" width="20" height="20"/>
<rect x="139.5" y="439.9" fill-rule="evenodd" clip-rule="evenodd" fill="#7F7570" width="20" height="20"/>
<rect x="59.4" y="399.9" fill-rule="evenodd" clip-rule="evenodd" fill="#7F7570" width="20" height="20"/>
<rect x="19.4" y="419.9" fill-rule="evenodd" clip-rule="evenodd" fill="#7F7570" width="20" height="20"/>
<rect x="19.4" y="439.9" fill-rule="evenodd" clip-rule="evenodd" fill="#7F7570" width="20" height="20"/>
<rect x="59.4" y="379.9" fill-rule="evenodd" clip-rule="evenodd" fill="#7F7570" width="20" height="20"/>
<rect x="139.5" y="460" fill-rule="evenodd" clip-rule="evenodd" fill="#7F7570" width="20" height="20"/>
<rect x="19.4" y="460" fill-rule="evenodd" clip-rule="evenodd" fill="#7F7570" width="20" height="20"/>
<rect x="139.5" y="480" fill-rule="evenodd" clip-rule="evenodd" fill="#7F7570" width="20" height="20"/>
<rect x="159.5" y="339.9" fill-rule="evenodd" clip-rule="evenodd" fill="#A09087" width="20" height="20"/>
<rect x="159.5" y="359.9" fill-rule="evenodd" clip-rule="evenodd" fill="#A09087" width="20" height="20"/>
<rect x="159.5" y="399.9" fill-rule="evenodd" clip-rule="evenodd" fill="#A09087" width="20" height="20"/>
<rect x="159.5" y="419.9" fill-rule="evenodd" clip-rule="evenodd" fill="#A09087" width="20" height="20"/>
<rect x="159.5" y="439.9" fill-rule="evenodd" clip-rule="evenodd" fill="#A09087" width="20" height="20"/>
<rect x="159.5" y="460" fill-rule="evenodd" clip-rule="evenodd" fill="#A09087" width="20" height="20"/>
<rect x="159.5" y="500" fill-rule="evenodd" clip-rule="evenodd" fill="#302517" width="20" height="20"/>
<rect x="159.5" y="379.9" fill-rule="evenodd" clip-rule="evenodd" fill="#A09087" width="20" height="20"/>
<rect x="159.5" y="480" fill-rule="evenodd" clip-rule="evenodd" fill="#A09087" width="20" height="20"/>
<rect x="139.5" y="500" fill-rule="evenodd" clip-rule="evenodd" fill="#302517" width="20" height="20"/>
<rect x="99.4" y="79.6" fill-rule="evenodd" clip-rule="evenodd" fill="#E5C7A1" width="20" height="20"/>
<rect x="119.5" y="79.6" fill-rule="evenodd" clip-rule="evenodd" fill="#E5C7A1" width="20" height="20"/>
<rect x="99.4" y="59.6" fill-rule="evenodd" clip-rule="evenodd" fill="#C9AE91" width="20" height="20"/>
<rect x="119.5" y="59.6" fill-rule="evenodd" clip-rule="evenodd" fill="#C9AE91" width="20" height="20"/>
<rect x="119.5" y="39.6" fill-rule="evenodd" clip-rule="evenodd" fill="#BF7940" width="20" height="20"/>
<rect x="99.4" y="39.6" fill-rule="evenodd" clip-rule="evenodd" fill="#BF7940" width="20" height="20"/>
<rect x="139.5" y="79.6" fill-rule="evenodd" clip-rule="evenodd" fill="#E5C7A1" width="20" height="20"/>
<rect x="139.5" y="59.6" fill-rule="evenodd" clip-rule="evenodd" fill="#C9AE91" width="20" height="20"/>
<rect x="139.5" y="39.6" fill-rule="evenodd" clip-rule="evenodd" fill="#BF7940" width="20" height="20"/>
<rect x="79.4" y="139.7" fill-rule="evenodd" clip-rule="evenodd" fill="#88D5FF" width="20" height="20"/>
<rect x="79.4" y="159.7" fill-rule="evenodd" clip-rule="evenodd" fill="#88D5FF" width="20" height="20"/>
<rect x="79.4" y="179.7" fill-rule="evenodd" clip-rule="evenodd" fill="#88D5FF" width="20" height="20"/>
<rect x="79.4" y="199.7" fill-rule="evenodd" clip-rule="evenodd" fill="#88D5FF" width="20" height="20"/>
<rect x="119.5" y="139.7" fill-rule="evenodd" clip-rule="evenodd" fill="#516872" width="20" height="20"/>
<rect x="119.5" y="159.7" fill-rule="evenodd" clip-rule="evenodd" fill="#516872" width="20" height="20"/>
<rect x="119.5" y="179.7" fill-rule="evenodd" clip-rule="evenodd" fill="#516872" width="20" height="20"/>
<rect x="119.5" y="199.7" fill-rule="evenodd" clip-rule="evenodd" fill="#516872" width="20" height="20"/>
<rect x="99.4" y="119.7" fill-rule="evenodd" clip-rule="evenodd" fill="#76BEDD" width="20" height="20"/>
<rect x="59.4" y="119.7" fill-rule="evenodd" clip-rule="evenodd" fill="#76BEDD" width="20" height="20"/>
<rect x="119.5" y="119.7" fill-rule="evenodd" clip-rule="evenodd" fill="#3E5056" width="20" height="20"/>
<rect x="139.5" y="119.7" fill-rule="evenodd" clip-rule="evenodd" fill="#76BEDD" width="20" height="20"/>
<rect x="79.4" y="219.8" fill-rule="evenodd" clip-rule="evenodd" fill="#88D5FF" width="20" height="20"/>
<rect x="119.5" y="219.8" fill-rule="evenodd" clip-rule="evenodd" fill="#516872" width="20" height="20"/>
<rect x="139.5" y="139.7" fill-rule="evenodd" clip-rule="evenodd" fill="#88D5FF" width="20" height="20"/>
<rect x="139.5" y="159.7" fill-rule="evenodd" clip-rule="evenodd" fill="#88D5FF" width="20" height="20"/>
<rect x="139.5" y="179.7" fill-rule="evenodd" clip-rule="evenodd" fill="#88D5FF" width="20" height="20"/>
<rect x="139.5" y="199.7" fill-rule="evenodd" clip-rule="evenodd" fill="#88D5FF" width="20" height="20"/>
<rect x="139.5" y="219.8" fill-rule="evenodd" clip-rule="evenodd" fill="#88D5FF" width="20" height="20"/>
<rect x="139.5" y="279.8" fill-rule="evenodd" clip-rule="evenodd" fill="#302517" width="20" height="20"/>
<rect x="139.5" y="299.8" fill-rule="evenodd" clip-rule="evenodd" fill="#A09087" width="20" height="20"/>
<rect x="139.5" y="319.8" fill-rule="evenodd" clip-rule="evenodd" fill="#7F7570" width="20" height="20"/>
<rect x="159.5" y="279.8" fill-rule="evenodd" clip-rule="evenodd" fill="#302517" width="20" height="20"/>
<rect x="159.5" y="299.8" fill-rule="evenodd" clip-rule="evenodd" fill="#A09087" width="20" height="20"/>
<rect x="159.5" y="319.8" fill-rule="evenodd" clip-rule="evenodd" fill="#A09087" width="20" height="20"/>
<rect x="99.4" y="279.8" fill-rule="evenodd" clip-rule="evenodd" fill="#302517" width="20" height="20"/>
<rect x="99.4" y="299.8" fill-rule="evenodd" clip-rule="evenodd" fill="#A09087" width="20" height="20"/>
<rect x="99.4" y="319.8" fill-rule="evenodd" clip-rule="evenodd" fill="#7F7570" width="20" height="20"/>
<rect x="119.5" y="279.8" fill-rule="evenodd" clip-rule="evenodd" fill="#302517" width="20" height="20"/>
<rect x="119.5" y="299.8" fill-rule="evenodd" clip-rule="evenodd" fill="#A09087" width="20" height="20"/>
<rect x="119.5" y="319.8" fill-rule="evenodd" clip-rule="evenodd" fill="#7F7570" width="20" height="20"/>
<rect x="59.4" y="319.8" fill-rule="evenodd" clip-rule="evenodd" fill="#7F7570" width="20" height="20"/>
<rect x="79.4" y="279.8" fill-rule="evenodd" clip-rule="evenodd" fill="#302517" width="20" height="20"/>
<rect x="79.4" y="299.8" fill-rule="evenodd" clip-rule="evenodd" fill="#A09087" width="20" height="20"/>
<rect x="79.4" y="319.8" fill-rule="evenodd" clip-rule="evenodd" fill="#7F7570" width="20" height="20"/>
<rect x="79.4" y="239.8" fill-rule="evenodd" clip-rule="evenodd" fill="#88D5FF" width="20" height="20"/>
<rect x="119.5" y="239.8" fill-rule="evenodd" clip-rule="evenodd" fill="#516872" width="20" height="20"/>
<rect x="139.5" y="239.8" fill-rule="evenodd" clip-rule="evenodd" fill="#88D5FF" width="20" height="20"/>
<rect x="79.4" y="259.8" fill-rule="evenodd" clip-rule="evenodd" fill="#88D5FF" width="20" height="20"/>
<rect x="119.5" y="259.8" fill-rule="evenodd" clip-rule="evenodd" fill="#76BEDD" width="20" height="20"/>
<rect x="139.5" y="259.8" fill-rule="evenodd" clip-rule="evenodd" fill="#88D5FF" width="20" height="20"/>
<rect x="159.5" y="239.8" fill-rule="evenodd" clip-rule="evenodd" fill="#88D5FF" width="20" height="20"/>
<rect x="159.5" y="259.8" fill-rule="evenodd" clip-rule="evenodd" fill="#88D5FF" width="20" height="20"/>
<rect x="159.5" y="219.8" fill-rule="evenodd" clip-rule="evenodd" fill="#88D5FF" width="20" height="20"/>
<rect x="159.5" y="199.7" fill-rule="evenodd" clip-rule="evenodd" fill="#88D5FF" width="20" height="20"/>
<rect x="159.5" y="179.7" fill-rule="evenodd" clip-rule="evenodd" fill="#88D5FF" width="20" height="20"/>
<rect x="159.5" y="139.7" fill-rule="evenodd" clip-rule="evenodd" fill="#88D5FF" width="20" height="20"/>
<rect x="159.5" y="159.7" fill-rule="evenodd" clip-rule="evenodd" fill="#88D5FF" width="20" height="20"/>
<rect x="159.5" y="119.7" fill-rule="evenodd" clip-rule="evenodd" fill="#88D5FF" width="20" height="20"/>
<rect x="99.4" y="99.6" fill-rule="evenodd" clip-rule="evenodd" fill="#E5C7A1" width="20" height="20"/>
<rect x="119.5" y="99.6" fill-rule="evenodd" clip-rule="evenodd" fill="#E5C7A1" width="20" height="20"/>
<rect x="139.5" y="99.6" fill-rule="evenodd" clip-rule="evenodd" fill="#E5C7A1" width="20" height="20"/>
<rect x="39.4" y="339.9" fill-rule="evenodd" clip-rule="evenodd" fill="#7F7570" width="20" height="20"/>
<rect x="39.4" y="359.9" fill-rule="evenodd" clip-rule="evenodd" fill="#7F7570" width="20" height="20"/>
<rect x="39.4" y="399.9" fill-rule="evenodd" clip-rule="evenodd" fill="#7F7570" width="20" height="20"/>
<rect x="39.4" y="419.9" fill-rule="evenodd" clip-rule="evenodd" fill="#7F7570" width="20" height="20"/>
<rect x="-0.6" y="439.9" fill-rule="evenodd" clip-rule="evenodd" fill="#302517" width="20" height="20"/>
<rect x="-0.6" y="480" fill-rule="evenodd" clip-rule="evenodd" fill="#302517" width="20" height="20"/>
<rect x="39.4" y="379.9" fill-rule="evenodd" clip-rule="evenodd" fill="#7F7570" width="20" height="20"/>
<rect x="-0.6" y="460" fill-rule="evenodd" clip-rule="evenodd" fill="#302517" width="20" height="20"/>
<rect x="59.4" y="199.7" fill-rule="evenodd" clip-rule="evenodd" fill="#C9AE91" width="20" height="20"/>
<rect x="59.4" y="219.8" fill-rule="evenodd" clip-rule="evenodd" fill="#C9AE91" width="20" height="20"/>
<rect x="59.4" y="239.8" fill-rule="evenodd" clip-rule="evenodd" fill="#C9AE91" width="20" height="20"/>
<rect x="59.4" y="259.8" fill-rule="evenodd" clip-rule="evenodd" fill="#C9AE91" width="20" height="20"/>
<rect x="59.4" y="279.8" fill-rule="evenodd" clip-rule="evenodd" fill="#C9AE91" width="20" height="20"/>
<rect x="59.4" y="299.8" fill-rule="evenodd" clip-rule="evenodd" fill="#C9AE91" width="20" height="20"/>
<rect x="39.4" y="319.8" fill-rule="evenodd" clip-rule="evenodd" fill="#7F7570" width="20" height="20"/>
<rect x="59.4" y="179.7" fill-rule="evenodd" clip-rule="evenodd" fill="#76BEDD" width="20" height="20"/>
<rect x="59.4" y="139.7" fill-rule="evenodd" clip-rule="evenodd" fill="#76BEDD" width="20" height="20"/>
<rect x="59.4" y="159.7" fill-rule="evenodd" clip-rule="evenodd" fill="#76BEDD" width="20" height="20"/>
<rect x="119.5" y="19.6" fill-rule="evenodd" clip-rule="evenodd" fill="#BF7940" width="20" height="20"/>
<rect x="99.4" y="139.7" fill-rule="evenodd" clip-rule="evenodd" fill="#88D5FF" width="20" height="20"/>
<rect x="99.4" y="159.7" fill-rule="evenodd" clip-rule="evenodd" fill="#88D5FF" width="20" height="20"/>
<rect x="99.4" y="179.7" fill-rule="evenodd" clip-rule="evenodd" fill="#88D5FF" width="20" height="20"/>
<rect x="99.4" y="199.7" fill-rule="evenodd" clip-rule="evenodd" fill="#88D5FF" width="20" height="20"/>
<rect x="99.4" y="219.8" fill-rule="evenodd" clip-rule="evenodd" fill="#88D5FF" width="20" height="20"/>
<rect x="99.4" y="239.8" fill-rule="evenodd" clip-rule="evenodd" fill="#88D5FF" width="20" height="20"/>
<rect x="99.4" y="259.8" fill-rule="evenodd" clip-rule="evenodd" fill="#88D5FF" width="20" height="20"/>
<rect x="79.4" y="99.6" fill-rule="evenodd" clip-rule="evenodd" fill="#76BEDD" width="20" height="20"/>
<rect x="79.4" y="119.7" fill-rule="evenodd" clip-rule="evenodd" fill="#88D5FF" width="20" height="20"/>
<rect x="39.4" y="439.9" fill-rule="evenodd" clip-rule="evenodd" fill="#7F7570" width="20" height="20"/>
<rect x="39.4" y="139.7" fill-rule="evenodd" clip-rule="evenodd" fill="#76BEDD" width="20" height="20"/>
<rect x="39.4" y="159.7" fill-rule="evenodd" clip-rule="evenodd" fill="#76BEDD" width="20" height="20"/>
<rect x="39.4" y="179.7" fill-rule="evenodd" clip-rule="evenodd" fill="#76BEDD" width="20" height="20"/>
<rect x="39.4" y="199.7" fill-rule="evenodd" clip-rule="evenodd" fill="#76BEDD" width="20" height="20"/>
<rect x="39.4" y="219.8" fill-rule="evenodd" clip-rule="evenodd" fill="#76BEDD" width="20" height="20"/>
<rect x="39.4" y="279.8" fill-rule="evenodd" clip-rule="evenodd" fill="#302517" width="20" height="20"/>
<rect x="39.4" y="299.8" fill-rule="evenodd" clip-rule="evenodd" fill="#7F7570" width="20" height="20"/>
<rect x="39.4" y="239.8" fill-rule="evenodd" clip-rule="evenodd" fill="#76BEDD" width="20" height="20"/>
<rect x="39.4" y="259.8" fill-rule="evenodd" clip-rule="evenodd" fill="#76BEDD" width="20" height="20"/>
</svg>
