<?xml version="1.0" encoding="utf-8"?>
<!-- Generator: Adobe Illustrator 17.1.0, SVG Export Plug-In . SVG Version: 6.00 Build 0)  -->
<!DOCTYPE svg PUBLIC "-//W3C//DTD SVG 1.1//EN" "http://www.w3.org/Graphics/SVG/1.1/DTD/svg11.dtd">
<svg version="1.1" id="Layer_1" class="Bill__2 is-hidden" xmlns="http://www.w3.org/2000/svg" xmlns:xlink="http://www.w3.org/1999/xlink" x="0px" y="0px"
	 width="240px" height="520px" viewBox="0 0 240 520" enable-background="new 0 0 240 520" xml:space="preserve">
<rect x="140.2" y="339.4" fill="#7F7570" width="20.1" height="20.1"/>
<rect x="140.2" y="359.4" fill="#7F7570" width="20.1" height="20.1"/>
<rect x="60" y="339.4" fill="#A09087" width="20.1" height="20.1"/>
<rect x="140.2" y="399.6" fill="#7F7570" width="20.1" height="20.1"/>
<rect x="140.2" y="419.6" fill="#7F7570" width="20.1" height="20.1"/>
<rect x="60" y="359.4" fill="#A09087" width="20.1" height="20.1"/>
<rect x="140.2" y="379.5" fill="#7F7570" width="20.1" height="20.1"/>
<rect x="140.2" y="439.7" fill="#7F7570" width="20.1" height="20.1"/>
<rect x="60" y="399.6" fill="#A09087" width="20.1" height="20.1"/>
<rect x="60" y="419.6" fill="#A09087" width="20.1" height="20.1"/>
<rect x="60" y="439.7" fill="#A09087" width="20.1" height="20.1"/>
<rect x="60" y="459.8" fill="#A09087" width="20.1" height="20.1"/>
<rect x="60" y="379.5" fill="#A09087" width="20.1" height="20.1"/>
<rect x="140.2" y="459.8" fill="#7F7570" width="20.1" height="20.1"/>
<rect x="60" y="479.8" fill="#A09087" width="20.1" height="20.1"/>
<rect x="140.2" y="479.8" fill="#7F7570" width="20.1" height="20.1"/>
<rect x="60" y="499.9" fill="#302517" width="20.1" height="20.1"/>
<rect x="160.3" y="339.4" fill="#A09087" width="20.1" height="20.1"/>
<rect x="160.3" y="359.4" fill="#A09087" width="20.1" height="20.1"/>
<rect x="160.3" y="399.6" fill="#A09087" width="20.1" height="20.1"/>
<rect x="160.3" y="419.6" fill="#A09087" width="20.1" height="20.1"/>
<rect x="160.3" y="439.7" fill="#A09087" width="20.1" height="20.1"/>
<rect x="160.3" y="459.8" fill="#A09087" width="20.1" height="20.1"/>
<rect x="160.3" y="499.9" fill="#302517" width="20.1" height="20.1"/>
<rect x="160.3" y="379.5" fill="#A09087" width="20.1" height="20.1"/>
<rect x="160.3" y="479.8" fill="#A09087" width="20.1" height="20.1"/>
<rect x="140.2" y="499.9" fill="#302517" width="20.1" height="20.1"/>
<rect x="100.1" y="58.5" fill="#E5C7A1" width="20.1" height="20.1"/>
<rect x="120.2" y="58.5" fill="#E5C7A1" width="20.1" height="20.1"/>
<rect x="100.1" y="38.5" fill="#C9AE91" width="20.1" height="20.1"/>
<rect x="120.2" y="38.5" fill="#C9AE91" width="20.1" height="20.1"/>
<rect x="120.2" y="18.4" fill="#BF7940" width="20.1" height="20.1"/>
<rect x="100.1" y="18.4" fill="#BF7940" width="20.1" height="20.1"/>
<rect x="140.2" y="58.5" fill="#E5C7A1" width="20.1" height="20.1"/>
<rect x="140.2" y="38.5" fill="#C9AE91" width="20.1" height="20.1"/>
<rect x="140.2" y="18.4" fill="#BF7940" width="20.1" height="20.1"/>
<rect x="80.1" y="118.7" fill="#88D5FF" width="20.1" height="20.1"/>
<rect x="60" y="118.7" fill="#88D5FF" width="20.1" height="20.1"/>
<rect x="80.1" y="138.8" fill="#88D5FF" width="20.1" height="20.1"/>
<rect x="80.1" y="158.8" fill="#88D5FF" width="20.1" height="20.1"/>
<rect x="60" y="138.8" fill="#88D5FF" width="20.1" height="20.1"/>
<rect x="60" y="158.8" fill="#88D5FF" width="20.1" height="20.1"/>
<rect x="80.1" y="178.9" fill="#88D5FF" width="20.1" height="20.1"/>
<rect x="60" y="178.9" fill="#88D5FF" width="20.1" height="20.1"/>
<rect x="120.2" y="118.7" fill="#516872" width="20.1" height="20.1"/>
<rect x="120.2" y="138.8" fill="#516872" width="20.1" height="20.1"/>
<rect x="120.2" y="158.8" fill="#516872" width="20.1" height="20.1"/>
<rect x="120.2" y="178.9" fill="#516872" width="20.1" height="20.1"/>
<rect x="100.1" y="98.6" fill="#76BEDD" width="20.1" height="20.1"/>
<rect x="60" y="98.6" fill="#76BEDD" width="20.1" height="20.1"/>
<rect x="120.2" y="98.6" fill="#3E5056" width="20.1" height="20.1"/>
<rect x="140.2" y="98.6" fill="#76BEDD" width="20.1" height="20.1"/>
<rect x="80.1" y="198.9" fill="#88D5FF" width="20.1" height="20.1"/>
<rect x="60" y="198.9" fill="#88D5FF" width="20.1" height="20.1"/>
<rect x="120.2" y="198.9" fill="#516872" width="20.1" height="20.1"/>
<rect x="140.2" y="118.7" fill="#88D5FF" width="20.1" height="20.1"/>
<rect x="140.2" y="138.8" fill="#88D5FF" width="20.1" height="20.1"/>
<rect x="140.2" y="158.8" fill="#88D5FF" width="20.1" height="20.1"/>
<rect x="140.2" y="178.9" fill="#88D5FF" width="20.1" height="20.1"/>
<rect x="140.2" y="198.9" fill="#88D5FF" width="20.1" height="20.1"/>
<rect x="180.4" y="178.9" fill="#D8BB91" width="20.1" height="20.1"/>
<rect x="180.4" y="198.9" fill="#D8BB91" width="20.1" height="20.1"/>
<rect x="180.4" y="219" fill="#D8BB91" width="20.1" height="20.1"/>
<rect x="180.4" y="158.8" fill="#88D5FF" width="20.1" height="20.1"/>
<rect x="180.4" y="138.8" fill="#88D5FF" width="20.1" height="20.1"/>
<rect x="180.4" y="239.1" fill="#D8BB91" width="20.1" height="20.1"/>
<rect x="180.4" y="259.1" fill="#D8BB91" width="20.1" height="20.1"/>
<rect x="180.4" y="279.2" fill="#D8BB91" width="20.1" height="20.1"/>
<rect x="140.2" y="279.2" fill="#302517" width="20.1" height="20.1"/>
<rect x="140.2" y="299.3" fill="#A09087" width="20.1" height="20.1"/>
<rect x="140.2" y="319.3" fill="#7F7570" width="20.1" height="20.1"/>
<rect x="160.3" y="279.2" fill="#302517" width="20.1" height="20.1"/>
<rect x="160.3" y="299.3" fill="#A09087" width="20.1" height="20.1"/>
<rect x="160.3" y="319.3" fill="#A09087" width="20.1" height="20.1"/>
<rect x="100.1" y="279.2" fill="#302517" width="20.1" height="20.1"/>
<rect x="100.1" y="299.3" fill="#A09087" width="20.1" height="20.1"/>
<rect x="100.1" y="319.3" fill="#7F7570" width="20.1" height="20.1"/>
<rect x="120.2" y="279.2" fill="#302517" width="20.1" height="20.1"/>
<rect x="120.2" y="299.3" fill="#A09087" width="20.1" height="20.1"/>
<rect x="120.2" y="319.3" fill="#7F7570" width="20.1" height="20.1"/>
<rect x="60" y="279.2" fill="#302517" width="20.1" height="20.1"/>
<rect x="60" y="299.3" fill="#A09087" width="20.1" height="20.1"/>
<rect x="60" y="319.3" fill="#A09087" width="20.1" height="20.1"/>
<rect x="80.1" y="279.2" fill="#302517" width="20.1" height="20.1"/>
<rect x="80.1" y="299.3" fill="#A09087" width="20.1" height="20.1"/>
<rect x="80.1" y="319.3" fill="#7F7570" width="20.1" height="20.1"/>
<rect x="80.1" y="219" fill="#88D5FF" width="20.1" height="20.1"/>
<rect x="60" y="219" fill="#88D5FF" width="20.1" height="20.1"/>
<rect x="120.2" y="219" fill="#516872" width="20.1" height="20.1"/>
<rect x="140.2" y="219" fill="#88D5FF" width="20.1" height="20.1"/>
<rect x="80.1" y="239.1" fill="#88D5FF" width="20.1" height="20.1"/>
<rect x="60" y="239.1" fill="#88D5FF" width="20.1" height="20.1"/>
<rect x="120.2" y="239.1" fill="#76BEDD" width="20.1" height="20.1"/>
<rect x="140.2" y="239.1" fill="#88D5FF" width="20.1" height="20.1"/>
<rect x="160.3" y="219" fill="#76BEDD" width="20.1" height="20.1"/>
<rect x="160.3" y="239.1" fill="#76BEDD" width="20.1" height="20.1"/>
<rect x="160.3" y="198.9" fill="#76BEDD" width="20.1" height="20.1"/>
<rect x="160.3" y="178.9" fill="#76BEDD" width="20.1" height="20.1"/>
<rect x="160.3" y="158.8" fill="#76BEDD" width="20.1" height="20.1"/>
<rect x="160.3" y="118.7" fill="#88D5FF" width="20.1" height="20.1"/>
<rect x="160.3" y="138.8" fill="#88D5FF" width="20.1" height="20.1"/>
<rect x="160.3" y="98.6" fill="#88D5FF" width="20.1" height="20.1"/>
<rect x="180.4" y="118.7" fill="#88D5FF" width="20.1" height="20.1"/>
<rect x="180.4" y="138.8" fill="#88D5FF" width="20.1" height="20.1"/>
<rect x="100.1" y="78.6" fill="#E5C7A1" width="20.1" height="20.1"/>
<rect x="120.2" y="78.6" fill="#E5C7A1" width="20.1" height="20.1"/>
<rect x="140.2" y="78.6" fill="#E5C7A1" width="20.1" height="20.1"/>
<rect x="39.9" y="339.4" fill="#7F7570" width="20.1" height="20.1"/>
<rect x="39.9" y="359.4" fill="#7F7570" width="20.1" height="20.1"/>
<rect x="39.9" y="399.6" fill="#7F7570" width="20.1" height="20.1"/>
<rect x="39.9" y="419.6" fill="#7F7570" width="20.1" height="20.1"/>
<rect x="39.9" y="439.7" fill="#7F7570" width="20.1" height="20.1"/>
<rect x="39.9" y="459.8" fill="#7F7570" width="20.1" height="20.1"/>
<rect x="39.9" y="499.9" fill="#302517" width="20.1" height="20.1"/>
<rect x="39.9" y="379.5" fill="#7F7570" width="20.1" height="20.1"/>
<rect x="39.9" y="479.8" fill="#7F7570" width="20.1" height="20.1"/>
<rect x="39.9" y="178.9" fill="#C9AE91" width="20.1" height="20.1"/>
<rect x="39.9" y="198.9" fill="#C9AE91" width="20.1" height="20.1"/>
<rect x="39.9" y="219" fill="#C9AE91" width="20.1" height="20.1"/>
<rect x="39.9" y="239.1" fill="#C9AE91" width="20.1" height="20.1"/>
<rect x="39.9" y="259.1" fill="#C9AE91" width="20.1" height="20.1"/>
<rect x="39.9" y="279.2" fill="#C9AE91" width="20.1" height="20.1"/>
<rect x="39.9" y="319.3" fill="#7F7570" width="20.1" height="20.1"/>
<rect x="39.9" y="158.8" fill="#76BEDD" width="20.1" height="20.1"/>
<rect x="39.9" y="118.7" fill="#76BEDD" width="20.1" height="20.1"/>
<rect x="39.9" y="138.8" fill="#76BEDD" width="20.1" height="20.1"/>
<rect x="120.2" y="-1.7" fill="#BF7940" width="20.1" height="20.1"/>
<rect x="100.1" y="118.7" fill="#88D5FF" width="20.1" height="20.1"/>
<rect x="100.1" y="138.8" fill="#88D5FF" width="20.1" height="20.1"/>
<rect x="100.1" y="158.8" fill="#88D5FF" width="20.1" height="20.1"/>
<rect x="100.1" y="178.9" fill="#88D5FF" width="20.1" height="20.1"/>
<rect x="100.1" y="198.9" fill="#88D5FF" width="20.1" height="20.1"/>
<rect x="100.1" y="219" fill="#88D5FF" width="20.1" height="20.1"/>
<rect x="100.1" y="239.1" fill="#88D5FF" width="20.1" height="20.1"/>
<rect x="80.1" y="98.6" fill="#88D5FF" width="20.1" height="20.1"/>
<rect x="80.1" y="259.1" fill="#88D5FF" width="20.1" height="20.1"/>
<rect x="60" y="259.1" fill="#88D5FF" width="20.1" height="20.1"/>
<rect x="120.2" y="259.1" fill="#76BEDD" width="20.1" height="20.1"/>
<rect x="140.2" y="259.1" fill="#88D5FF" width="20.1" height="20.1"/>
<rect x="160.3" y="259.1" fill="#76BEDD" width="20.1" height="20.1"/>
<rect x="100.1" y="259.1" fill="#88D5FF" width="20.1" height="20.1"/>
<rect x="39.9" y="299.3" fill="#7F7570" width="20.1" height="20.1"/>
</svg>
