<svg height="520" viewBox="-479 141 240 520" width="240" xmlns="http://www.w3.org/2000/svg"><g clip-rule="evenodd" fill-rule="evenodd"><path d="m-341.5 480.8h20v20h-20zm0 20h20v20h-20zm-59.1-20h20v20h-20zm59.1 60.1h20v20h-20zm0 20h20v20h-20zm-59.1-60.1h20v20h-20zm59.1 20.1h20v20h-20zm0 60h20v20h-20zm-39.1-60h20v20h-20zm-40 20h20v20h-20zm0 20h20v20h-20zm79.1 40h20v20h-20zm-79.1-20h20v20h-20zm79.1 40h20v20h-20z" fill="#7f7570"/><path d="m-321.5 480.8h20v20h-20zm0 20h20v20h-20zm0 40.1h20v20h-20zm0 20h20v20h-20zm0 20h20v20h-20zm0 20h20v20h-20z" fill="#a09087"/><path d="m-321.5 640.9h20v20h-20z" fill="#302517"/><path d="m-321.5 520.9h20v20h-20zm0 100h20v20h-20z" fill="#a09087"/><path d="m-341.5 640.9h20v20h-20z" fill="#302517"/><path d="m-381.6 220.6h20v20h-20zm20.1 0h20v20h-20z" fill="#e5c7a1"/><path d="m-381.6 200.6h20v20h-20zm20.1 0h20v20h-20z" fill="#c9ae91"/><path d="m-361.5 180.6h20v20h-20zm-20.1 0h20v20h-20z" fill="#bf7940"/><path d="m-341.5 220.6h20v20h-20z" fill="#e5c7a1"/><path d="m-341.5 200.6h20v20h-20z" fill="#c9ae91"/><path d="m-341.5 180.6h20v20h-20z" fill="#bf7940"/><path d="m-361.5 280.7h20v20h-20zm0 20h20v20h-20zm0 20h20v20h-20zm0 20h20v20h-20z" fill="#88d5ff"/><path d="m-381.6 260.7h20v20h-20z" fill="#76bedd"/><path d="m-400.6 260.7h20v20h-20zm39.1 0h20v20h-20z" fill="#76bedd"/><path d="m-341.5 260.7h20v20h-20z" fill="#3e5056"/><path d="m-361.5 360.7h20v20h-20z" fill="#88d5ff"/><path d="m-341.5 280.7h20v20h-20zm0 20h20v20h-20zm0 20h20v20h-20zm0 20h20v20h-20zm0 20h20v20h-20z" fill="#516872"/><path d="m-341.5 420.8h20v20h-20z" fill="#302517"/><path d="m-341.5 440.8h20v20h-20z" fill="#a09087"/><path d="m-341.5 460.8h20v20h-20z" fill="#7f7570"/><path d="m-321.5 420.8h20v20h-20z" fill="#302517"/><path d="m-321.5 440.8h20v20h-20zm0 20h20v20h-20z" fill="#a09087"/><path d="m-381.6 420.8h20v20h-20z" fill="#302517"/><path d="m-381.6 440.8h20v20h-20z" fill="#a09087"/><path d="m-381.6 460.8h20v20h-20z" fill="#7f7570"/><path d="m-361.5 420.8h20v20h-20z" fill="#302517"/><path d="m-361.5 440.8h20v20h-20z" fill="#a09087"/><path d="m-361.5 460.8h20v20h-20zm-39.1 0h20v20h-20z" fill="#7f7570"/><path d="m-361.5 380.8h20v20h-20z" fill="#88d5ff"/><path d="m-341.5 380.8h20v20h-20z" fill="#516872"/><path d="m-361.5 400.8h20v20h-20z" fill="#88d5ff"/><path d="m-341.5 400.8h20v20h-20z" fill="#76bedd"/><path d="m-321.5 380.8h20v20h-20zm0 20h20v20h-20zm0-40.1h20v20h-20zm0-20h20v20h-20zm0-20h20v20h-20zm0-40h20v20h-20zm0 20h20v20h-20z" fill="#88d5ff"/><path d="m-381.6 240.7h20v20h-20zm20.1 0h20v20h-20zm20 0h20v20h-20z" fill="#e5c7a1"/><path d="m-420.6 480.8h20v20h-20zm20 40.1h20v20h-20zm0 20h20v20h-20z" fill="#7f7570"/><path d="m-440.6 560.9h20v20h-20zm0 40h20v20h-20zm0-20h20v20h-20z" fill="#302517"/><path d="m-400.6 340.7h20v20h-20zm0 20h20v20h-20zm0 20.1h20v20h-20zm0 20h20v20h-20zm0 20h20v20h-20zm0 20h20v20h-20z" fill="#c9ae91"/><path d="m-420.6 460.8h20v20h-20z" fill="#7f7570"/><path d="m-400.6 320.7h20v20h-20zm0-40h20v20h-20zm0 20h20v20h-20z" fill="#76bedd"/><path d="m-361.5 160.6h20v20h-20z" fill="#bf7940"/><path d="m-381.6 280.7h20v20h-20zm0 20h20v20h-20zm0 20h20v20h-20zm0 20h20v20h-20zm0 20h20v20h-20zm0 20.1h20v20h-20zm0 20h20v20h-20z" fill="#88d5ff"/><path d="m-400.6 560.9h20v20h-20z" fill="#7f7570"/><path d="m-420.6 280.7h20v20h-20zm0 20h20v20h-20zm0 20h20v20h-20zm0 20h20v20h-20zm0 20h20v20h-20z" fill="#76bedd"/><path d="m-420.6 420.8h20v20h-20z" fill="#302517"/><path d="m-420.6 440.8h20v20h-20z" fill="#7f7570"/><path d="m-420.6 380.8h20v20h-20zm0 20h20v20h-20z" fill="#76bedd"/><path d="m-380.6 540.9h20v20h-20zm0-40.1h20v20h-20zm0-20h20v20h-20z" fill="#7f7570"/></g></svg>