<?xml version="1.0" encoding="utf-8"?>
<!-- Generator: Adobe Illustrator 18.1.1, SVG Export Plug-In . SVG Version: 6.00 Build 0)  -->
<!DOCTYPE svg PUBLIC "-//W3C//DTD SVG 1.1//EN" "http://www.w3.org/Graphics/SVG/1.1/DTD/svg11.dtd">
<svg version="1.1" id="Layer_1" xmlns="http://www.w3.org/2000/svg" xmlns:xlink="http://www.w3.org/1999/xlink" x="0px" y="0px"
	 width="240px" height="520px" viewBox="-479 141 240 520" enable-background="new -479 141 240 520" xml:space="preserve">
<polygon fill="none" points="-339,340 -359,340 -379,340 -379,341 -359,341 -339,341 -319,341 -299,341 -299,340 -319,340 "/>
<polygon fill="none" points="-379,360 -399,360 -419,360 -419,361 -399,361 -379,361 "/>
<rect x="-339" y="481" fill="#7F7570" width="20" height="20"/>
<rect x="-339" y="501" fill="#7F7570" width="20" height="20"/>
<rect x="-419" y="481" fill="#A09087" width="20" height="20"/>
<rect x="-339" y="541" fill="#7F7570" width="20" height="20"/>
<rect x="-339" y="561" fill="#7F7570" width="20" height="20"/>
<rect x="-419" y="501" fill="#A09087" width="20" height="20"/>
<rect x="-339" y="521" fill="#7F7570" width="20" height="20"/>
<rect x="-339" y="581" fill="#7F7570" width="20" height="20"/>
<rect x="-419" y="601" fill="#A09087" width="20" height="20"/>
<rect x="-419" y="581" fill="#A09087" width="20" height="20"/>
<rect x="-419" y="521" fill="#A09087" width="20" height="20"/>
<rect x="-419" y="541" fill="#A09087" width="20" height="20"/>
<rect x="-419" y="561" fill="#A09087" width="20" height="20"/>
<rect x="-339" y="601" fill="#7F7570" width="20" height="20"/>
<rect x="-419" y="621" fill="#A09087" width="20" height="20"/>
<rect x="-339" y="621" fill="#7F7570" width="20" height="20"/>
<rect x="-419" y="641" fill="#302517" width="20" height="20"/>
<rect x="-319" y="541" fill="#A09087" width="20" height="20"/>
<rect x="-319" y="481" fill="#A09087" width="20" height="20"/>
<rect x="-319" y="561" fill="#A09087" width="20" height="20"/>
<rect x="-319" y="601" fill="#A09087" width="20" height="20"/>
<rect x="-319" y="581" fill="#A09087" width="20" height="20"/>
<rect x="-319" y="501" fill="#A09087" width="20" height="20"/>
<rect x="-319" y="641" fill="#302517" width="20" height="20"/>
<rect x="-319" y="621" fill="#A09087" width="20" height="20"/>
<rect x="-319" y="521" fill="#A09087" width="20" height="20"/>
<rect x="-339" y="641" fill="#302517" width="20" height="20"/>
<rect x="-359" y="223" fill="#E5C7A1" width="20" height="20"/>
<rect x="-379" y="223" fill="#E5C7A1" width="20" height="20"/>
<rect x="-379" y="203" fill="#C9AE91" width="20" height="20"/>
<rect x="-359" y="203" fill="#C9AE91" width="20" height="20"/>
<rect x="-379" y="183" fill="#CE2811" width="20" height="20"/>
<rect x="-359" y="183" fill="#CE2811" width="20" height="20"/>
<rect x="-339" y="223" fill="#E5C7A1" width="20" height="20"/>
<rect x="-339" y="203" fill="#C9AE91" width="20" height="20"/>
<rect x="-339" y="183" fill="#CE2811" width="20" height="20"/>
<rect x="-399" y="322" fill="#CCFF97" width="20" height="19"/>
<rect x="-419" y="322" fill="#CCFF97" width="20" height="19"/>
<polygon fill="#CCFF97" points="-379,361 -379,342 -379,341 -399,341 -399,361 "/>
<rect x="-399" y="303" fill="#CCFF97" width="20" height="19"/>
<rect x="-419" y="341" fill="#CCFF97" width="20" height="20"/>
<rect x="-419" y="283" fill="#CCFF97" width="20" height="20"/>
<rect x="-419" y="303" fill="#CCFF97" width="20" height="19"/>
<rect x="-399" y="283" fill="#CCFF97" width="20" height="20"/>
<rect x="-359" y="303" fill="#516872" width="20" height="19"/>
<rect x="-359" y="322" fill="#516872" width="20" height="19"/>
<rect x="-359" y="341" fill="#516872" width="20" height="20"/>
<rect x="-359" y="283" fill="#516872" width="20" height="20"/>
<rect x="-379" y="263" fill="#B3E27D" width="20" height="20"/>
<rect x="-419" y="263" fill="#B3E27D" width="20" height="20"/>
<rect x="-359" y="263" fill="#3E5056" width="20" height="20"/>
<rect x="-339" y="263" fill="#B3E27D" width="20" height="20"/>
<polygon fill="#CCFF97" points="-399,361 -419,361 -419,380 -419,381 -399,381 "/>
<rect x="-399" y="361" fill="#CCFF97" width="20" height="20"/>
<rect x="-359" y="361" fill="#516872" width="20" height="20"/>
<rect x="-339" y="361" fill="#CCFF97" width="20" height="20"/>
<rect x="-339" y="283" fill="#CCFF97" width="20" height="20"/>
<rect x="-339" y="303" fill="#CCFF97" width="20" height="19"/>
<rect x="-339" y="341" fill="#CCFF97" width="20" height="20"/>
<rect x="-339" y="322" fill="#CCFF97" width="20" height="19"/>
<polygon fill="#D8BB91" points="-299,342 -299,361 -279,361 -279,341 -299,341 "/>
<rect x="-299" y="381" fill="#D8BB91" width="20" height="20"/>
<polygon fill="#D8BB91" points="-299,362 -299,381 -279,381 -279,361 -299,361 "/>
<rect x="-299" y="322" fill="#CCFF97" width="20" height="19"/>
<rect x="-299" y="441" fill="#D8BB91" width="20" height="20"/>
<rect x="-299" y="401" fill="#D8BB91" width="20" height="20"/>
<rect x="-299" y="421" fill="#D8BB91" width="20" height="20"/>
<rect x="-339" y="421" fill="#302517" width="20" height="20"/>
<rect x="-339" y="441" fill="#A09087" width="20" height="20"/>
<rect x="-339" y="461" fill="#7F7570" width="20" height="20"/>
<rect x="-319" y="421" fill="#302517" width="20" height="20"/>
<rect x="-319" y="441" fill="#A09087" width="20" height="20"/>
<rect x="-319" y="461" fill="#A09087" width="20" height="20"/>
<rect x="-379" y="421" fill="#302517" width="20" height="20"/>
<rect x="-379" y="441" fill="#A09087" width="20" height="20"/>
<rect x="-379" y="461" fill="#7F7570" width="20" height="20"/>
<rect x="-359" y="421" fill="#302517" width="20" height="20"/>
<rect x="-359" y="441" fill="#A09087" width="20" height="20"/>
<rect x="-359" y="461" fill="#7F7570" width="20" height="20"/>
<rect x="-419" y="421" fill="#302517" width="20" height="20"/>
<rect x="-419" y="461" fill="#A09087" width="20" height="20"/>
<rect x="-419" y="441" fill="#A09087" width="20" height="20"/>
<rect x="-399" y="421" fill="#302517" width="20" height="20"/>
<rect x="-399" y="441" fill="#A09087" width="20" height="20"/>
<rect x="-399" y="461" fill="#7F7570" width="20" height="20"/>
<rect x="-419" y="381" fill="#CCFF97" width="20" height="20"/>
<rect x="-399" y="381" fill="#CCFF97" width="20" height="20"/>
<rect x="-359" y="381" fill="#516872" width="20" height="20"/>
<rect x="-339" y="381" fill="#CCFF97" width="20" height="20"/>
<rect x="-399" y="401" fill="#CCFF97" width="20" height="20"/>
<rect x="-419" y="401" fill="#CCFF97" width="20" height="20"/>
<rect x="-359" y="401" fill="#B3E27D" width="20" height="20"/>
<rect x="-339" y="401" fill="#CCFF97" width="20" height="20"/>
<rect x="-319" y="381" fill="#B3E27D" width="20" height="20"/>
<rect x="-319" y="401" fill="#B3E27D" width="20" height="20"/>
<polygon fill="#B3E27D" points="-319,361 -299,361 -299,360 -299,341 -319,341 "/>
<rect x="-319" y="322" fill="#B3E27D" width="20" height="19"/>
<polygon fill="#B3E27D" points="-319,361 -319,381 -299,381 -299,380 -299,361 "/>
<rect x="-299" y="283" fill="#CCFF97" width="20" height="20"/>
<rect x="-319" y="263" fill="#CCFF97" width="20" height="20"/>
<rect x="-319" y="283" fill="#CCFF97" width="20" height="20"/>
<rect x="-319" y="303" fill="#CCFF97" width="20" height="19"/>
<rect x="-299" y="303" fill="#CCFF97" width="20" height="19"/>
<rect x="-379" y="243" fill="#E5C7A1" width="20" height="20"/>
<rect x="-359" y="243" fill="#E5C7A1" width="20" height="20"/>
<rect x="-339" y="243" fill="#E5C7A1" width="20" height="20"/>
<rect x="-439" y="581" fill="#7F7570" width="20" height="20"/>
<rect x="-439" y="561" fill="#7F7570" width="20" height="20"/>
<rect x="-439" y="501" fill="#7F7570" width="20" height="20"/>
<rect x="-439" y="481" fill="#7F7570" width="20" height="20"/>
<rect x="-439" y="541" fill="#7F7570" width="20" height="20"/>
<rect x="-439" y="601" fill="#7F7570" width="20" height="20"/>
<rect x="-439" y="641" fill="#302517" width="20" height="20"/>
<rect x="-439" y="621" fill="#7F7570" width="20" height="20"/>
<rect x="-439" y="521" fill="#7F7570" width="20" height="20"/>
<rect x="-439" y="341" fill="#C9AE91" width="20" height="20"/>
<rect x="-439" y="381" fill="#C9AE91" width="20" height="20"/>
<polygon fill="#C9AE91" points="-419,361 -439,361 -439,381 -419,381 -419,362 "/>
<rect x="-439" y="401" fill="#C9AE91" width="20" height="20"/>
<rect x="-439" y="421" fill="#C9AE91" width="20" height="20"/>
<rect x="-439" y="441" fill="#C9AE91" width="20" height="20"/>
<rect x="-439" y="461" fill="#7F7570" width="20" height="20"/>
<rect x="-439" y="283" fill="#B3E27D" width="20" height="20"/>
<rect x="-439" y="322" fill="#B3E27D" width="20" height="19"/>
<rect x="-439" y="303" fill="#B3E27D" width="20" height="19"/>
<rect x="-359" y="163" fill="#CE2811" width="20" height="20"/>
<rect x="-379" y="322" fill="#CCFF97" width="20" height="19"/>
<rect x="-379" y="401" fill="#CCFF97" width="20" height="20"/>
<rect x="-379" y="381" fill="#CCFF97" width="20" height="20"/>
<rect x="-379" y="361" fill="#CCFF97" width="20" height="20"/>
<rect x="-379" y="303" fill="#CCFF97" width="20" height="19"/>
<rect x="-379" y="283" fill="#CCFF97" width="20" height="20"/>
<polygon fill="#CCFF97" points="-379,361 -359,361 -359,341 -379,341 -379,360 "/>
<rect x="-399" y="243" fill="#B3E27D" width="20" height="20"/>
<rect x="-399" y="263" fill="#CCFF97" width="20" height="20"/>
</svg>
