<svg class="Bill__4 is-hidden" xmlns="http://www.w3.org/2000/svg" width="240" height="520" viewBox="0 0 240 520"><g fill-rule="evenodd" clip-rule="evenodd"><path fill="#7F7570" d="M119.3 340.9h20.1v20h-20.1zm0 20.1h20.1v20.1h-20.1zm0 40.1h20.1v20.1h-20.1z"/><path fill="#7F7570" d="M119.3 421.1h20.1v20h-20.1zm0-40.1h20.1v20h-20.1zm0 60.2h20.1v20.1h-20.1zM99.2 361h20v20.1h-20z"/><path fill="#7F7570" d="M99.2 381h20v20h-20zm0 20.1h20v20.1h-20zm20.1 60.1h20.1v20h-20.1z"/><path fill="#7F7570" d="M99.2 421.1h20v20h-20zm0 60.2h20v20h-20zm40.1-140.4h20v20h-20zm0 20.1h20v20.1h-20z"/><path fill="#A09087" d="M139.3 401.1h20v20.1h-20z"/><path fill="#A09087" d="M139.3 421.1h20v20h-20zm0 20.1h20v20.1h-20z"/><path fill="#A09087" d="M139.3 461.2h20v20h-20z"/><path fill="#302517" d="M119.3 501.3h20.1v20.1h-20.1z"/><path fill="#7F7570" d="M139.3 381h20v20h-20z"/><path fill="#A09087" d="M119.3 481.3h20.1v20h-20.1z"/><path fill="#302517" d="M99.2 501.3h20v20.1h-20z"/><path fill="#C9AE91" d="M99.2 80.3h20v20h-20z"/><path fill="#E5C7A1" d="M119.3 80.3h20.1v20h-20.1z"/><path fill="#C9AE91" d="M99.2 60.3h20v20h-20zm20.1 0h20.1v20h-20.1z"/><path fill="#BF7940" d="M119.3 40.2h20.1v20h-20.1zm-20.1 0h20v20h-20z"/><path fill="#E5C7A1" d="M139.3 80.3h20v20h-20z"/><path fill="#C9AE91" d="M139.3 60.3h20v20h-20z"/><path fill="#BF7940" d="M139.3 40.2h20v20h-20z"/><path fill="#88D5FF" d="M119.3 140.4h20.1v20.1h-20.1zm0 20.1h20.1v20h-20.1zm0 20h20.1v20.1h-20.1zm0 20.1h20.1v20h-20.1z"/><path fill="#516872" d="M139.3 140.4h20v20.1h-20zm0 20.1h20v20h-20zm0 20h20v20.1h-20zm0 20.1h20v20h-20z"/><path fill="#76BEDD" d="M119.3 120.4h20.1v20h-20.1zm-60.2 0h20v20h-20z"/><path fill="#3E5056" d="M139.3 120.4h20v20h-20z"/><path fill="#76BEDD" d="M79.2 120.4h20.1v20H79.2z"/><path fill="#88D5FF" d="M119.3 220.6h20.1v20h-20.1z"/><path fill="#516872" d="M139.3 220.6h20v20h-20z"/><path fill="#76BEDD" d="M79.2 140.4h20.1v20.1H79.2zm0 20.1h20.1v20H79.2zm0 20h20.1v20.1H79.2zm0 20.1h20.1v20H79.2zm0 20h20.1v20H79.2z"/><path fill="#302517" d="M79.2 280.8h20.1v20H79.2z"/><path fill="#7F7570" d="M79.2 300.8h20.1v20H79.2z"/><path fill="#A09087" d="M139.3 320.9h20v20h-20z"/><path fill="#302517" d="M139.3 280.8h20v20h-20z"/><path fill="#A09087" d="M139.3 300.8h20v20h-20z"/><path fill="#7F7570" d="M119.3 320.9h20.1v20h-20.1zm-40.1 0h20.1v20H79.2z"/><path fill="#302517" d="M119.3 280.8h20.1v20h-20.1z"/><path fill="#A09087" d="M119.3 300.8h20.1v20h-20.1z"/><path fill="#7F7570" d="M99.2 320.9h20v20h-20z"/><path fill="#88D5FF" d="M119.3 240.7h20.1v20.1h-20.1z"/><path fill="#516872" d="M139.3 240.7h20v20.1h-20z"/><path fill="#76BEDD" d="M79.2 240.7h20.1v20.1H79.2z"/><path fill="#88D5FF" d="M119.3 260.7h20.1v20.1h-20.1z"/><path fill="#76BEDD" d="M139.3 260.7h20v20.1h-20zm-60.1 0h20.1v20.1H79.2z"/><path fill="#C9AE91" d="M99.2 100.4h20v20h-20z"/><path fill="#E5C7A1" d="M119.3 100.4h20.1v20h-20.1z"/><path fill="#E5C7A1" d="M139.3 100.4h20v20h-20z"/><path fill="#302517" d="M79.2 401.1h20.1v20.1H79.2zm0 40.1h20.1v20.1H79.2z"/><path fill="#302517" d="M79.2 421.1h20.1v20H79.2z"/><path fill="#C9AE91" d="M99.2 200.6h20v20h-20zm0 20h20v20h-20zm0 20.1h20v20.1h-20z"/><path fill="#C9AE91" d="M99.2 260.7h20v20.1h-20zm0 20.1h20v20h-20zm0 20h20v20h-20z"/><path fill="#7F7570" d="M59.1 320.9h20v20h-20z"/><path fill="#76BEDD" d="M99.2 180.5h20v20.1h-20zm0-40.1h20v20.1h-20zm0 20.1h20v20h-20z"/><path fill="#BF7940" d="M119.3 20.2h20.1v20h-20.1z"/><path fill="#76BEDD" d="M79.2 100.4h20.1v20H79.2zm20 20h20v20h-20zm-40.1 20h20v20.1h-20zm0 20.1h20v20h-20zm0 20h20v20.1h-20zm0 20.1h20v20h-20zm0 20h20v20h-20z"/><path fill="#302517" d="M59.1 280.8h20v20h-20z"/><path fill="#7F7570" d="M59.1 300.8h20v20h-20z"/><path fill="#76BEDD" d="M59.1 240.7h20v20.1h-20z"/><path fill="#76BEDD" d="M59.1 260.7h20v20.1h-20z"/><path fill="#7F7570" d="M99.2 340.9h20v20h-20z"/><path fill="#7F7570" d="M79.2 340.9h20.1v20H79.2zm80.2 20.1h20v20.1h-20z"/></g></svg>