<?xml version="1.0" encoding="utf-8"?>
<!-- Generator: Adobe Illustrator 17.1.0, SVG Export Plug-In . SVG Version: 6.00 Build 0)  -->
<!DOCTYPE svg PUBLIC "-//W3C//DTD SVG 1.1//EN" "http://www.w3.org/Graphics/SVG/1.1/DTD/svg11.dtd">
<svg version="1.1" id="Layer_1" class="Bill__5 is-hidden" xmlns="http://www.w3.org/2000/svg" xmlns:xlink="http://www.w3.org/1999/xlink" x="0px" y="0px"
	 width="240px" height="520px" viewBox="0 0 240 520" enable-background="new 0 0 240 520" xml:space="preserve">
<g>
	<rect x="119.8" y="340.3" fill-rule="evenodd" clip-rule="evenodd" fill="#7F7570" width="20" height="20"/>
	<rect x="119.8" y="360.3" fill-rule="evenodd" clip-rule="evenodd" fill="#7F7570" width="20" height="20"/>
	<rect x="59.9" y="340.3" fill-rule="evenodd" clip-rule="evenodd" fill="#7F7570" width="20" height="20"/>
	<rect x="119.8" y="400.2" fill-rule="evenodd" clip-rule="evenodd" fill="#7F7570" width="20" height="20"/>
	<rect x="119.8" y="420.2" fill-rule="evenodd" clip-rule="evenodd" fill="#7F7570" width="20" height="20"/>
	<rect x="59.9" y="360.3" fill-rule="evenodd" clip-rule="evenodd" fill="#7F7570" width="20" height="20"/>
	<rect x="119.8" y="380.2" fill-rule="evenodd" clip-rule="evenodd" fill="#7F7570" width="20" height="20"/>
	<rect x="119.8" y="440.1" fill-rule="evenodd" clip-rule="evenodd" fill="#7F7570" width="20" height="20"/>
	<rect x="59.9" y="400.2" fill-rule="evenodd" clip-rule="evenodd" fill="#7F7570" width="20" height="20"/>
	<rect x="20" y="420.2" fill-rule="evenodd" clip-rule="evenodd" fill="#7F7570" width="20" height="20"/>
	<rect x="20" y="440.1" fill-rule="evenodd" clip-rule="evenodd" fill="#7F7570" width="20" height="20"/>
	<rect x="59.9" y="380.2" fill-rule="evenodd" clip-rule="evenodd" fill="#7F7570" width="20" height="20"/>
	<rect x="119.8" y="460.1" fill-rule="evenodd" clip-rule="evenodd" fill="#7F7570" width="20" height="20"/>
	<rect x="20" y="460.1" fill-rule="evenodd" clip-rule="evenodd" fill="#7F7570" width="20" height="20"/>
	<rect x="119.8" y="480.1" fill-rule="evenodd" clip-rule="evenodd" fill="#7F7570" width="20" height="20"/>
	<rect x="139.8" y="340.3" fill-rule="evenodd" clip-rule="evenodd" fill="#A09087" width="20" height="20"/>
	<rect x="139.8" y="360.3" fill-rule="evenodd" clip-rule="evenodd" fill="#A09087" width="20" height="20"/>
	<rect x="139.8" y="400.2" fill-rule="evenodd" clip-rule="evenodd" fill="#A09087" width="20" height="20"/>
	<rect x="139.8" y="420.2" fill-rule="evenodd" clip-rule="evenodd" fill="#A09087" width="20" height="20"/>
	<rect x="139.8" y="440.1" fill-rule="evenodd" clip-rule="evenodd" fill="#A09087" width="20" height="20"/>
	<rect x="139.8" y="460.1" fill-rule="evenodd" clip-rule="evenodd" fill="#A09087" width="20" height="20"/>
	<rect x="139.8" y="500" fill-rule="evenodd" clip-rule="evenodd" fill="#302517" width="20" height="20"/>
	<rect x="139.8" y="380.2" fill-rule="evenodd" clip-rule="evenodd" fill="#A09087" width="20" height="20"/>
	<rect x="139.8" y="480.1" fill-rule="evenodd" clip-rule="evenodd" fill="#A09087" width="20" height="20"/>
	<rect x="119.8" y="500" fill-rule="evenodd" clip-rule="evenodd" fill="#302517" width="20" height="20"/>
	<rect x="99.8" y="80.8" fill-rule="evenodd" clip-rule="evenodd" fill="#C9AE91" width="20" height="20"/>
	<rect x="119.8" y="80.8" fill-rule="evenodd" clip-rule="evenodd" fill="#C9AE91" width="20" height="20"/>
	<rect x="99.8" y="60.8" fill-rule="evenodd" clip-rule="evenodd" fill="#C9AE91" width="20" height="20"/>
	<rect x="119.8" y="60.8" fill-rule="evenodd" clip-rule="evenodd" fill="#C9AE91" width="20" height="20"/>
	<rect x="119.8" y="40.8" fill-rule="evenodd" clip-rule="evenodd" fill="#BF7940" width="20" height="20"/>
	<rect x="99.8" y="40.8" fill-rule="evenodd" clip-rule="evenodd" fill="#BF7940" width="20" height="20"/>
	<rect x="139.8" y="80.8" fill-rule="evenodd" clip-rule="evenodd" fill="#E5C7A1" width="20" height="20"/>
	<rect x="139.8" y="60.8" fill-rule="evenodd" clip-rule="evenodd" fill="#C9AE91" width="20" height="20"/>
	<rect x="139.8" y="40.8" fill-rule="evenodd" clip-rule="evenodd" fill="#BF7940" width="20" height="20"/>
	<rect x="139.8" y="140.7" fill-rule="evenodd" clip-rule="evenodd" fill="#516872" width="20" height="20"/>
	<rect x="139.8" y="160.6" fill-rule="evenodd" clip-rule="evenodd" fill="#516872" width="20" height="20"/>
	<rect x="139.8" y="180.6" fill-rule="evenodd" clip-rule="evenodd" fill="#516872" width="20" height="20"/>
	<rect x="139.8" y="200.6" fill-rule="evenodd" clip-rule="evenodd" fill="#516872" width="20" height="20"/>
	<rect x="99.8" y="120.7" fill-rule="evenodd" clip-rule="evenodd" fill="#76BEDD" width="20" height="20"/>
	<rect x="139.8" y="120.7" fill-rule="evenodd" clip-rule="evenodd" fill="#3E5056" width="20" height="20"/>
	<rect x="139.8" y="220.5" fill-rule="evenodd" clip-rule="evenodd" fill="#516872" width="20" height="20"/>
	<rect x="119.8" y="280.4" fill-rule="evenodd" clip-rule="evenodd" fill="#C9AE91" width="20" height="20"/>
	<rect x="119.8" y="300.4" fill-rule="evenodd" clip-rule="evenodd" fill="#7F7570" width="20" height="20"/>
	<rect x="119.8" y="320.3" fill-rule="evenodd" clip-rule="evenodd" fill="#7F7570" width="20" height="20"/>
	<rect x="139.8" y="280.4" fill-rule="evenodd" clip-rule="evenodd" fill="#302517" width="20" height="20"/>
	<rect x="139.8" y="300.4" fill-rule="evenodd" clip-rule="evenodd" fill="#A09087" width="20" height="20"/>
	<rect x="139.8" y="320.3" fill-rule="evenodd" clip-rule="evenodd" fill="#A09087" width="20" height="20"/>
	<rect x="79.9" y="280.4" fill-rule="evenodd" clip-rule="evenodd" fill="#302517" width="20" height="20"/>
	<rect x="79.9" y="300.4" fill-rule="evenodd" clip-rule="evenodd" fill="#7F7570" width="20" height="20"/>
	<rect x="79.9" y="320.3" fill-rule="evenodd" clip-rule="evenodd" fill="#7F7570" width="20" height="20"/>
	<rect x="99.8" y="280.4" fill-rule="evenodd" clip-rule="evenodd" fill="#302517" width="20" height="20"/>
	<rect x="99.8" y="300.4" fill-rule="evenodd" clip-rule="evenodd" fill="#7F7570" width="20" height="20"/>
	<rect x="99.8" y="320.3" fill-rule="evenodd" clip-rule="evenodd" fill="#7F7570" width="20" height="20"/>
	<rect x="59.9" y="320.3" fill-rule="evenodd" clip-rule="evenodd" fill="#7F7570" width="20" height="20"/>
	<rect x="139.8" y="240.5" fill-rule="evenodd" clip-rule="evenodd" fill="#516872" width="20" height="20"/>
	<rect x="139.8" y="260.4" fill-rule="evenodd" clip-rule="evenodd" fill="#88D5FF" width="20" height="20"/>
	<rect x="99.8" y="100.7" fill-rule="evenodd" clip-rule="evenodd" fill="#C9AE91" width="20" height="20"/>
	<rect x="119.8" y="100.7" fill-rule="evenodd" clip-rule="evenodd" fill="#C9AE91" width="20" height="20"/>
	<rect x="139.8" y="100.7" fill-rule="evenodd" clip-rule="evenodd" fill="#E5C7A1" width="20" height="20"/>
	<rect x="39.9" y="340.3" fill-rule="evenodd" clip-rule="evenodd" fill="#7F7570" width="20" height="20"/>
	<rect x="39.9" y="360.3" fill-rule="evenodd" clip-rule="evenodd" fill="#7F7570" width="20" height="20"/>
	<rect x="39.9" y="400.2" fill-rule="evenodd" clip-rule="evenodd" fill="#7F7570" width="20" height="20"/>
	<rect x="39.9" y="420.2" fill-rule="evenodd" clip-rule="evenodd" fill="#7F7570" width="20" height="20"/>
	<rect x="0" y="440.1" fill-rule="evenodd" clip-rule="evenodd" fill="#302517" width="20" height="20"/>
	<rect x="0" y="480.1" fill-rule="evenodd" clip-rule="evenodd" fill="#302517" width="20" height="20"/>
	<rect x="39.9" y="380.2" fill-rule="evenodd" clip-rule="evenodd" fill="#7F7570" width="20" height="20"/>
	<rect x="0" y="460.1" fill-rule="evenodd" clip-rule="evenodd" fill="#302517" width="20" height="20"/>
	<rect x="99.8" y="200.6" fill-rule="evenodd" clip-rule="evenodd" fill="#C9AE91" width="20" height="20"/>
	<rect x="99.8" y="220.5" fill-rule="evenodd" clip-rule="evenodd" fill="#C9AE91" width="20" height="20"/>
	<rect x="99.8" y="240.5" fill-rule="evenodd" clip-rule="evenodd" fill="#C9AE91" width="20" height="20"/>
	<rect x="99.8" y="260.4" fill-rule="evenodd" clip-rule="evenodd" fill="#76BEDD" width="20" height="20"/>
	<rect x="59.9" y="280.4" fill-rule="evenodd" clip-rule="evenodd" fill="#302517" width="20" height="20"/>
	<rect x="59.9" y="300.4" fill-rule="evenodd" clip-rule="evenodd" fill="#7F7570" width="20" height="20"/>
	<rect x="39.9" y="320.3" fill-rule="evenodd" clip-rule="evenodd" fill="#7F7570" width="20" height="20"/>
	<rect x="99.8" y="180.6" fill-rule="evenodd" clip-rule="evenodd" fill="#76BEDD" width="20" height="20"/>
	<rect x="99.8" y="140.7" fill-rule="evenodd" clip-rule="evenodd" fill="#76BEDD" width="20" height="20"/>
	<rect x="99.8" y="160.6" fill-rule="evenodd" clip-rule="evenodd" fill="#76BEDD" width="20" height="20"/>
	<rect x="119.8" y="20.9" fill-rule="evenodd" clip-rule="evenodd" fill="#BF7940" width="20" height="20"/>
	<rect x="79.9" y="100.7" fill-rule="evenodd" clip-rule="evenodd" fill="#76BEDD" width="20" height="20"/>
	<rect x="39.9" y="440.1" fill-rule="evenodd" clip-rule="evenodd" fill="#7F7570" width="20" height="20"/>
	<rect x="39.9" y="160.6" fill-rule="evenodd" clip-rule="evenodd" fill="#76BEDD" width="20" height="20"/>
	<rect x="39.9" y="180.6" fill-rule="evenodd" clip-rule="evenodd" fill="#76BEDD" width="20" height="20"/>
	<rect x="39.9" y="200.6" fill-rule="evenodd" clip-rule="evenodd" fill="#76BEDD" width="20" height="20"/>
	<rect x="39.9" y="220.5" fill-rule="evenodd" clip-rule="evenodd" fill="#76BEDD" width="20" height="20"/>
	<rect x="39.9" y="280.4" fill-rule="evenodd" clip-rule="evenodd" fill="#302517" width="20" height="20"/>
	<rect x="39.9" y="300.4" fill-rule="evenodd" clip-rule="evenodd" fill="#7F7570" width="20" height="20"/>
	<rect x="39.9" y="240.5" fill-rule="evenodd" clip-rule="evenodd" fill="#76BEDD" width="20" height="20"/>
	<rect x="39.9" y="260.4" fill-rule="evenodd" clip-rule="evenodd" fill="#76BEDD" width="20" height="20"/>
	<rect x="59.9" y="140.7" fill-rule="evenodd" clip-rule="evenodd" fill="#76BEDD" width="20" height="20"/>
	<rect x="59.9" y="160.6" fill-rule="evenodd" clip-rule="evenodd" fill="#76BEDD" width="20" height="20"/>
	<rect x="59.9" y="180.6" fill-rule="evenodd" clip-rule="evenodd" fill="#76BEDD" width="20" height="20"/>
	<rect x="59.9" y="200.6" fill-rule="evenodd" clip-rule="evenodd" fill="#76BEDD" width="20" height="20"/>
	<rect x="59.9" y="220.5" fill-rule="evenodd" clip-rule="evenodd" fill="#76BEDD" width="20" height="20"/>
	<rect x="59.9" y="240.5" fill-rule="evenodd" clip-rule="evenodd" fill="#76BEDD" width="20" height="20"/>
	<rect x="59.9" y="260.4" fill-rule="evenodd" clip-rule="evenodd" fill="#76BEDD" width="20" height="20"/>
	<rect x="79.9" y="140.7" fill-rule="evenodd" clip-rule="evenodd" fill="#76BEDD" width="20" height="20"/>
	<rect x="79.9" y="160.6" fill-rule="evenodd" clip-rule="evenodd" fill="#76BEDD" width="20" height="20"/>
	<rect x="79.9" y="180.6" fill-rule="evenodd" clip-rule="evenodd" fill="#76BEDD" width="20" height="20"/>
	<rect x="79.9" y="200.6" fill-rule="evenodd" clip-rule="evenodd" fill="#76BEDD" width="20" height="20"/>
	<rect x="79.9" y="220.5" fill-rule="evenodd" clip-rule="evenodd" fill="#76BEDD" width="20" height="20"/>
	<rect x="79.9" y="240.5" fill-rule="evenodd" clip-rule="evenodd" fill="#76BEDD" width="20" height="20"/>
	<rect x="79.9" y="260.4" fill-rule="evenodd" clip-rule="evenodd" fill="#76BEDD" width="20" height="20"/>
	<rect x="119.8" y="220.5" fill-rule="evenodd" clip-rule="evenodd" fill="#88D5FF" width="20" height="20"/>
	<rect x="119.8" y="240.5" fill-rule="evenodd" clip-rule="evenodd" fill="#88D5FF" width="20" height="20"/>
	<rect x="119.8" y="200.6" fill-rule="evenodd" clip-rule="evenodd" fill="#88D5FF" width="20" height="20"/>
	<rect x="119.8" y="180.6" fill-rule="evenodd" clip-rule="evenodd" fill="#88D5FF" width="20" height="20"/>
	<rect x="119.8" y="160.6" fill-rule="evenodd" clip-rule="evenodd" fill="#88D5FF" width="20" height="20"/>
	<rect x="119.8" y="120.7" fill-rule="evenodd" clip-rule="evenodd" fill="#76BEDD" width="20" height="20"/>
	<rect x="119.8" y="140.7" fill-rule="evenodd" clip-rule="evenodd" fill="#88D5FF" width="20" height="20"/>
	<rect x="119.8" y="260.4" fill-rule="evenodd" clip-rule="evenodd" fill="#C9AE91" width="20" height="20"/>
	<rect x="79.9" y="120.7" fill-rule="evenodd" clip-rule="evenodd" fill="#76BEDD" width="20" height="20"/>
	<rect x="59.9" y="120.7" fill-rule="evenodd" clip-rule="evenodd" fill="#76BEDD" width="20" height="20"/>
</g>
</svg>
