<svg class="Bill__5 is-hidden" xmlns="http://www.w3.org/2000/svg" width="240" height="520" viewBox="0 0 240 520"><g fill-rule="evenodd" clip-rule="evenodd"><path fill="#7F7570" d="M119.8 340.3h20v20h-20zm0 20h20v20h-20zm-59.9-20h20v20h-20zm59.9 59.9h20v20h-20zm0 20h20v20h-20zm-59.9-59.9h20v20h-20z"/><path fill="#7F7570" d="M119.8 380.2h20v20h-20zm0 59.9h20v20h-20zm-59.9-39.9h20v20h-20zm-39.9 20h20v20H20z"/><path fill="#7F7570" d="M20 440.1h20v20H20zm39.9-59.9h20v20h-20zm59.9 79.9h20v20h-20zm-99.8 0h20v20H20zm99.8 20h20v20h-20z"/><path fill="#A09087" d="M139.8 340.3h20v20h-20zm0 20h20v20h-20zm0 39.9h20v20h-20zm0 20h20v20h-20z"/><path fill="#A09087" d="M139.8 440.1h20v20h-20zm0 20h20v20h-20z"/><path fill="#302517" d="M139.8 500h20v20h-20z"/><path fill="#A09087" d="M139.8 380.2h20v20h-20zm0 99.9h20v20h-20z"/><path fill="#302517" d="M119.8 500h20v20h-20z"/><path fill="#C9AE91" d="M99.8 80.8h20v20h-20zm20 0h20v20h-20zm-20-20h20v20h-20zm20 0h20v20h-20z"/><path fill="#BF7940" d="M119.8 40.8h20v20h-20zm-20 0h20v20h-20z"/><path fill="#E5C7A1" d="M139.8 80.8h20v20h-20z"/><path fill="#C9AE91" d="M139.8 60.8h20v20h-20z"/><path fill="#BF7940" d="M139.8 40.8h20v20h-20z"/><path fill="#516872" d="M139.8 140.7h20v20h-20z"/><path fill="#516872" d="M139.8 160.6h20v20h-20zm0 20h20v20h-20zm0 20h20v20h-20z"/><path fill="#76BEDD" d="M99.8 120.7h20v20h-20z"/><path fill="#3E5056" d="M139.8 120.7h20v20h-20z"/><path fill="#516872" d="M139.8 220.5h20v20h-20z"/><path fill="#C9AE91" d="M119.8 280.4h20v20h-20z"/><path fill="#7F7570" d="M119.8 300.4h20v20h-20z"/><path fill="#7F7570" d="M119.8 320.3h20v20h-20z"/><path fill="#302517" d="M139.8 280.4h20v20h-20z"/><path fill="#A09087" d="M139.8 300.4h20v20h-20z"/><path fill="#A09087" d="M139.8 320.3h20v20h-20z"/><path fill="#302517" d="M79.9 280.4h20v20h-20z"/><path fill="#7F7570" d="M79.9 300.4h20v20h-20z"/><path fill="#7F7570" d="M79.9 320.3h20v20h-20z"/><path fill="#302517" d="M99.8 280.4h20v20h-20z"/><path fill="#7F7570" d="M99.8 300.4h20v20h-20z"/><path fill="#7F7570" d="M99.8 320.3h20v20h-20zm-39.9 0h20v20h-20z"/><path fill="#516872" d="M139.8 240.5h20v20h-20z"/><path fill="#88D5FF" d="M139.8 260.4h20v20h-20z"/><path fill="#C9AE91" d="M99.8 100.7h20v20h-20zm20 0h20v20h-20z"/><path fill="#E5C7A1" d="M139.8 100.7h20v20h-20z"/><path fill="#7F7570" d="M39.9 340.3h20v20h-20zm0 20h20v20h-20zm0 39.9h20v20h-20zm0 20h20v20h-20z"/><path fill="#302517" d="M0 440.1h20v20H0zm0 40h20v20H0z"/><path fill="#7F7570" d="M39.9 380.2h20v20h-20z"/><path fill="#302517" d="M0 460.1h20v20H0z"/><path fill="#C9AE91" d="M99.8 200.6h20v20h-20z"/><path fill="#C9AE91" d="M99.8 220.5h20v20h-20zm0 20h20v20h-20z"/><path fill="#76BEDD" d="M99.8 260.4h20v20h-20z"/><path fill="#302517" d="M59.9 280.4h20v20h-20z"/><path fill="#7F7570" d="M59.9 300.4h20v20h-20zm-20 19.9h20v20h-20z"/><path fill="#76BEDD" d="M99.8 180.6h20v20h-20zm0-39.9h20v20h-20z"/><path fill="#76BEDD" d="M99.8 160.6h20v20h-20z"/><path fill="#BF7940" d="M119.8 20.9h20v20h-20z"/><path fill="#76BEDD" d="M79.9 100.7h20v20h-20z"/><path fill="#7F7570" d="M39.9 440.1h20v20h-20z"/><path fill="#76BEDD" d="M39.9 160.6h20v20h-20zm0 20h20v20h-20zm0 20h20v20h-20z"/><path fill="#76BEDD" d="M39.9 220.5h20v20h-20z"/><path fill="#302517" d="M39.9 280.4h20v20h-20z"/><path fill="#7F7570" d="M39.9 300.4h20v20h-20z"/><path fill="#76BEDD" d="M39.9 240.5h20v20h-20z"/><path fill="#76BEDD" d="M39.9 260.4h20v20h-20zm20-119.7h20v20h-20z"/><path fill="#76BEDD" d="M59.9 160.6h20v20h-20zm0 20h20v20h-20zm0 20h20v20h-20z"/><path fill="#76BEDD" d="M59.9 220.5h20v20h-20zm0 20h20v20h-20z"/><path fill="#76BEDD" d="M59.9 260.4h20v20h-20zm20-119.7h20v20h-20z"/><path fill="#76BEDD" d="M79.9 160.6h20v20h-20zm0 20h20v20h-20zm0 20h20v20h-20z"/><path fill="#76BEDD" d="M79.9 220.5h20v20h-20zm0 20h20v20h-20z"/><path fill="#76BEDD" d="M79.9 260.4h20v20h-20z"/><path fill="#88D5FF" d="M119.8 220.5h20v20h-20zm0 20h20v20h-20z"/><path fill="#88D5FF" d="M119.8 200.6h20v20h-20zm0-20h20v20h-20zm0-20h20v20h-20z"/><path fill="#76BEDD" d="M119.8 120.7h20v20h-20z"/><path fill="#88D5FF" d="M119.8 140.7h20v20h-20z"/><path fill="#C9AE91" d="M119.8 260.4h20v20h-20z"/><path fill="#76BEDD" d="M79.9 120.7h20v20h-20zm-20 0h20v20h-20z"/></g></svg>