<?xml version="1.0" encoding="utf-8"?>
<!-- Generator: Adobe Illustrator 17.1.0, SVG Export Plug-In . SVG Version: 6.00 Build 0)  -->
<!DOCTYPE svg PUBLIC "-//W3C//DTD SVG 1.1//EN" "http://www.w3.org/Graphics/SVG/1.1/DTD/svg11.dtd">
<svg version="1.1" id="Layer_1" class="Bill__6 is-hidden" xmlns="http://www.w3.org/2000/svg" xmlns:xlink="http://www.w3.org/1999/xlink" x="0px" y="0px"
	 width="240px" height="520px" viewBox="0 0 240 520" enable-background="new 0 0 240 520" xml:space="preserve">
<rect x="99.2" y="79.4" fill-rule="evenodd" clip-rule="evenodd" fill="#C9AE91" width="20" height="20"/>
<rect x="119.2" y="79.4" fill-rule="evenodd" clip-rule="evenodd" fill="#E5C7A1" width="20" height="20"/>
<rect x="99.2" y="59.4" fill-rule="evenodd" clip-rule="evenodd" fill="#C9AE91" width="20" height="20"/>
<rect x="119.2" y="59.4" fill-rule="evenodd" clip-rule="evenodd" fill="#C9AE91" width="20" height="20"/>
<rect x="119.2" y="39.4" fill-rule="evenodd" clip-rule="evenodd" fill="#BF7940" width="20" height="20"/>
<rect x="99.2" y="39.4" fill-rule="evenodd" clip-rule="evenodd" fill="#BF7940" width="20" height="20"/>
<rect x="139.2" y="79.4" fill-rule="evenodd" clip-rule="evenodd" fill="#E5C7A1" width="20" height="20"/>
<rect x="139.2" y="59.4" fill-rule="evenodd" clip-rule="evenodd" fill="#C9AE91" width="20" height="20"/>
<rect x="139.2" y="39.4" fill-rule="evenodd" clip-rule="evenodd" fill="#BF7940" width="20" height="20"/>
<rect x="119.2" y="139.5" fill-rule="evenodd" clip-rule="evenodd" fill="#88D5FF" width="20" height="20"/>
<rect x="119.2" y="159.5" fill-rule="evenodd" clip-rule="evenodd" fill="#88D5FF" width="20" height="20"/>
<rect x="119.2" y="179.5" fill-rule="evenodd" clip-rule="evenodd" fill="#88D5FF" width="20" height="20"/>
<rect x="119.2" y="199.6" fill-rule="evenodd" clip-rule="evenodd" fill="#88D5FF" width="20" height="20"/>
<rect x="139.2" y="139.5" fill-rule="evenodd" clip-rule="evenodd" fill="#516872" width="20" height="20"/>
<rect x="139.2" y="159.5" fill-rule="evenodd" clip-rule="evenodd" fill="#516872" width="20" height="20"/>
<rect x="139.2" y="179.5" fill-rule="evenodd" clip-rule="evenodd" fill="#516872" width="20" height="20"/>
<rect x="139.2" y="199.6" fill-rule="evenodd" clip-rule="evenodd" fill="#516872" width="20" height="20"/>
<rect x="119.2" y="119.5" fill-rule="evenodd" clip-rule="evenodd" fill="#76BEDD" width="20" height="20"/>
<rect x="59.1" y="119.5" fill-rule="evenodd" clip-rule="evenodd" fill="#76BEDD" width="20" height="20"/>
<rect x="139.2" y="119.5" fill-rule="evenodd" clip-rule="evenodd" fill="#3E5056" width="20" height="20"/>
<rect x="79.1" y="119.5" fill-rule="evenodd" clip-rule="evenodd" fill="#76BEDD" width="20" height="20"/>
<rect x="119.2" y="219.6" fill-rule="evenodd" clip-rule="evenodd" fill="#88D5FF" width="20" height="20"/>
<rect x="139.2" y="219.6" fill-rule="evenodd" clip-rule="evenodd" fill="#516872" width="20" height="20"/>
<rect x="79.1" y="139.5" fill-rule="evenodd" clip-rule="evenodd" fill="#76BEDD" width="20" height="20"/>
<rect x="79.1" y="159.5" fill-rule="evenodd" clip-rule="evenodd" fill="#76BEDD" width="20" height="20"/>
<rect x="79.1" y="179.5" fill-rule="evenodd" clip-rule="evenodd" fill="#76BEDD" width="20" height="20"/>
<rect x="79.1" y="199.6" fill-rule="evenodd" clip-rule="evenodd" fill="#76BEDD" width="20" height="20"/>
<rect x="79.1" y="219.6" fill-rule="evenodd" clip-rule="evenodd" fill="#76BEDD" width="20" height="20"/>
<rect x="79.1" y="279.7" fill-rule="evenodd" clip-rule="evenodd" fill="#302517" width="20" height="20"/>
<rect x="79.1" y="299.7" fill-rule="evenodd" clip-rule="evenodd" fill="#7F7570" width="20" height="20"/>
<rect x="139.2" y="279.7" fill-rule="evenodd" clip-rule="evenodd" fill="#302517" width="20" height="20"/>
<rect x="139.2" y="299.7" fill-rule="evenodd" clip-rule="evenodd" fill="#A09087" width="20" height="20"/>
<rect x="119.2" y="279.7" fill-rule="evenodd" clip-rule="evenodd" fill="#302517" width="20" height="20"/>
<rect x="119.2" y="299.7" fill-rule="evenodd" clip-rule="evenodd" fill="#A09087" width="20" height="20"/>
<rect x="119.2" y="239.6" fill-rule="evenodd" clip-rule="evenodd" fill="#88D5FF" width="20" height="20"/>
<rect x="139.2" y="239.6" fill-rule="evenodd" clip-rule="evenodd" fill="#516872" width="20" height="20"/>
<rect x="79.1" y="239.6" fill-rule="evenodd" clip-rule="evenodd" fill="#76BEDD" width="20" height="20"/>
<rect x="119.2" y="259.7" fill-rule="evenodd" clip-rule="evenodd" fill="#88D5FF" width="20" height="20"/>
<rect x="139.2" y="259.7" fill-rule="evenodd" clip-rule="evenodd" fill="#76BEDD" width="20" height="20"/>
<rect x="79.1" y="259.7" fill-rule="evenodd" clip-rule="evenodd" fill="#76BEDD" width="20" height="20"/>
<rect x="99.2" y="99.4" fill-rule="evenodd" clip-rule="evenodd" fill="#C9AE91" width="20" height="20"/>
<rect x="119.2" y="99.4" fill-rule="evenodd" clip-rule="evenodd" fill="#E5C7A1" width="20" height="20"/>
<rect x="139.2" y="99.4" fill-rule="evenodd" clip-rule="evenodd" fill="#E5C7A1" width="20" height="20"/>
<rect x="99.2" y="199.6" fill-rule="evenodd" clip-rule="evenodd" fill="#C9AE91" width="20" height="20"/>
<rect x="99.2" y="219.6" fill-rule="evenodd" clip-rule="evenodd" fill="#C9AE91" width="20" height="20"/>
<rect x="99.2" y="239.6" fill-rule="evenodd" clip-rule="evenodd" fill="#C9AE91" width="20" height="20"/>
<rect x="99.2" y="259.7" fill-rule="evenodd" clip-rule="evenodd" fill="#C9AE91" width="20" height="20"/>
<rect x="99.2" y="279.7" fill-rule="evenodd" clip-rule="evenodd" fill="#C9AE91" width="20" height="20"/>
<rect x="99.2" y="299.7" fill-rule="evenodd" clip-rule="evenodd" fill="#C9AE91" width="20" height="20"/>
<rect x="99.2" y="179.5" fill-rule="evenodd" clip-rule="evenodd" fill="#76BEDD" width="20" height="20"/>
<rect x="99.2" y="139.5" fill-rule="evenodd" clip-rule="evenodd" fill="#76BEDD" width="20" height="20"/>
<rect x="99.2" y="159.5" fill-rule="evenodd" clip-rule="evenodd" fill="#76BEDD" width="20" height="20"/>
<rect x="119.2" y="19.3" fill-rule="evenodd" clip-rule="evenodd" fill="#BF7940" width="20" height="20"/>
<rect x="79.1" y="99.4" fill-rule="evenodd" clip-rule="evenodd" fill="#76BEDD" width="20" height="20"/>
<rect x="99.2" y="119.5" fill-rule="evenodd" clip-rule="evenodd" fill="#76BEDD" width="20" height="20"/>
<rect x="59.1" y="139.5" fill-rule="evenodd" clip-rule="evenodd" fill="#76BEDD" width="20" height="20"/>
<rect x="59.1" y="159.5" fill-rule="evenodd" clip-rule="evenodd" fill="#76BEDD" width="20" height="20"/>
<rect x="59.1" y="179.5" fill-rule="evenodd" clip-rule="evenodd" fill="#76BEDD" width="20" height="20"/>
<rect x="59.1" y="199.6" fill-rule="evenodd" clip-rule="evenodd" fill="#76BEDD" width="20" height="20"/>
<rect x="59.1" y="219.6" fill-rule="evenodd" clip-rule="evenodd" fill="#76BEDD" width="20" height="20"/>
<rect x="59.1" y="279.7" fill-rule="evenodd" clip-rule="evenodd" fill="#302517" width="20" height="20"/>
<rect x="59.1" y="299.7" fill-rule="evenodd" clip-rule="evenodd" fill="#7F7570" width="20" height="20"/>
<rect x="59.1" y="239.6" fill-rule="evenodd" clip-rule="evenodd" fill="#76BEDD" width="20" height="20"/>
<rect x="59.1" y="259.7" fill-rule="evenodd" clip-rule="evenodd" fill="#76BEDD" width="20" height="20"/>
<rect x="79.1" y="339.8" fill-rule="evenodd" clip-rule="evenodd" fill="#7F7570" width="20" height="20"/>
<rect x="79.1" y="359.8" fill-rule="evenodd" clip-rule="evenodd" fill="#7F7570" width="20" height="20"/>
<rect x="79.1" y="399.8" fill-rule="evenodd" clip-rule="evenodd" fill="#7F7570" width="20" height="20"/>
<rect x="79.1" y="419.9" fill-rule="evenodd" clip-rule="evenodd" fill="#7F7570" width="20" height="20"/>
<rect x="79.1" y="379.8" fill-rule="evenodd" clip-rule="evenodd" fill="#7F7570" width="20" height="20"/>
<rect x="79.1" y="439.9" fill-rule="evenodd" clip-rule="evenodd" fill="#7F7570" width="20" height="20"/>
<rect x="79.1" y="459.9" fill-rule="evenodd" clip-rule="evenodd" fill="#7F7570" width="20" height="20"/>
<rect x="79.1" y="480" fill-rule="evenodd" clip-rule="evenodd" fill="#7F7570" width="20" height="20"/>
<rect x="99.2" y="339.8" fill-rule="evenodd" clip-rule="evenodd" fill="#A09087" width="20" height="20"/>
<rect x="99.2" y="359.8" fill-rule="evenodd" clip-rule="evenodd" fill="#A09087" width="20" height="20"/>
<rect x="99.2" y="399.8" fill-rule="evenodd" clip-rule="evenodd" fill="#A09087" width="20" height="20"/>
<rect x="99.2" y="419.9" fill-rule="evenodd" clip-rule="evenodd" fill="#A09087" width="20" height="20"/>
<rect x="99.2" y="439.9" fill-rule="evenodd" clip-rule="evenodd" fill="#A09087" width="20" height="20"/>
<rect x="99.2" y="459.9" fill-rule="evenodd" clip-rule="evenodd" fill="#A09087" width="20" height="20"/>
<rect x="99.2" y="500" fill-rule="evenodd" clip-rule="evenodd" fill="#302517" width="20" height="20"/>
<rect x="99.2" y="379.8" fill-rule="evenodd" clip-rule="evenodd" fill="#A09087" width="20" height="20"/>
<rect x="99.2" y="480" fill-rule="evenodd" clip-rule="evenodd" fill="#A09087" width="20" height="20"/>
<rect x="79.1" y="500" fill-rule="evenodd" clip-rule="evenodd" fill="#302517" width="20" height="20"/>
<rect x="79.1" y="319.7" fill-rule="evenodd" clip-rule="evenodd" fill="#7F7570" width="20" height="20"/>
<rect x="99.2" y="319.7" fill-rule="evenodd" clip-rule="evenodd" fill="#A09087" width="20" height="20"/>
<rect x="59.1" y="319.7" fill-rule="evenodd" clip-rule="evenodd" fill="#7F7570" width="20" height="20"/>
<rect x="119.2" y="339.8" fill-rule="evenodd" clip-rule="evenodd" fill="#7F7570" width="20" height="20"/>
<rect x="119.2" y="359.8" fill-rule="evenodd" clip-rule="evenodd" fill="#7F7570" width="20" height="20"/>
<rect x="139.2" y="379.8" fill-rule="evenodd" clip-rule="evenodd" fill="#7F7570" width="20" height="20"/>
<rect x="59.1" y="399.8" fill-rule="evenodd" clip-rule="evenodd" fill="#302517" width="20" height="20"/>
<rect x="59.1" y="439.9" fill-rule="evenodd" clip-rule="evenodd" fill="#302517" width="20" height="20"/>
<rect x="59.1" y="419.9" fill-rule="evenodd" clip-rule="evenodd" fill="#302517" width="20" height="20"/>
<rect x="139.2" y="319.7" fill-rule="evenodd" clip-rule="evenodd" fill="#A09087" width="20" height="20"/>
<rect x="119.2" y="319.7" fill-rule="evenodd" clip-rule="evenodd" fill="#A09087" width="20" height="20"/>
<rect x="139.2" y="339.8" fill-rule="evenodd" clip-rule="evenodd" fill="#7F7570" width="20" height="20"/>
<rect x="139.2" y="359.8" fill-rule="evenodd" clip-rule="evenodd" fill="#7F7570" width="20" height="20"/>
<rect x="119.2" y="379.8" fill-rule="evenodd" clip-rule="evenodd" fill="#7F7570" width="20" height="20"/>
<rect x="119.2" y="399.8" fill-rule="evenodd" clip-rule="evenodd" fill="#7F7570" width="20" height="20"/>
</svg>
