<svg class="Bill__3 is-hidden" xmlns="http://www.w3.org/2000/svg" width="240" height="520" viewBox="0 0 240 520"><path fill-rule="evenodd" clip-rule="evenodd" fill="#7F7570" d="M139.5 339.9h20v20h-20zm0 20h20v20h-20zm-80.1-20h20v20h-20zm80.1 60h20v20h-20zm0 20h20v20h-20zm-80.1-60h20v20h-20zm80.1 20h20v20h-20zm0 60h20v20h-20zm-80.1-40h20v20h-20zm-40 20h20v20h-20zm0 20h20v20h-20zm40-60h20v20h-20zm80.1 80.1h20v20h-20zm-120.1 0h20v20h-20zm120.1 20h20v20h-20z"/><path fill-rule="evenodd" clip-rule="evenodd" fill="#A09087" d="M159.5 339.9h20v20h-20zm0 20h20v20h-20zm0 40h20v20h-20zm0 20h20v20h-20zm0 20h20v20h-20zm0 20.1h20v20h-20z"/><path fill-rule="evenodd" clip-rule="evenodd" fill="#302517" d="M159.5 500h20v20h-20z"/><path fill-rule="evenodd" clip-rule="evenodd" fill="#A09087" d="M159.5 379.9h20v20h-20zm0 100.1h20v20h-20z"/><path fill-rule="evenodd" clip-rule="evenodd" fill="#302517" d="M139.5 500h20v20h-20z"/><path fill-rule="evenodd" clip-rule="evenodd" fill="#E5C7A1" d="M99.4 79.6h20v20h-20zm20.1 0h20v20h-20z"/><path fill-rule="evenodd" clip-rule="evenodd" fill="#C9AE91" d="M99.4 59.6h20v20h-20zm20.1 0h20v20h-20z"/><path fill-rule="evenodd" clip-rule="evenodd" fill="#BF7940" d="M119.5 39.6h20v20h-20zm-20.1 0h20v20h-20z"/><path fill-rule="evenodd" clip-rule="evenodd" fill="#E5C7A1" d="M139.5 79.6h20v20h-20z"/><path fill-rule="evenodd" clip-rule="evenodd" fill="#C9AE91" d="M139.5 59.6h20v20h-20z"/><path fill-rule="evenodd" clip-rule="evenodd" fill="#BF7940" d="M139.5 39.6h20v20h-20z"/><path fill-rule="evenodd" clip-rule="evenodd" fill="#88D5FF" d="M79.4 139.7h20v20h-20zm0 20h20v20h-20zm0 20h20v20h-20zm0 20h20v20h-20z"/><path fill-rule="evenodd" clip-rule="evenodd" fill="#516872" d="M119.5 139.7h20v20h-20zm0 20h20v20h-20zm0 20h20v20h-20zm0 20h20v20h-20z"/><path fill-rule="evenodd" clip-rule="evenodd" fill="#76BEDD" d="M99.4 119.7h20v20h-20zm-40 0h20v20h-20z"/><path fill-rule="evenodd" clip-rule="evenodd" fill="#3E5056" d="M119.5 119.7h20v20h-20z"/><path fill-rule="evenodd" clip-rule="evenodd" fill="#76BEDD" d="M139.5 119.7h20v20h-20z"/><path fill-rule="evenodd" clip-rule="evenodd" fill="#88D5FF" d="M79.4 219.8h20v20h-20z"/><path fill-rule="evenodd" clip-rule="evenodd" fill="#516872" d="M119.5 219.8h20v20h-20z"/><path fill-rule="evenodd" clip-rule="evenodd" fill="#88D5FF" d="M139.5 139.7h20v20h-20zm0 20h20v20h-20zm0 20h20v20h-20zm0 20h20v20h-20zm0 20.1h20v20h-20z"/><path fill-rule="evenodd" clip-rule="evenodd" fill="#302517" d="M139.5 279.8h20v20h-20z"/><path fill-rule="evenodd" clip-rule="evenodd" fill="#A09087" d="M139.5 299.8h20v20h-20z"/><path fill-rule="evenodd" clip-rule="evenodd" fill="#7F7570" d="M139.5 319.8h20v20h-20z"/><path fill-rule="evenodd" clip-rule="evenodd" fill="#302517" d="M159.5 279.8h20v20h-20z"/><path fill-rule="evenodd" clip-rule="evenodd" fill="#A09087" d="M159.5 299.8h20v20h-20zm0 20h20v20h-20z"/><path fill-rule="evenodd" clip-rule="evenodd" fill="#302517" d="M99.4 279.8h20v20h-20z"/><path fill-rule="evenodd" clip-rule="evenodd" fill="#A09087" d="M99.4 299.8h20v20h-20z"/><path fill-rule="evenodd" clip-rule="evenodd" fill="#7F7570" d="M99.4 319.8h20v20h-20z"/><path fill-rule="evenodd" clip-rule="evenodd" fill="#302517" d="M119.5 279.8h20v20h-20z"/><path fill-rule="evenodd" clip-rule="evenodd" fill="#A09087" d="M119.5 299.8h20v20h-20z"/><path fill-rule="evenodd" clip-rule="evenodd" fill="#7F7570" d="M119.5 319.8h20v20h-20zm-60.1 0h20v20h-20z"/><path fill-rule="evenodd" clip-rule="evenodd" fill="#302517" d="M79.4 279.8h20v20h-20z"/><path fill-rule="evenodd" clip-rule="evenodd" fill="#A09087" d="M79.4 299.8h20v20h-20z"/><path fill-rule="evenodd" clip-rule="evenodd" fill="#7F7570" d="M79.4 319.8h20v20h-20z"/><path fill-rule="evenodd" clip-rule="evenodd" fill="#88D5FF" d="M79.4 239.8h20v20h-20z"/><path fill-rule="evenodd" clip-rule="evenodd" fill="#516872" d="M119.5 239.8h20v20h-20z"/><path fill-rule="evenodd" clip-rule="evenodd" fill="#88D5FF" d="M139.5 239.8h20v20h-20zm-60.1 20h20v20h-20z"/><path fill-rule="evenodd" clip-rule="evenodd" fill="#76BEDD" d="M119.5 259.8h20v20h-20z"/><path fill-rule="evenodd" clip-rule="evenodd" fill="#88D5FF" d="M139.5 259.8h20v20h-20zm20-20h20v20h-20zm0 20h20v20h-20zm0-40h20v20h-20zm0-20.1h20v20h-20zm0-20h20v20h-20zm0-40h20v20h-20zm0 20h20v20h-20zm0-40h20v20h-20z"/><path fill-rule="evenodd" clip-rule="evenodd" fill="#E5C7A1" d="M99.4 99.6h20v20h-20zm20.1 0h20v20h-20zm20 0h20v20h-20z"/><path fill-rule="evenodd" clip-rule="evenodd" fill="#7F7570" d="M39.4 339.9h20v20h-20zm0 20h20v20h-20zm0 40h20v20h-20zm0 20h20v20h-20z"/><path fill-rule="evenodd" clip-rule="evenodd" fill="#302517" d="M-.6 439.9h20v20h-20zm0 40.1h20v20h-20z"/><path fill-rule="evenodd" clip-rule="evenodd" fill="#7F7570" d="M39.4 379.9h20v20h-20z"/><path fill-rule="evenodd" clip-rule="evenodd" fill="#302517" d="M-.6 460h20v20h-20z"/><path fill-rule="evenodd" clip-rule="evenodd" fill="#C9AE91" d="M59.4 199.7h20v20h-20zm0 20.1h20v20h-20zm0 20h20v20h-20zm0 20h20v20h-20zm0 20h20v20h-20zm0 20h20v20h-20z"/><path fill-rule="evenodd" clip-rule="evenodd" fill="#7F7570" d="M39.4 319.8h20v20h-20z"/><path fill-rule="evenodd" clip-rule="evenodd" fill="#76BEDD" d="M59.4 179.7h20v20h-20zm0-40h20v20h-20zm0 20h20v20h-20z"/><path fill-rule="evenodd" clip-rule="evenodd" fill="#BF7940" d="M119.5 19.6h20v20h-20z"/><path fill-rule="evenodd" clip-rule="evenodd" fill="#88D5FF" d="M99.4 139.7h20v20h-20zm0 20h20v20h-20zm0 20h20v20h-20zm0 20h20v20h-20zm0 20.1h20v20h-20zm0 20h20v20h-20zm0 20h20v20h-20z"/><path fill-rule="evenodd" clip-rule="evenodd" fill="#76BEDD" d="M79.4 99.6h20v20h-20z"/><path fill-rule="evenodd" clip-rule="evenodd" fill="#88D5FF" d="M79.4 119.7h20v20h-20z"/><path fill-rule="evenodd" clip-rule="evenodd" fill="#7F7570" d="M39.4 439.9h20v20h-20z"/><path fill-rule="evenodd" clip-rule="evenodd" fill="#76BEDD" d="M39.4 139.7h20v20h-20zm0 20h20v20h-20zm0 20h20v20h-20zm0 20h20v20h-20zm0 20.1h20v20h-20z"/><path fill-rule="evenodd" clip-rule="evenodd" fill="#302517" d="M39.4 279.8h20v20h-20z"/><path fill-rule="evenodd" clip-rule="evenodd" fill="#7F7570" d="M39.4 299.8h20v20h-20z"/><path fill-rule="evenodd" clip-rule="evenodd" fill="#76BEDD" d="M39.4 239.8h20v20h-20zm0 20h20v20h-20z"/></svg>