<svg class="Bill__4 is-hidden" xmlns="http://www.w3.org/2000/svg" width="240" height="520" viewBox="-479 141 240 520"><path fill-rule="evenodd" clip-rule="evenodd" fill="#7F7570" d="M-361.1 481.4h19.9v19.9h-19.9zm0 20h19.9v20h-19.9zm0 39.9h19.9v20h-19.9z"/><path fill-rule="evenodd" clip-rule="evenodd" fill="#7F7570" d="M-361.1 561.2h19.9v19.9h-19.9zm0-39.9h19.9v19.9h-19.9zm0 59.9h19.9v20h-19.9zm-19.9-79.8h19.9v20H-381z"/><path fill-rule="evenodd" clip-rule="evenodd" fill="#7F7570" d="M-381 521.3h19.9v19.9H-381zm0 20h19.9v20H-381zm19.9 59.8h19.9V621h-19.9z"/><path fill-rule="evenodd" clip-rule="evenodd" fill="#7F7570" d="M-381 561.2h19.9v19.9H-381zm0 59.9h19.9V641H-381zm39.9-139.7h19.9v19.9h-19.9zm0 20h19.9v20h-19.9z"/><path fill-rule="evenodd" clip-rule="evenodd" fill="#A09087" d="M-341.1 541.3h19.9v20h-19.9z"/><path fill-rule="evenodd" clip-rule="evenodd" fill="#A09087" d="M-341.1 561.2h19.9v19.9h-19.9zm0 20h19.9v20h-19.9z"/><path fill-rule="evenodd" clip-rule="evenodd" fill="#A09087" d="M-341.1 601.1h19.9V621h-19.9z"/><path fill-rule="evenodd" clip-rule="evenodd" fill="#302517" d="M-361.1 641h19.9v20h-19.9z"/><path fill-rule="evenodd" clip-rule="evenodd" fill="#7F7570" d="M-341.1 521.3h19.9v19.9h-19.9z"/><path fill-rule="evenodd" clip-rule="evenodd" fill="#A09087" d="M-361.1 621.1h19.9V641h-19.9z"/><path fill-rule="evenodd" clip-rule="evenodd" fill="#302517" d="M-381 641h19.9v20H-381z"/><path fill-rule="evenodd" clip-rule="evenodd" fill="#C9AE91" d="M-381 222.1h19.9V242H-381z"/><path fill-rule="evenodd" clip-rule="evenodd" fill="#E5C7A1" d="M-361.1 222.1h19.9V242h-19.9z"/><path fill-rule="evenodd" clip-rule="evenodd" fill="#C9AE91" d="M-381 202.2h19.9v19.9H-381zm19.9 0h19.9v19.9h-19.9z"/><path fill-rule="evenodd" clip-rule="evenodd" fill="#BF7940" d="M-361.1 182.2h19.9v19.9h-19.9zm-19.9 0h19.9v19.9H-381z"/><path fill-rule="evenodd" clip-rule="evenodd" fill="#E5C7A1" d="M-341.1 222.1h19.9V242h-19.9z"/><path fill-rule="evenodd" clip-rule="evenodd" fill="#C9AE91" d="M-341.1 202.2h19.9v19.9h-19.9z"/><path fill-rule="evenodd" clip-rule="evenodd" fill="#BF7940" d="M-341.1 182.2h19.9v19.9h-19.9z"/><path fill-rule="evenodd" clip-rule="evenodd" fill="#88D5FF" d="M-361.1 282h19.9v20h-19.9z"/><path fill-rule="evenodd" clip-rule="evenodd" fill="#88D5FF" d="M-361.1 301.9h19.9v19.9h-19.9zm0 20h19.9v20h-19.9z"/><path fill-rule="evenodd" clip-rule="evenodd" fill="#88D5FF" d="M-361.1 341.8h19.9v19.9h-19.9z"/><path fill-rule="evenodd" clip-rule="evenodd" fill="#516872" d="M-341.1 282h19.9v20h-19.9z"/><path fill-rule="evenodd" clip-rule="evenodd" fill="#516872" d="M-341.1 301.9h19.9v19.9h-19.9zm0 20h19.9v20h-19.9z"/><path fill-rule="evenodd" clip-rule="evenodd" fill="#516872" d="M-341.1 341.8h19.9v19.9h-19.9z"/><path fill-rule="evenodd" clip-rule="evenodd" fill="#76BEDD" d="M-361.1 262h19.9v19.9h-19.9zm-59.8 0h19.9v19.9h-19.9z"/><path fill-rule="evenodd" clip-rule="evenodd" fill="#3E5056" d="M-341.1 262h19.9v19.9h-19.9z"/><path fill-rule="evenodd" clip-rule="evenodd" fill="#76BEDD" d="M-401 262h19.9v19.9H-401z"/><path fill-rule="evenodd" clip-rule="evenodd" fill="#88D5FF" d="M-361.1 361.8h19.9v19.9h-19.9z"/><path fill-rule="evenodd" clip-rule="evenodd" fill="#516872" d="M-341.1 361.8h19.9v19.9h-19.9z"/><path fill-rule="evenodd" clip-rule="evenodd" fill="#76BEDD" d="M-401 282h19.9v20H-401z"/><path fill-rule="evenodd" clip-rule="evenodd" fill="#76BEDD" d="M-401 301.9h19.9v19.9H-401zm0 20h19.9v20H-401z"/><path fill-rule="evenodd" clip-rule="evenodd" fill="#76BEDD" d="M-401 341.8h19.9v19.9H-401zm0 20h19.9v19.9H-401z"/><path fill-rule="evenodd" clip-rule="evenodd" fill="#302517" d="M-401 421.6h19.9v19.9H-401z"/><path fill-rule="evenodd" clip-rule="evenodd" fill="#7F7570" d="M-401 441.5h19.9v19.9H-401z"/><path fill-rule="evenodd" clip-rule="evenodd" fill="#A09087" d="M-341.1 461.5h19.9v19.9h-19.9z"/><path fill-rule="evenodd" clip-rule="evenodd" fill="#302517" d="M-341.1 421.6h19.9v19.9h-19.9z"/><path fill-rule="evenodd" clip-rule="evenodd" fill="#A09087" d="M-341.1 441.5h19.9v19.9h-19.9z"/><path fill-rule="evenodd" clip-rule="evenodd" fill="#7F7570" d="M-361.1 461.5h19.9v19.9h-19.9zm-39.9 0h19.9v19.9H-401z"/><path fill-rule="evenodd" clip-rule="evenodd" fill="#302517" d="M-361.1 421.6h19.9v19.9h-19.9z"/><path fill-rule="evenodd" clip-rule="evenodd" fill="#A09087" d="M-361.1 441.5h19.9v19.9h-19.9z"/><path fill-rule="evenodd" clip-rule="evenodd" fill="#7F7570" d="M-381 461.5h19.9v19.9H-381z"/><path fill-rule="evenodd" clip-rule="evenodd" fill="#88D5FF" d="M-361.1 381.7h19.9v20h-19.9z"/><path fill-rule="evenodd" clip-rule="evenodd" fill="#516872" d="M-341.1 381.7h19.9v20h-19.9z"/><path fill-rule="evenodd" clip-rule="evenodd" fill="#76BEDD" d="M-401 381.7h19.9v20H-401z"/><path fill-rule="evenodd" clip-rule="evenodd" fill="#88D5FF" d="M-361.1 401.6h19.9v20h-19.9z"/><path fill-rule="evenodd" clip-rule="evenodd" fill="#76BEDD" d="M-341.1 401.6h19.9v20h-19.9zm-59.9 0h19.9v20H-401z"/><path fill-rule="evenodd" clip-rule="evenodd" fill="#C9AE91" d="M-381 242.1h19.9V262H-381z"/><path fill-rule="evenodd" clip-rule="evenodd" fill="#E5C7A1" d="M-361.1 242.1h19.9V262h-19.9zm20 0h19.9V262h-19.9z"/><path fill-rule="evenodd" clip-rule="evenodd" fill="#302517" d="M-401 541.3h19.9v20H-401zm0 39.9h19.9v20H-401z"/><path fill-rule="evenodd" clip-rule="evenodd" fill="#302517" d="M-401 561.2h19.9v19.9H-401z"/><path fill-rule="evenodd" clip-rule="evenodd" fill="#C9AE91" d="M-381 341.8h19.9v19.9H-381zm0 20h19.9v19.9H-381zm0 19.9h19.9v20H-381z"/><path fill-rule="evenodd" clip-rule="evenodd" fill="#C9AE91" d="M-381 401.6h19.9v20H-381zm0 20h19.9v19.9H-381zm0 19.9h19.9v19.9H-381z"/><path fill-rule="evenodd" clip-rule="evenodd" fill="#7F7570" d="M-420.9 461.5h19.9v19.9h-19.9z"/><path fill-rule="evenodd" clip-rule="evenodd" fill="#76BEDD" d="M-381 321.9h19.9v20H-381zm0-39.9h19.9v20H-381z"/><path fill-rule="evenodd" clip-rule="evenodd" fill="#76BEDD" d="M-381 301.9h19.9v19.9H-381z"/><path fill-rule="evenodd" clip-rule="evenodd" fill="#BF7940" d="M-361.1 162.3h19.9v19.9h-19.9z"/><path fill-rule="evenodd" clip-rule="evenodd" fill="#76BEDD" d="M-401 242.1h19.9V262H-401zm20 19.9h19.9v19.9H-381zm-39.9 20h19.9v20h-19.9z"/><path fill-rule="evenodd" clip-rule="evenodd" fill="#76BEDD" d="M-420.9 301.9h19.9v19.9h-19.9zm0 20h19.9v20h-19.9z"/><path fill-rule="evenodd" clip-rule="evenodd" fill="#76BEDD" d="M-420.9 341.8h19.9v19.9h-19.9zm0 20h19.9v19.9h-19.9z"/><path fill-rule="evenodd" clip-rule="evenodd" fill="#302517" d="M-420.9 421.6h19.9v19.9h-19.9z"/><path fill-rule="evenodd" clip-rule="evenodd" fill="#7F7570" d="M-420.9 441.5h19.9v19.9h-19.9z"/><path fill-rule="evenodd" clip-rule="evenodd" fill="#76BEDD" d="M-420.9 381.7h19.9v20h-19.9z"/><path fill-rule="evenodd" clip-rule="evenodd" fill="#76BEDD" d="M-420.9 401.6h19.9v20h-19.9z"/><path fill-rule="evenodd" clip-rule="evenodd" fill="#7F7570" d="M-381 481.4h19.9v19.9H-381zm-20 0h19.9v19.9H-401z"/></svg>