<svg class="Bill__1" xmlns="http://www.w3.org/2000/svg" width="240" height="520" viewBox="0 0 240 520"><path fill="#7F7570" d="M140 340h20v20h-20zm0 20h20v20h-20z"/><path fill="#A09087" d="M60 340h20v20H60z"/><path fill="#7F7570" d="M140 400h20v20h-20zm0 20h20v20h-20z"/><path fill="#A09087" d="M60 360h20v20H60z"/><path fill="#7F7570" d="M140 380h20v20h-20zm0 60h20v20h-20z"/><path fill="#A09087" d="M60 400h20v20H60zm0 20h20v20H60zm0 20h20v20H60zm0 20h20v20H60zm0-80h20v20H60z"/><path fill="#7F7570" d="M140 460h20v20h-20z"/><path fill="#A09087" d="M60 480h20v20H60z"/><path fill="#7F7570" d="M140 480h20v20h-20z"/><path fill="#302517" d="M60 500h20v20H60z"/><path fill="#A09087" d="M160 340h20v20h-20zm0 20h20v20h-20zm0 40h20v20h-20zm0 20h20v20h-20zm0 20h20v20h-20zm0 20h20v20h-20z"/><path fill="#302517" d="M160 500h20v20h-20z"/><path fill="#A09087" d="M160 380h20v20h-20zm0 100h20v20h-20z"/><path fill="#302517" d="M140 500h20v20h-20z"/><path fill="#E5C7A1" d="M100 80h20v20h-20zm20 0h20v20h-20z"/><path fill="#C9AE91" d="M100 60h20v20h-20zm20 0h20v20h-20z"/><path fill="#BF7940" d="M120 40h20v20h-20zm-20 0h20v20h-20z"/><path fill="#E5C7A1" d="M140 80h20v20h-20z"/><path fill="#C9AE91" d="M140 60h20v20h-20z"/><path fill="#BF7940" d="M140 40h20v20h-20z"/><path fill="#88D5FF" d="M80 140h20v20H80zm-20 0h20v20H60zm20 20h20v19H80zm0 20h20v19H80zm-20-20h20v19H60zm0 20h20v19H60zm20 19h20v20H80zm-20 0h20v20H60z"/><path fill="#516872" d="M120 140h20v20h-20zm0 20h20v19h-20zm0 20h20v19h-20zm0 20h20v20h-20z"/><path fill="#76BEDD" d="M100 120h20v20h-20zm-40 0h20v20H60z"/><path fill="#3E5056" d="M120 120h20v20h-20z"/><path fill="#76BEDD" d="M140 120h20v20h-20z"/><path fill="#88D5FF" d="M80 220h20v20H80zm-20 0h20v20H60z"/><path fill="#516872" d="M120 220h20v20h-20z"/><path fill="#88D5FF" d="M140 140h20v20h-20zm0 20h20v19h-20zm0 20h20v19h-20zm0 20h20v20h-20zm0 20h20v20h-20z"/><path fill="#D8BB91" d="M180 199h20v20h-20zm0 20h20v20h-20zm0 21h20v20h-20z"/><path fill="#88D5FF" d="M180 180h20v19h-20zm0-20h20v19h-20z"/><path fill="#D8BB91" d="M180 260h20v20h-20zm0 20h20v20h-20zm0 20h20v20h-20z"/><path fill="#302517" d="M140 280h20v20h-20z"/><path fill="#A09087" d="M140 300h20v20h-20z"/><path fill="#7F7570" d="M140 320h20v20h-20z"/><path fill="#302517" d="M160 280h20v20h-20z"/><path fill="#A09087" d="M160 300h20v20h-20zm0 20h20v20h-20z"/><path fill="#302517" d="M100 280h20v20h-20z"/><path fill="#A09087" d="M100 300h20v20h-20z"/><path fill="#7F7570" d="M100 320h20v20h-20z"/><path fill="#302517" d="M120 280h20v20h-20z"/><path fill="#A09087" d="M120 300h20v20h-20z"/><path fill="#7F7570" d="M120 320h20v20h-20z"/><path fill="#302517" d="M60 280h20v20H60z"/><path fill="#A09087" d="M60 300h20v20H60zm0 20h20v20H60z"/><path fill="#302517" d="M80 280h20v20H80z"/><path fill="#A09087" d="M80 300h20v20H80z"/><path fill="#7F7570" d="M80 320h20v20H80z"/><path fill="#88D5FF" d="M80 240h20v20H80zm-20 0h20v20H60z"/><path fill="#516872" d="M120 240h20v20h-20z"/><path fill="#88D5FF" d="M140 240h20v20h-20zm-60 20h20v20H80zm-20 0h20v20H60z"/><path fill="#76BEDD" d="M120 260h20v20h-20z"/><path fill="#88D5FF" d="M140 260h20v20h-20z"/><path fill="#76BEDD" d="M160 240h20v20h-20zm0 20h20v20h-20zm0-40h20v20h-20zm0-20h20v20h-20zm0-20h20v19h-20z"/><path fill="#88D5FF" d="M160 140h20v20h-20zm0 20h20v19h-20zm0-40h20v20h-20zm20 20h20v20h-20zm0 20h20v19h-20z"/><path fill="#E5C7A1" d="M100 100h20v20h-20zm20 0h20v20h-20zm20 0h20v20h-20z"/><path fill="#7F7570" d="M40 340h20v20H40zm0 20h20v20H40zm0 40h20v20H40zm0 20h20v20H40zm0 20h20v20H40zm0 20h20v20H40z"/><path fill="#302517" d="M40 500h20v20H40z"/><path fill="#7F7570" d="M40 380h20v20H40zm0 100h20v20H40z"/><path fill="#C9AE91" d="M40 199h20v20H40zm0 20h20v20H40zm0 21h20v20H40zm0 20h20v20H40zm0 20h20v20H40zm0 20h20v20H40z"/><path fill="#7F7570" d="M40 320h20v20H40z"/><path fill="#76BEDD" d="M40 180h20v19H40zm0-40h20v20H40zm0 20h20v19H40z"/><path fill="#BF7940" d="M120 20h20v20h-20z"/><path fill="#88D5FF" d="M100 140h20v20h-20zm0 20h20v19h-20zm0 20h20v19h-20zm0 20h20v20h-20zm0 20h20v20h-20zm0 20h20v20h-20zm0 20h20v20h-20z"/><path fill="#76BEDD" d="M80 100h20v20H80z"/><path fill="#88D5FF" d="M80 120h20v20H80z"/></svg>